SplineFontDB: 3.2
FontName: BertiogaSans-SemiBoldItalic
FullName: Bertioga Sans SemiBold Italic
FamilyName: Bertioga Sans SemiBold
Weight: Demi
Copyright: Copyright 2020 The Arimo Project Authors (https://github.com/googlefonts/arimo)\nCopyright 2020 The Libra Sans Project Authors (https://github.com/stefanpeev/libra-sans)\nCopyright 2024 The Bertioga Sans Project Authors (https://github.com/cssobral2013/bertioga-sans)
UComments: "2024-2-22: Created with FontForge (http://fontforge.org)"
Version: 3.004
ItalicAngle: -12
UnderlinePosition: -100
UnderlineWidth: 50
Ascent: 1638
Descent: 410
InvalidEm: 0
LayerCount: 2
Layer: 0 1 "Back" 1
Layer: 1 1 "Fore" 0
XUID: [1021 531 -1996577725 119244]
StyleMap: 0x0001
FSType: 0
OS2Version: 4
OS2_WeightWidthSlopeOnly: 0
OS2_UseTypoMetrics: 1
CreationTime: 1708629968
ModificationTime: 1708737933
PfmFamily: 17
TTFWeight: 600
TTFWidth: 5
LineGap: 67
VLineGap: 0
Panose: 2 11 7 3 2 2 2 2 2 4
OS2TypoAscent: 1854
OS2TypoAOffset: 0
OS2TypoDescent: -434
OS2TypoDOffset: 0
OS2TypoLinegap: 67
OS2WinAscent: 2136
OS2WinAOffset: 0
OS2WinDescent: 797
OS2WinDOffset: 0
HheadAscent: 1854
HheadAOffset: 0
HheadDescent: -434
HheadDOffset: 0
OS2SubXSize: 1331
OS2SubYSize: 1433
OS2SubXOff: 0
OS2SubYOff: 286
OS2SupXSize: 1331
OS2SupYSize: 1433
OS2SupXOff: 0
OS2SupYOff: 983
OS2StrikeYSize: 102
OS2StrikeYPos: 530
OS2CapHeight: 1409
OS2XHeight: 1092
OS2Vendor: 'GOOG'
OS2CodePages: e00001bf.dff70000
OS2UnicodeRanges: e0000aff.500078ff.00000029.00000000
Lookup: 4 1 0 "dligDiscretionaryLigaturesinHebrewlookup1" { "dligDiscretionaryLigaturesinHebrewlookup1 subtable"  } ['dlig' ('hebr' <'dflt' > ) ]
Lookup: 4 0 0 "ccmpGlyphCompositionDecompositionlookup2" { "ccmpGlyphCompositionDecompositionlookup2 subtable"  } ['ccmp' ('latn' <'dflt' 'MAH ' > 'grek' <'dflt' > 'cyrl' <'dflt' > ) ]
Lookup: 6 0 0 "ccmpGlyphCompositionDecompositionlookup3" { "ccmpGlyphCompositionDecompositionlookup3 subtable"  } ['ccmp' ('latn' <'dflt' 'MAH ' > 'grek' <'dflt' > 'cyrl' <'dflt' > ) ]

StartChar: .notdef
Encoding: 65536 -1 0
Width: 1536
GlyphClass: 2
Flags: W
LayerCount: 2
Fore
SplineSet
1330 1409 m 1,0,0
 1330 0 l 1,0,0
 205 0 l 1,0,0
 205 1409 l 1,0,0
 1330 1409 l 1,0,0
281 76 m 1,0,0
 1254 76 l 1,0,0
 1254 1333 l 1,0,0
 281 1333 l 1,0,0
 281 76 l 1,0,0
EndSplineSet
EndChar

StartChar: exclam
Encoding: 33 33 4
Width: 644
GlyphClass: 2
Flags: W
LayerCount: 2
Fore
SplineSet
614.66 1409 m 1,0,0
 391.98 416.43 l 1,0,0
 189.04 416.43 l 1,0,0
 353 1409 l 1,0,0
 614.66 1409 l 1,0,0
383.36 247.23 m 1,0,0
 335.32 0 l 1,0,0
 78.34 0 l 1,0,0
 126.38 247.23 l 1,0,0
 383.36 247.23 l 1,0,0
EndSplineSet
EndChar

StartChar: quotedbl
Encoding: 34 34 5
Width: 890
GlyphClass: 2
Flags: W
LayerCount: 2
Fore
SplineSet
929.63 1409 m 1,0,0
 808.89 920.44 l 1,0,0
 615.3 920.44 l 1,0,0
 684.66 1409 l 1,0,0
 929.63 1409 l 1,0,0
521.1 1409 m 1,0,0
 401.7 920.44 l 1,0,0
 208.44 920.44 l 1,0,0
 277.47 1409 l 1,0,0
 521.1 1409 l 1,0,0
EndSplineSet
EndChar

StartChar: numbersign
Encoding: 35 35 6
Width: 1139
GlyphClass: 2
Flags: W
LayerCount: 2
Fore
SplineSet
366.08 389.91 m 1,0,0
 284.76 0 l 1,0,0
 145.95 0 l 1,0,0
 226.6 389.91 l 1,0,0
 56.42 389.91 l 1,0,0
 56.42 525.38 l 1,0,0
 256.63 525.38 l 1,0,0
 329.27 869.59 l 1,0,0
 107.42 869.59 l 1,0,0
 107.42 1004.39 l 1,0,0
 357.3 1004.39 l 1,0,0
 442.95 1396.98 l 1,0,0
 581.76 1396.98 l 1,0,0
 497.78 1004.39 l 1,0,0
 823.26 1004.39 l 1,0,0
 908.58 1396.98 l 1,0,0
 1049.4 1396.98 l 1,0,0
 964.08 1004.39 l 1,0,0
 1143.59 1004.39 l 1,0,0
 1143.59 869.59 l 1,0,0
 934.71 869.59 l 1,0,0
 862.74 525.38 l 1,0,0
 1092.59 525.38 l 1,0,0
 1092.59 389.91 l 1,0,0
 834.38 389.91 l 1,0,0
 750.4 0 l 1,0,0
 609.58 0 l 1,0,0
 691.56 389.91 l 1,0,0
 366.08 389.91 l 1,0,0
396.44 525.38 m 1,0,0
 722.93 525.38 l 1,0,0
 795.57 869.59 l 1,0,0
 471.08 869.59 l 1,0,0
 396.44 525.38 l 1,0,0
EndSplineSet
EndChar

StartChar: dollar
Encoding: 36 36 7
Width: 1139
GlyphClass: 2
Flags: W
LayerCount: 2
Fore
SplineSet
1077.36 457.83 m 0,0,0
 1077.36 254.07 1077.36 254.07 937.515 142.54 c 0,0,0
 797.67 31.01 797.67 31.01 523.92 21 c 1,0,0
 491.58 -148.04 l 1,0,0
 378.92 -148.04 l 1,0,0
 410.92 23 l 1,0,0
 226.67 27.62 226.67 27.62 116.145 119.965 c 0,0,0
 5.62 212.31 5.62 212.31 -11.33 369.3 c 1,0,0
 218 409.65 l 1,0,0
 230.94 312.74 230.94 312.74 287.36 263.455 c 0,0,0
 343.78 214.17 343.78 214.17 448.3 210.87 c 1,0,0
 528.89 633.52 l 1,0,0
 378.55 671.84 378.55 671.84 291.14 737.27 c 0,0,0
 224.84 785.62 224.84 785.62 190.525 850.455 c 0,0,0
 156.21 915.29 156.21 915.29 156.21 997.9 c 0,0,0
 156.21 1117.27 156.21 1117.27 219.87 1205.63 c 0,0,0
 282.86 1293.32 282.86 1293.32 404.385 1342.01 c 0,0,0
 525.91 1390.7 525.91 1390.7 678.27 1391.03 c 1,0,0
 702.6 1518.68 l 1,0,0
 813.92 1516 l 1,0,0
 786.92 1383.69 l 1,0,0
 946.94 1377.42 946.94 1377.42 1045.47 1299.74 c 0,0,0
 1144 1222.06 1144 1222.06 1161.29 1088.34 c 1,0,0
 934.94 1035.3 l 1,0,0
 900.66 1196.27 900.66 1196.27 752.55 1205.18 c 1,0,0
 679.28 823.14 l 1,0,0
 883.99 772.15 883.99 772.15 980.675 682.495 c 0,0,0
 1077.36 592.84 1077.36 592.84 1077.36 457.83 c 0,0,0
395.83 1009.96 m 0,0,0
 395.83 955.02 395.83 955.02 432.455 919.055 c 0,0,0
 469.08 883.09 469.08 883.09 571.28 850.46 c 1,0,0
 642.9 1209.18 l 1,0,0
 528.72 1207.53 528.72 1207.53 462.275 1153.21 c 0,0,0
 395.83 1098.89 395.83 1098.89 395.83 1009.96 c 0,0,0
835.41 413 m 0,0,0
 835.41 490.33 835.41 490.33 789.265 534.13 c 0,0,0
 743.12 577.93 743.12 577.93 637.56 605.87 c 1,0,0
 558.95 210.54 l 1,0,0
 688.47 213.18 688.47 213.18 761.94 266.305 c 0,0,0
 835.41 319.43 835.41 319.43 835.41 413 c 0,0,0
EndSplineSet
EndChar

StartChar: percent
Encoding: 37 37 8
Width: 1821
GlyphClass: 2
Flags: W
LayerCount: 2
Fore
SplineSet
545.67 1421 m 0,0,0
 687.42 1421 687.42 1421 762.795 1341.665 c 0,0,0
 838.17 1262.33 838.17 1262.33 838.17 1113 c 0,0,0
 838.17 1030.36 838.17 1030.36 815.47 936.98 c 0,0,0
 801.8 868.98 801.8 868.98 779.135 809.505 c 0,0,0
 756.47 750.03 756.47 750.03 724.48 703.05 c 0,0,0
 605.1 524 605.1 524 406.67 524 c 0,0,0
 270.61 524 270.61 524 196.915 607.505 c 0,0,0
 123.22 691.01 123.22 691.01 123.22 841 c 0,0,0
 123.22 948.81 123.22 948.81 154.81 1053.28 c 1,0,0
 242.44 1421 242.44 1421 545.67 1421 c 0,0,0
465.87 0 m 1,0,0
 279.43 0 l 1,0,0
 1398.43 1409 l 1,0,0
 1586.87 1409 l 1,0,0
 465.87 0 l 1,0,0
544.67 1284.19 m 0,0,0
 495.76 1284.19 495.76 1284.19 461.47 1263.91 c 0,0,0
 427.18 1243.63 427.18 1243.63 401.21 1201.75 c 0,0,0
 374.18 1160.43 374.18 1160.43 353.83 1090.905 c 0,0,0
 333.48 1021.38 333.48 1021.38 322.475 949.52 c 0,0,0
 311.47 877.66 311.47 877.66 311.47 827 c 0,0,0
 311.47 669.16 311.47 669.16 410.67 669.16 c 0,0,0
 485.62 669.16 485.62 669.16 533.92 724.77 c 0,0,0
 564.91 759.74 564.91 759.74 587.4 817.025 c 0,0,0
 609.89 874.31 609.89 874.31 623.89 947.31 c 1,0,0
 648.92 1053 648.92 1053 648.92 1131 c 0,0,0
 648.92 1284.19 648.92 1284.19 544.67 1284.19 c 0,0,0
1460.6 882.99 m 0,0,0
 1602.35 882.99 1602.35 882.99 1678.06 803.655 c 0,0,0
 1753.77 724.32 1753.77 724.32 1753.77 574.99 c 0,0,0
 1753.77 493.01 1753.77 493.01 1730.74 397.32 c 0,0,0
 1717.07 329.65 1717.07 329.65 1694.405 270.67 c 0,0,0
 1671.74 211.69 1671.74 211.69 1640.08 165.04 c 0,0,0
 1520.7 -14.01 1520.7 -14.01 1322.27 -14.01 c 0,0,0
 1186.21 -14.01 1186.21 -14.01 1112.515 69.495 c 0,0,0
 1038.82 153 1038.82 153 1038.82 302.99 c 0,0,0
 1038.82 410.8 1038.82 410.8 1070.41 515.27 c 1,0,0
 1158.04 882.99 1158.04 882.99 1460.6 882.99 c 0,0,0
1460.27 746.18 m 0,0,0
 1412.03 746.18 1412.03 746.18 1377.405 725.9 c 0,0,0
 1342.78 705.62 1342.78 705.62 1316.81 663.74 c 0,0,0
 1289.78 622.42 1289.78 622.42 1269.765 552.895 c 0,0,0
 1249.75 483.37 1249.75 483.37 1238.41 411.51 c 0,0,0
 1227.07 339.65 1227.07 339.65 1227.07 288.99 c 0,0,0
 1227.07 131.15 1227.07 131.15 1326.27 131.15 c 0,0,0
 1403.23 131.15 1403.23 131.15 1452.2 190.11 c 0,0,0
 1483.18 225.41 1483.18 225.41 1504.83 283.51 c 0,0,0
 1526.48 341.61 1526.48 341.61 1540.15 413.59 c 1,0,0
 1564.52 516.64 1564.52 516.64 1564.52 592.99 c 0,0,0
 1564.52 746.18 1564.52 746.18 1460.27 746.18 c 0,0,0
EndSplineSet
EndChar

StartChar: ampersand
Encoding: 38 38 9
Width: 1441
GlyphClass: 2
Flags: W
LayerCount: 2
Fore
SplineSet
1302.27 679.31 m 1,0,0
 1249.02 557.82 1249.02 557.82 1174.845 442.34 c 0,0,0
 1100.67 326.86 1100.67 326.86 1019.98 243.51 c 1,0,0
 1058.64 209.53 1058.64 209.53 1105.79 192.045 c 0,0,0
 1152.94 174.56 1152.94 174.56 1204.97 174.56 c 0,0,0
 1267.98 174.56 1267.98 174.56 1316.3 190.56 c 1,0,0
 1285.88 10 l 1,0,0
 1222.86 -12 1222.86 -12 1151.5 -12 c 0,0,0
 985.75 -12 985.75 -12 857.72 106.65 c 1,0,0
 822.72 79.64 822.72 79.64 789.74 59.98 c 0,0,0
 756.76 40.32 756.76 40.32 726.47 28 c 0,0,0
 671.83 5.34 671.83 5.34 604.15 -7.33 c 0,0,0
 536.47 -20 536.47 -20 456.08 -20 c 0,0,0
 259.04 -20 259.04 -20 151.38 77.82 c 0,0,0
 43.72 175.64 43.72 175.64 43.72 353.01 c 0,0,0
 43.72 456.67 43.72 456.67 88.745 539.69 c 0,0,0
 133.77 622.71 133.77 622.71 227.94 689.385 c 0,0,0
 322.11 756.06 322.11 756.06 470.71 809.35 c 1,0,0
 456.04 860.98 456.04 860.98 447.03 922.33 c 0,0,0
 438.02 983.68 438.02 983.68 438.02 1036.67 c 0,0,0
 438.02 1209 438.02 1209 550.54 1313 c 0,0,0
 663.06 1417 663.06 1417 856.45 1417 c 0,0,0
 1008.52 1417 1008.52 1417 1096.36 1348.015 c 0,0,0
 1184.2 1279.03 1184.2 1279.03 1184.2 1158.35 c 0,0,0
 1184.2 1059.1 1184.2 1059.1 1127.155 983.82 c 0,0,0
 1070.11 908.54 1070.11 908.54 943.19 841.62 c 0,0,0
 904.15 817.9 904.15 817.9 845.01 789.82 c 0,0,0
 785.87 761.74 785.87 761.74 706.3 729.31 c 1,0,0
 747.65 612.62 747.65 612.62 791.095 530.565 c 0,0,0
 834.54 448.51 834.54 448.51 893.48 368.6 c 1,0,0
 958.17 438.61 958.17 438.61 1016.175 530.6 c 0,0,0
 1074.18 622.59 1074.18 622.59 1133.42 753.07 c 1,0,0
 1302.27 679.31 l 1,0,0
642.25 1041 m 0,0,0
 642.25 961.67 642.25 961.67 661.92 885.11 c 1,0,0
 735.56 912.77 735.56 912.77 790.49 935.755 c 0,0,0
 845.42 958.74 845.42 958.74 879.33 980.02 c 0,0,0
 929.66 1012.02 929.66 1012.02 956.48 1051.345 c 0,0,0
 983.3 1090.67 983.3 1090.67 983.3 1143.98 c 0,0,0
 983.3 1199.6 983.3 1199.6 945.84 1231.385 c 0,0,0
 908.38 1263.17 908.38 1263.17 845.43 1263.17 c 0,0,0
 751.52 1263.17 751.52 1263.17 696.885 1204.045 c 0,0,0
 642.25 1144.92 642.25 1144.92 642.25 1041 c 0,0,0
479.47 150.53 m 0,0,0
 548.74 150.53 548.74 150.53 615.03 174.02 c 0,0,0
 681.32 197.51 681.32 197.51 734.24 236.79 c 1,0,0
 668.61 321.43 668.61 321.43 613 425.84 c 0,0,0
 557.39 530.25 557.39 530.25 517.41 645.52 c 1,0,0
 378.89 586.22 378.89 586.22 324.78 518.075 c 0,0,0
 270.67 449.93 270.67 449.93 270.67 358.02 c 0,0,0
 270.67 264.44 270.67 264.44 328.115 207.485 c 0,0,0
 385.56 150.53 385.56 150.53 479.47 150.53 c 0,0,0
EndSplineSet
EndChar

StartChar: quotesingle
Encoding: 39 39 10
Width: 455
GlyphClass: 2
Flags: W
LayerCount: 2
Fore
SplineSet
511.98 1409 m 1,0,0
 392.58 920.44 l 1,0,0
 199.32 920.44 l 1,0,0
 269.02 1409 l 1,0,0
 511.98 1409 l 1,0,0
EndSplineSet
EndChar

StartChar: parenleft
Encoding: 40 40 11
Width: 682
GlyphClass: 2
Flags: W
LayerCount: 2
Fore
SplineSet
867.73 1484 m 1,0,0
 325.91 981.03 325.91 981.03 325.91 274.06 c 0,0,0
 325.91 -121.64 325.91 -121.64 492.71 -424.67 c 1,0,0
 251.04 -424.67 l 1,0,0
 81.26 -116.27 81.26 -116.27 81.26 290.06 c 0,0,0
 81.26 656.03 81.26 656.03 219.2 960.35 c 0,0,0
 357.14 1264.67 357.14 1264.67 622.04 1484 c 1,0,0
 867.73 1484 l 1,0,0
EndSplineSet
EndChar

StartChar: parenright
Encoding: 41 41 12
Width: 682
GlyphClass: 2
Flags: W
LayerCount: 2
Fore
SplineSet
-186.27 -424.67 m 1,0,0
 356.22 87.01 356.22 87.01 356.22 805.37 c 0,0,0
 356.22 983.29 356.22 983.29 312.425 1161.32 c 0,0,0
 268.63 1339.35 268.63 1339.35 188.08 1484 c 1,0,0
 423.05 1484 l 1,0,0
 601.54 1172.25 601.54 1172.25 601.54 789.37 c 0,0,0
 601.54 415.36 601.54 415.36 462.26 105.68 c 0,0,0
 322.98 -204 322.98 -204 59.42 -424.67 c 1,0,0
 -186.27 -424.67 l 1,0,0
EndSplineSet
EndChar

StartChar: asterisk
Encoding: 42 42 13
Width: 797
GlyphClass: 2
Flags: W
LayerCount: 2
Fore
SplineSet
793.86 766.02 m 1,0,0
 631.31 661.19 l 1,0,0
 483.99 915.17 l 1,0,0
 332.68 661.85 l 1,0,0
 168.79 768.02 l 1,0,0
 358.46 991.23 l 1,0,0
 98.56 1056.19 l 1,0,0
 158.97 1232.4 l 1,0,0
 407.21 1127.41 l 1,0,0
 391.19 1409 l 1,0,0
 580.12 1409 l 1,0,0
 563.77 1128.07 l 1,0,0
 808.34 1231.74 l 1,0,0
 868.75 1056.19 l 1,0,0
 608.19 991.23 l 1,0,0
 793.86 766.02 l 1,0,0
EndSplineSet
EndChar

StartChar: plus
Encoding: 43 43 14
Width: 1196
GlyphClass: 2
Flags: W
LayerCount: 2
Fore
SplineSet
733.83 581.87 m 1,0,0
 733.83 167.27 l 1,0,0
 533.9 167.27 l 1,0,0
 533.9 581.87 l 1,0,0
 126.65 581.87 l 1,0,0
 126.65 780.13 l 1,0,0
 533.9 780.13 l 1,0,0
 533.9 1194.73 l 1,0,0
 733.83 1194.73 l 1,0,0
 733.83 780.13 l 1,0,0
 1143.09 780.13 l 1,0,0
 1143.09 581.87 l 1,0,0
 733.83 581.87 l 1,0,0
EndSplineSet
EndChar

StartChar: comma
Encoding: 44 44 15
Width: 569
GlyphClass: 2
Flags: W
LayerCount: 2
Fore
SplineSet
331.16 61.05 m 2,0,0
 309.81 -50.7 309.81 -50.7 270.11 -136.755 c 0,0,0
 230.41 -222.81 230.41 -222.81 163.35 -298.85 c 1,0,0
 -1.19 -298.85 l 1,0,0
 70.87 -224.15 70.87 -224.15 117.255 -146.76 c 0,0,0
 163.64 -69.37 163.64 -69.37 177.31 0 c 1,0,0
 61.84 0 l 1,0,0
 115.23 276.62 l 1,0,0
 373.21 276.62 l 1,0,0
 331.16 61.05 l 2,0,0
EndSplineSet
EndChar

StartChar: hyphen
Encoding: 45 45 16
Width: 682
GlyphClass: 2
Flags: W
LayerCount: 2
Fore
SplineSet
627.29 643.43 m 1,0,0
 585.57 427.15 l 1,0,0
 72.17 427.15 l 1,0,0
 113.89 643.43 l 1,0,0
 627.29 643.43 l 1,0,0
EndSplineSet
EndChar

StartChar: period
Encoding: 46 46 17
Width: 569
GlyphClass: 2
Flags: W
LayerCount: 2
Fore
SplineSet
368.92 276.62 m 1,0,0
 315.2 0 l 1,0,0
 57.22 0 l 1,0,0
 110.94 276.62 l 1,0,0
 368.92 276.62 l 1,0,0
EndSplineSet
EndChar

StartChar: slash
Encoding: 47 47 18
Width: 569
GlyphClass: 2
Flags: W
LayerCount: 2
Fore
SplineSet
747.68 1484 m 1,0,0
 126.07 -34.07 l 1,0,0
 -89.2 -34.07 l 1,0,0
 536.08 1484 l 1,0,0
 747.68 1484 l 1,0,0
EndSplineSet
EndChar

StartChar: zero
Encoding: 48 48 19
Width: 1139
GlyphClass: 2
Flags: W
LayerCount: 2
Fore
SplineSet
726.64 1430 m 0,0,0
 919.02 1430 919.02 1430 1019.505 1311.355 c 0,0,0
 1119.99 1192.71 1119.99 1192.71 1119.99 964 c 0,0,0
 1119.99 804.48 1119.99 804.48 1068.79 600.32 c 0,0,0
 994.81 291.31 994.81 291.31 846.785 135.655 c 0,0,0
 698.76 -20 698.76 -20 477.34 -20 c 0,0,0
 283.61 -20 283.61 -20 184.965 101.295 c 0,0,0
 86.32 222.59 86.32 222.59 86.32 457.63 c 0,0,0
 86.32 559.54 86.32 559.54 106.32 684.71 c 0,0,0
 126.32 809.88 126.32 809.88 164.32 932.085 c 0,0,0
 202.32 1054.29 202.32 1054.29 254.65 1146.97 c 0,0,0
 333.98 1286.32 333.98 1286.32 450.31 1358.16 c 0,0,0
 566.64 1430 566.64 1430 726.64 1430 c 0,0,0
495.02 176.58 m 0,0,0
 623.91 176.58 623.91 176.58 702.49 283.92 c 0,0,0
 733.79 326.59 733.79 326.59 760.93 394.775 c 0,0,0
 788.07 462.96 788.07 462.96 809.885 543.47 c 0,0,0
 831.7 623.98 831.7 623.98 847.355 705.63 c 0,0,0
 863.01 787.28 863.01 787.28 871.17 858.05 c 0,0,0
 879.33 928.82 879.33 928.82 879.33 975.68 c 0,0,0
 879.33 1104.55 879.33 1104.55 834.235 1169.485 c 0,0,0
 789.14 1234.42 789.14 1234.42 702.58 1234.42 c 0,0,0
 619.88 1234.42 619.88 1234.42 564.075 1194.185 c 0,0,0
 508.27 1153.95 508.27 1153.95 467.3 1066.78 c 0,0,0
 438.73 1014.45 438.73 1014.45 413.63 929.96 c 0,0,0
 388.53 845.47 388.53 845.47 368.905 750.68 c 0,0,0
 349.28 655.89 349.28 655.89 338.13 568.655 c 0,0,0
 326.98 481.42 326.98 481.42 326.98 422.59 c 0,0,0
 326.98 299.75 326.98 299.75 369.73 238.165 c 0,0,0
 412.48 176.58 412.48 176.58 495.02 176.58 c 0,0,0
EndSplineSet
EndChar

StartChar: one
Encoding: 49 49 20
Width: 1139
GlyphClass: 2
Flags: W
LayerCount: 2
Fore
SplineSet
1008.21 205.26 m 1,0,0
 968.83 0 l 1,0,0
 39.6 0 l 1,0,0
 78.31 205.26 l 1,0,0
 430.61 205.26 l 1,0,0
 619.18 1175.43 l 1,0,0
 244.78 958.46 l 1,0,0
 287.82 1180 l 1,0,0
 677.55 1409 l 1,0,0
 913.23 1409 l 1,0,0
 678.61 205.26 l 1,0,0
 1008.21 205.26 l 1,0,0
EndSplineSet
EndChar

StartChar: two
Encoding: 50 50 21
Width: 1139
GlyphClass: 2
Flags: W
LayerCount: 2
Fore
SplineSet
981.16 205.26 m 1,0,0
 942.11 0 l 1,0,0
 -25.4 0 l 1,0,0
 7.31 172.56 l 1,0,0
 42.21 232.06 42.21 232.06 83.41 282.28 c 0,0,0
 124.61 332.5 124.61 332.5 170.47 375.75 c 0,0,0
 215.78 421.11 215.78 421.11 262.595 460.97 c 0,0,0
 309.41 500.83 309.41 500.83 373.815 547.905 c 0,0,0
 438.22 594.98 438.22 594.98 534.46 661.16 c 0,0,0
 607.47 710.85 607.47 710.85 661.93 752.165 c 0,0,0
 716.39 793.48 716.39 793.48 749.99 828.4 c 0,0,0
 801.68 881.41 801.68 881.41 830.355 938.895 c 0,0,0
 859.03 996.38 859.03 996.38 859.03 1063 c 0,0,0
 859.03 1142.91 859.03 1142.91 811.27 1186.995 c 0,0,0
 763.51 1231.08 763.51 1231.08 674.26 1231.08 c 0,0,0
 579.33 1231.08 579.33 1231.08 516.42 1181.965 c 0,0,0
 453.51 1132.85 453.51 1132.85 423.21 1029.26 c 1,0,0
 188.89 1081 l 1,0,0
 242.22 1257.03 242.22 1257.03 368.9 1343.515 c 0,0,0
 495.58 1430 495.58 1430 691.29 1430 c 0,0,0
 825.35 1430 825.35 1430 920.03 1389.185 c 0,0,0
 1014.71 1348.37 1014.71 1348.37 1064.87 1270.545 c 0,0,0
 1115.03 1192.72 1115.03 1192.72 1115.03 1081.35 c 0,0,0
 1115.03 982.38 1115.03 982.38 1070.06 891.75 c 0,0,0
 1040.08 831.77 1040.08 831.77 991.615 775.79 c 0,0,0
 943.15 719.81 943.15 719.81 861.355 655.49 c 0,0,0
 779.56 591.17 779.56 591.17 649.6 505.51 c 0,0,0
 512.65 414.52 512.65 414.52 430.19 343.88 c 0,0,0
 347.73 273.24 347.73 273.24 303.07 205.26 c 1,0,0
 981.16 205.26 l 1,0,0
EndSplineSet
EndChar

StartChar: three
Encoding: 51 51 22
Width: 1139
GlyphClass: 2
Flags: W
LayerCount: 2
Fore
SplineSet
545.23 817.78 m 2,0,0
 705.45 817.78 705.45 817.78 784.56 880.73 c 0,0,0
 863.67 943.68 863.67 943.68 863.67 1060.9 c 0,0,0
 863.67 1139.83 863.67 1139.83 817.91 1185.455 c 0,0,0
 772.15 1231.08 772.15 1231.08 685.22 1231.08 c 0,0,0
 583.64 1231.08 583.64 1231.08 515.895 1180.13 c 0,0,0
 448.15 1129.18 448.15 1129.18 419.51 1030.91 c 1,0,0
 181.88 1070.37 l 1,0,0
 235.19 1251.01 235.19 1251.01 365.675 1340.505 c 0,0,0
 496.16 1430 496.16 1430 695.89 1430 c 0,0,0
 893.61 1430 893.61 1430 1005.63 1338.67 c 0,0,0
 1117.65 1247.34 1117.65 1247.34 1117.65 1086 c 0,0,0
 1117.65 930.99 1117.65 930.99 1020.815 835.495 c 0,0,0
 923.98 740 923.98 740 754.34 722.36 c 1,0,0
 753.34 718.36 l 1,0,0
 887.02 695.71 887.02 695.71 958.345 617.21 c 0,0,0
 1029.67 538.71 1029.67 538.71 1029.67 414.37 c 0,0,0
 1029.67 290.37 1029.67 290.37 966.32 190.36 c 0,0,0
 902.64 90.01 902.64 90.01 785.795 35.005 c 0,0,0
 668.95 -20 668.95 -20 515.95 -20 c 0,0,0
 382.25 -20 382.25 -20 281.24 17.97 c 0,0,0
 58.8 102.27 58.8 102.27 26.56 341.35 c 1,0,0
 269.62 382.65 l 1,0,0
 286.89 284.07 286.89 284.07 350.77 232.33 c 0,0,0
 414.65 180.59 414.65 180.59 529.61 180.59 c 0,0,0
 645.82 180.59 645.82 180.59 711.25 242.695 c 0,0,0
 776.68 304.8 776.68 304.8 776.68 412.04 c 0,0,0
 776.68 511.31 776.68 511.31 715.08 562.76 c 0,0,0
 653.48 614.21 653.48 614.21 537.21 614.21 c 2,0,0
 424.6 614.21 l 1,0,0
 463.98 817.78 l 1,0,0
 545.23 817.78 l 2,0,0
EndSplineSet
EndChar

StartChar: four
Encoding: 52 52 23
Width: 1139
GlyphClass: 2
Flags: W
LayerCount: 2
Fore
SplineSet
864.76 296.89 m 1,0,0
 808.12 0 l 1,0,0
 569.16 0 l 1,0,0
 625.8 296.89 l 1,0,0
 -18.49 296.89 l 1,0,0
 17.89 481.78 l 1,0,0
 768.55 1409 l 1,0,0
 1082.12 1409 l 1,0,0
 902.14 484.45 l 1,0,0
 1090.14 484.45 l 1,0,0
 1052.76 296.89 l 1,0,0
 864.76 296.89 l 1,0,0
808.58 1189.83 m 1,0,0
 783.93 1152.48 783.93 1152.48 754.595 1113.115 c 0,0,0
 725.26 1073.75 725.26 1073.75 692.24 1031.71 c 2,0,0
 248.44 484.45 l 1,0,0
 663.18 484.45 l 1,0,0
 765.84 1015.71 l 2,0,0
 774.51 1058.4 774.51 1058.4 785.03 1101.93 c 0,0,0
 795.55 1145.46 795.55 1145.46 808.58 1189.83 c 1,0,0
EndSplineSet
EndChar

StartChar: five
Encoding: 53 53 24
Width: 1139
GlyphClass: 2
Flags: W
LayerCount: 2
Fore
SplineSet
985.42 221.47 m 0,0,0
 916.41 105.07 916.41 105.07 788.86 42.535 c 0,0,0
 661.31 -20 661.31 -20 492.27 -20 c 0,0,0
 297.89 -20 297.89 -20 179.875 66.52 c 0,0,0
 61.86 153.04 61.86 153.04 28.58 322.4 c 1,0,0
 271.98 366.74 l 1,0,0
 294.27 266.81 294.27 266.81 352.165 223.37 c 0,0,0
 410.06 179.93 410.06 179.93 511.65 179.93 c 0,0,0
 650.18 179.93 650.18 179.93 727.785 262.04 c 0,0,0
 805.39 344.15 805.39 344.15 805.39 486 c 0,0,0
 805.39 596.61 805.39 596.61 749.455 659.23 c 0,0,0
 693.52 721.85 693.52 721.85 594.94 721.85 c 0,0,0
 458.74 721.85 458.74 721.85 366.54 627.55 c 1,0,0
 124.88 627.55 l 1,0,0
 324.91 1409 l 1,0,0
 1156.73 1409 l 1,0,0
 1118.35 1203.74 l 1,0,0
 510.16 1203.74 l 1,0,0
 414.25 832.45 l 1,0,0
 458.89 871.77 458.89 871.77 525.53 897.11 c 0,0,0
 592.17 922.45 592.17 922.45 676.51 922.45 c 0,0,0
 849.12 922.45 849.12 922.45 954.415 811.595 c 0,0,0
 1059.71 700.74 1059.71 700.74 1059.71 514.04 c 0,0,0
 1059.71 344.78 1059.71 344.78 985.42 221.47 c 0,0,0
EndSplineSet
EndChar

StartChar: six
Encoding: 54 54 25
Width: 1139
GlyphClass: 2
Flags: W
LayerCount: 2
Fore
SplineSet
533.33 -20 m 0,0,0
 397.29 -20 397.29 -20 300.445 40.33 c 0,0,0
 203.6 100.66 203.6 100.66 152.6 212.675 c 0,0,0
 101.6 324.69 101.6 324.69 101.6 479.41 c 0,0,0
 101.6 740.17 101.6 740.17 185.6 963.11 c 0,0,0
 268.6 1187.05 268.6 1187.05 416.615 1308.525 c 0,0,0
 564.63 1430 564.63 1430 750.28 1430 c 0,0,0
 920.38 1430 920.38 1430 1021.57 1350.46 c 0,0,0
 1122.76 1270.92 1122.76 1270.92 1146.37 1120.85 c 1,0,0
 913.37 1081.5 l 1,0,0
 895.74 1157.14 895.74 1157.14 852.14 1195.11 c 0,0,0
 808.54 1233.08 808.54 1233.08 737.59 1233.08 c 0,0,0
 606.42 1233.08 606.42 1233.08 511.52 1107.85 c 0,0,0
 416.62 982.62 416.62 982.62 373.33 739.4 c 1,0,0
 428.64 817.34 428.64 817.34 513.44 862.83 c 0,0,0
 598.24 908.32 598.24 908.32 704.54 908.32 c 0,0,0
 816.19 908.32 816.19 908.32 897.5 862.33 c 0,0,0
 978.81 816.34 978.81 816.34 1023.29 732.01 c 0,0,0
 1067.77 647.68 1067.77 647.68 1067.77 533 c 0,0,0
 1067.77 381 1067.77 381 999.09 253.67 c 0,0,0
 930.08 125.34 930.08 125.34 807.89 52.67 c 0,0,0
 685.7 -20 685.7 -20 533.33 -20 c 0,0,0
342.27 426.36 m 0,0,0
 342.27 312.78 342.27 312.78 397.54 244.015 c 0,0,0
 452.81 175.25 452.81 175.25 551.4 175.25 c 0,0,0
 630.33 175.25 630.33 175.25 689.595 217.035 c 0,0,0
 748.86 258.82 748.86 258.82 781.815 333.745 c 0,0,0
 814.77 408.67 814.77 408.67 814.77 506.59 c 0,0,0
 814.77 609.53 814.77 609.53 763.31 666.645 c 0,0,0
 711.85 723.76 711.85 723.76 619.28 723.76 c 0,0,0
 543.03 723.76 543.03 723.76 479.77 687.12 c 0,0,0
 415.51 650.15 415.51 650.15 378.89 582.87 c 0,0,0
 342.27 515.59 342.27 515.59 342.27 426.36 c 0,0,0
EndSplineSet
EndChar

StartChar: seven
Encoding: 55 55 26
Width: 1139
GlyphClass: 2
Flags: W
LayerCount: 2
Fore
SplineSet
459.79 0 m 1,0,0
 198.09 0 l 1,0,0
 228.14 155.6 228.14 155.6 284.43 290.455 c 0,0,0
 340.72 425.31 340.72 425.31 417.56 549.47 c 0,0,0
 462.91 626.73 462.91 626.73 513.755 701.165 c 0,0,0
 564.6 775.6 564.6 775.6 625.73 853.165 c 0,0,0
 686.86 930.73 686.86 930.73 760.57 1016.885 c 0,0,0
 834.28 1103.04 834.28 1103.04 923.69 1203.74 c 1,0,0
 165.77 1203.74 l 1,0,0
 205.49 1409 l 1,0,0
 1213.39 1409 l 1,0,0
 1174.67 1211.41 l 1,0,0
 1110.24 1135.35 1110.24 1135.35 1057.86 1072.5 c 0,0,0
 1005.48 1009.65 1005.48 1009.65 964.49 958.67 c 0,0,0
 923.5 909.03 923.5 909.03 886.84 861.56 c 0,0,0
 850.18 814.09 850.18 814.09 816.85 768.79 c 0,0,0
 776.82 714.11 776.82 714.11 741.295 660.94 c 0,0,0
 705.77 607.77 705.77 607.77 675.75 556.78 c 0,0,0
 591.26 417.95 591.26 417.95 540.705 284.03 c 0,0,0
 490.15 150.11 490.15 150.11 459.79 0 c 1,0,0
EndSplineSet
EndChar

StartChar: eight
Encoding: 56 56 27
Width: 1139
GlyphClass: 2
Flags: W
LayerCount: 2
Fore
SplineSet
706.01 1429 m 0,0,0
 902.37 1429 902.37 1429 1017.7 1337.5 c 0,0,0
 1133.03 1246 1133.03 1246 1133.03 1091 c 0,0,0
 1133.03 951 1133.03 951 1047.2 855.68 c 0,0,0
 961.37 760.36 961.37 760.36 815.71 739.7 c 1,0,0
 814.71 735.7 l 1,0,0
 925.38 702.7 925.38 702.7 984.55 623.02 c 0,0,0
 1043.72 543.34 1043.72 543.34 1043.72 432 c 0,0,0
 1043.72 224 1043.72 224 897.365 102 c 0,0,0
 751.01 -20 751.01 -20 495.31 -20 c 0,0,0
 276.28 -20 276.28 -20 156.095 80.665 c 0,0,0
 35.91 181.33 35.91 181.33 35.91 360 c 0,0,0
 35.91 507.99 35.91 507.99 129.255 607.805 c 0,0,0
 222.6 707.62 222.6 707.62 394.25 743.27 c 1,0,0
 394.25 747.27 l 1,0,0
 302.58 787.28 302.58 787.28 254.255 866.13 c 0,0,0
 205.93 944.98 205.93 944.98 205.93 1052 c 0,0,0
 205.93 1229 205.93 1229 340.62 1329 c 0,0,0
 475.31 1429 475.31 1429 706.01 1429 c 0,0,0
651.3 830.43 m 0,0,0
 758.5 830.43 758.5 830.43 819.6 893.89 c 0,0,0
 880.7 957.35 880.7 957.35 880.7 1071.59 c 0,0,0
 880.7 1160.21 880.7 1160.21 830.275 1206.335 c 0,0,0
 779.85 1252.46 779.85 1252.46 680.32 1252.46 c 0,0,0
 572.78 1252.46 572.78 1252.46 511.85 1193.165 c 0,0,0
 450.92 1133.87 450.92 1133.87 450.92 1024.29 c 0,0,0
 450.92 932.01 450.92 932.01 503.675 881.22 c 0,0,0
 556.43 830.43 556.43 830.43 651.3 830.43 c 0,0,0
562.65 650.56 m 0,0,0
 433.45 650.56 433.45 650.56 362.355 575.6 c 0,0,0
 291.26 500.64 291.26 500.64 291.26 370.07 c 0,0,0
 291.26 269.46 291.26 269.46 351.525 213.665 c 0,0,0
 411.79 157.87 411.79 157.87 519.67 157.87 c 0,0,0
 640.87 157.87 640.87 157.87 715.285 234.49 c 0,0,0
 789.7 311.11 789.7 311.11 789.7 441.36 c 0,0,0
 789.7 541.64 789.7 541.64 728.945 596.1 c 0,0,0
 668.19 650.56 668.19 650.56 562.65 650.56 c 0,0,0
EndSplineSet
EndChar

StartChar: nine
Encoding: 57 57 28
Width: 1139
GlyphClass: 2
Flags: W
LayerCount: 2
Fore
SplineSet
843.73 663.23 m 1,0,0
 778.07 578.31 778.07 578.31 700.605 537.025 c 0,0,0
 623.14 495.74 623.14 495.74 519.47 495.74 c 0,0,0
 411.19 495.74 411.19 495.74 327.55 544.39 c 0,0,0
 244.92 592.71 244.92 592.71 198.6 682.7 c 0,0,0
 152.28 772.69 152.28 772.69 152.28 889.04 c 0,0,0
 152.28 1039.03 152.28 1039.03 221.63 1164.69 c 0,0,0
 290.98 1290.02 290.98 1290.02 414.5 1360.01 c 0,0,0
 538.02 1430 538.02 1430 688.7 1430 c 0,0,0
 821.71 1430 821.71 1430 917.895 1372.165 c 0,0,0
 1014.08 1314.33 1014.08 1314.33 1066.595 1207.995 c 0,0,0
 1119.11 1101.66 1119.11 1101.66 1119.11 957 c 0,0,0
 1119.11 846.63 1119.11 846.63 1098.76 725.58 c 0,0,0
 1078.41 604.53 1078.41 604.53 1040.71 490.815 c 0,0,0
 1003.01 377.1 1003.01 377.1 950.29 287.07 c 0,0,0
 891.65 185.19 891.65 185.19 818.01 117.58 c 0,0,0
 743.37 47.97 743.37 47.97 655.73 13.985 c 0,0,0
 568.09 -20 568.09 -20 470.42 -20 c 0,0,0
 297.66 -20 297.66 -20 191.775 60.39 c 0,0,0
 85.89 140.78 85.89 140.78 55.26 293.18 c 1,0,0
 290.98 340.19 l 1,0,0
 308.28 259.21 308.28 259.21 357.565 217.9 c 0,0,0
 406.85 176.59 406.85 176.59 485.79 176.59 c 0,0,0
 615.65 176.59 615.65 176.59 706.045 299.65 c 0,0,0
 796.44 422.71 796.44 422.71 843.73 663.23 c 1,0,0
878.1 1011.64 m 0,0,0
 878.1 1109.86 878.1 1109.86 821.83 1172.14 c 0,0,0
 765.56 1234.42 765.56 1234.42 678 1234.42 c 0,0,0
 552.78 1234.42 552.78 1234.42 478.2 1142.5 c 0,0,0
 403.62 1050.58 403.62 1050.58 403.62 893.07 c 0,0,0
 403.62 795.86 403.62 795.86 456.57 738.575 c 0,0,0
 509.52 681.29 509.52 681.29 600.77 681.29 c 0,0,0
 689.07 681.29 689.07 681.29 756.33 728.94 c 0,0,0
 878.1 816.19 878.1 816.19 878.1 1011.64 c 0,0,0
EndSplineSet
EndChar

StartChar: colon
Encoding: 58 58 29
Width: 644
GlyphClass: 2
Flags: W
LayerCount: 2
Fore
SplineSet
547.97 1049.84 m 1,0,0
 497.59 792.59 l 1,0,0
 240.28 792.59 l 1,0,0
 290.66 1049.84 l 1,0,0
 547.97 1049.84 l 1,0,0
394.05 256.58 m 1,0,0
 343.67 0 l 1,0,0
 86.36 0 l 1,0,0
 136.74 256.58 l 1,0,0
 394.05 256.58 l 1,0,0
EndSplineSet
EndChar

StartChar: semicolon
Encoding: 59 59 30
Width: 644
GlyphClass: 2
Flags: W
LayerCount: 2
Fore
SplineSet
552.26 1049.84 m 1,0,0
 502.21 792.59 l 1,0,0
 244.9 792.59 l 1,0,0
 294.95 1049.84 l 1,0,0
 552.26 1049.84 l 1,0,0
360.3 61.05 m 2,0,0
 338.95 -50.7 338.95 -50.7 299.585 -136.42 c 0,0,0
 260.22 -222.14 260.22 -222.14 191.82 -298.85 c 1,0,0
 27.95 -298.85 l 1,0,0
 100.01 -224.15 100.01 -224.15 146.395 -146.76 c 0,0,0
 192.78 -69.37 192.78 -69.37 206.45 0 c 1,0,0
 90.98 0 l 1,0,0
 141.03 256.58 l 1,0,0
 398.34 256.58 l 1,0,0
 360.3 61.05 l 2,0,0
EndSplineSet
EndChar

StartChar: less
Encoding: 60 60 31
Width: 1196
GlyphClass: 2
Flags: W
LayerCount: 2
Fore
SplineSet
1142.75 337.15 m 1,0,0
 1142.75 134.57 l 1,0,0
 126.31 534.15 l 1,0,0
 126.31 817.54 l 1,0,0
 1142.75 1217.45 l 1,0,0
 1142.75 1013.87 l 1,0,0
 301.5 675.34 l 1,0,0
 1142.75 337.15 l 1,0,0
EndSplineSet
EndChar

StartChar: equal
Encoding: 61 61 32
Width: 1196
GlyphClass: 2
Flags: W
LayerCount: 2
Fore
SplineSet
1141.75 1044.87 m 1,0,0
 1141.75 846.62 l 1,0,0
 125.31 846.62 l 1,0,0
 125.31 1044.87 l 1,0,0
 1141.75 1044.87 l 1,0,0
1141.75 505.4 m 1,0,0
 1141.75 308.49 l 1,0,0
 125.31 308.49 l 1,0,0
 125.31 505.4 l 1,0,0
 1141.75 505.4 l 1,0,0
EndSplineSet
EndChar

StartChar: greater
Encoding: 62 62 33
Width: 1196
GlyphClass: 2
Flags: W
LayerCount: 2
Fore
SplineSet
1142.75 534.15 m 1,0,0
 126.31 134.57 l 1,0,0
 126.31 337.15 l 1,0,0
 966.89 675.34 l 1,0,0
 126.31 1013.87 l 1,0,0
 126.31 1217.45 l 1,0,0
 1142.75 817.54 l 1,0,0
 1142.75 534.15 l 1,0,0
EndSplineSet
EndChar

StartChar: question
Encoding: 63 63 34
Width: 1214
GlyphClass: 2
Flags: W
LayerCount: 2
Fore
SplineSet
730.48 1430 m 0,0,0
 869.85 1430 869.85 1430 971.54 1386.51 c 0,0,0
 1073.23 1343.02 1073.23 1343.02 1128.575 1263.525 c 0,0,0
 1183.92 1184.03 1183.92 1184.03 1183.92 1074.34 c 0,0,0
 1183.92 1012.18 1183.92 1012.18 1167.825 962.44 c 0,0,0
 1151.73 912.7 1151.73 912.7 1123.16 872.75 c 0,0,0
 1095.85 830.04 1095.85 830.04 1058.355 792.825 c 0,0,0
 1020.86 755.61 1020.86 755.61 964.95 717.705 c 0,0,0
 909.04 679.8 909.04 679.8 825.49 633.02 c 0,0,0
 778.57 604.72 778.57 604.72 746.955 581.425 c 0,0,0
 715.34 558.13 715.34 558.13 696.72 538.85 c 0,0,0
 668.72 510.86 668.72 510.86 652.21 480.19 c 0,0,0
 635.7 449.52 635.7 449.52 629.37 409.83 c 1,0,0
 392.73 409.83 l 1,0,0
 406.73 487.82 406.73 487.82 438.72 546.48 c 0,0,0
 460.71 585.14 460.71 585.14 488.37 617.64 c 0,0,0
 516.03 650.14 516.03 650.14 564.18 686.47 c 0,0,0
 612.33 722.8 612.33 722.8 693.96 771.46 c 0,0,0
 757.68 810.17 757.68 810.17 800.705 840.695 c 0,0,0
 843.73 871.22 843.73 871.22 869.41 898.92 c 0,0,0
 902.68 932.55 902.68 932.55 917.64 969.82 c 0,0,0
 932.6 1007.09 932.6 1007.09 932.6 1054.01 c 0,0,0
 932.6 1128.56 932.6 1128.56 876.35 1176.165 c 0,0,0
 820.1 1223.77 820.1 1223.77 714.15 1223.77 c 0,0,0
 592.24 1223.77 592.24 1223.77 515.31 1168.51 c 0,0,0
 438.38 1113.25 438.38 1113.25 408.42 1008 c 1,0,0
 175.75 1048 l 1,0,0
 236.07 1240.32 236.07 1240.32 374.915 1335.16 c 0,0,0
 513.76 1430 513.76 1430 730.48 1430 c 0,0,0
611.39 247.23 m 1,0,0
 563.68 0 l 1,0,0
 305.7 0 l 1,0,0
 353.41 247.23 l 1,0,0
 611.39 247.23 l 1,0,0
EndSplineSet
EndChar

StartChar: at
Encoding: 64 64 35
Width: 2024
GlyphClass: 2
Flags: W
LayerCount: 2
Fore
SplineSet
1918.92 755 m 0,0,0
 1918.92 571.68 1918.92 571.68 1857.9 421.68 c 0,0,0
 1795.88 271.35 1795.88 271.35 1687.015 187.675 c 0,0,0
 1578.15 104 1578.15 104 1449.14 104 c 0,0,0
 1354.17 104 1354.17 104 1303.515 149.5 c 0,0,0
 1252.86 195 1252.86 195 1252.86 277.32 c 0,0,0
 1253.19 295.66 1253.19 295.66 1254.36 312.655 c 0,0,0
 1255.53 329.65 1255.53 329.65 1257.87 345.31 c 1,0,0
 1251.87 345.31 l 1,0,0
 1196.59 234.37 1196.59 234.37 1098.42 169.185 c 0,0,0
 1000.25 104 1000.25 104 893.95 104 c 0,0,0
 736.95 104 736.95 104 650.45 205.665 c 0,0,0
 563.95 307.33 563.95 307.33 563.95 489 c 0,0,0
 563.95 651.33 563.95 651.33 628.95 794.67 c 0,0,0
 693.95 937.01 693.95 937.01 808.445 1019.005 c 0,0,0
 922.94 1101 922.94 1101 1064.61 1101 c 0,0,0
 1267.2 1101 1267.2 1101 1340.82 924.36 c 1,0,0
 1346.82 924.36 l 1,0,0
 1385.82 1079 l 1,0,0
 1541.82 1079 l 1,0,0
 1425.15 573 l 2,0,0
 1388.15 405.97 1388.15 405.97 1388.15 328.71 c 0,0,0
 1388.15 279.7 1388.15 279.7 1410.66 257.875 c 0,0,0
 1433.17 236.05 1433.17 236.05 1467.14 236.05 c 0,0,0
 1547.47 236.05 1547.47 236.05 1618.49 305.72 c 0,0,0
 1689.84 374.72 1689.84 374.72 1731.02 492.705 c 0,0,0
 1772.2 610.69 1772.2 610.69 1772.2 753 c 0,0,0
 1772.2 929.66 1772.2 929.66 1695.87 1065.64 c 0,0,0
 1619.54 1200.96 1619.54 1200.96 1474.875 1274.455 c 0,0,0
 1330.21 1347.95 1330.21 1347.95 1138.22 1347.95 c 0,0,0
 897.89 1347.95 897.89 1347.95 713.57 1242.29 c 0,0,0
 529.58 1136.63 529.58 1136.63 424.585 937.475 c 0,0,0
 319.59 738.32 319.59 738.32 319.59 491 c 0,0,0
 319.59 297 319.59 297 399.26 149.66 c 0,0,0
 478.6 1.66 478.6 1.66 623.75 -74.995 c 0,0,0
 768.9 -151.65 768.9 -151.65 964.22 -151.65 c 0,0,0
 1264.15 -151.65 1264.15 -151.65 1557.84 5.66 c 1,0,0
 1617.53 -113.04 l 1,0,0
 1457.12 -205.4 1457.12 -205.4 1293.65 -247.885 c 0,0,0
 1130.18 -290.37 1130.18 -290.37 959.53 -290.37 c 0,0,0
 722.21 -290.37 722.21 -290.37 543.21 -194.7 c 0,0,0
 363.21 -99.7 363.21 -99.7 263.865 79.645 c 0,0,0
 164.52 258.99 164.52 258.99 164.52 491 c 0,0,0
 164.52 772.68 164.52 772.68 290.86 1002.01 c 0,0,0
 416.53 1231.01 416.53 1231.01 638.705 1357.505 c 0,0,0
 860.88 1484 860.88 1484 1136.22 1484 c 0,0,0
 1378.56 1484 1378.56 1484 1555.57 1394 c 0,0,0
 1732.58 1303 1732.58 1303 1825.75 1138 c 0,0,0
 1918.92 973 1918.92 973 1918.92 755 c 0,0,0
1285.45 749.68 m 0,0,0
 1285.45 846.99 1285.45 846.99 1223.805 907.815 c 0,0,0
 1162.16 968.64 1162.16 968.64 1062.88 968.64 c 0,0,0
 966.57 968.64 966.57 968.64 891.25 906.31 c 0,0,0
 814.93 842.98 814.93 842.98 772.275 728.645 c 0,0,0
 729.62 614.31 729.62 614.31 729.62 491 c 0,0,0
 729.62 375.02 729.62 375.02 777.79 308.36 c 0,0,0
 825.96 241.7 825.96 241.7 925.63 241.7 c 0,0,0
 996.25 241.7 996.25 241.7 1062.215 284.695 c 0,0,0
 1128.18 327.69 1128.18 327.69 1179.16 406.36 c 0,0,0
 1213.48 459.03 1213.48 459.03 1236.97 522.705 c 0,0,0
 1260.46 586.38 1260.46 586.38 1272.955 646.71 c 0,0,0
 1285.45 707.04 1285.45 707.04 1285.45 749.68 c 0,0,0
EndSplineSet
EndChar

StartChar: A
Encoding: 65 65 36
Width: 1441
GlyphClass: 2
Flags: W
LayerCount: 2
Fore
SplineSet
414 377.16 m 1,0,0
 204.15 0 l 1,0,0
 -61.47 0 l 1,0,0
 745.66 1409 l 1,0,0
 1050.43 1409 l 1,0,0
 1306.25 0 l 1,0,0
 1046.26 0 l 1,0,0
 984.66 377.16 l 1,0,0
 414 377.16 l 1,0,0
860.82 1216.09 m 1,0,0
 851.81 1190.36 851.81 1190.36 832.09 1149.24 c 0,0,0
 812.37 1108.12 812.37 1108.12 782.95 1051.28 c 2,0,0
 521.45 575.07 l 1,0,0
 960.01 575.07 l 1,0,0
 881.46 1060.4 l 2,0,0
 873.12 1118.5 873.12 1118.5 868.125 1157.505 c 0,0,0
 863.13 1196.51 863.13 1196.51 860.82 1216.09 c 1,0,0
EndSplineSet
EndChar

StartChar: B
Encoding: 66 66 37
Width: 1441
GlyphClass: 2
Flags: W
LayerCount: 2
Fore
SplineSet
1328.07 433.64 m 0,0,0
 1328.07 221.98 1328.07 221.98 1171.735 110.99 c 0,0,0
 1015.4 0 1015.4 0 713.61 0 c 2,0,0
 44.91 0 l 1,0,0
 318.58 1409 l 1,0,0
 878.16 1409 l 2,0,0
 1115.3 1409 1115.3 1409 1241.495 1325.18 c 0,0,0
 1367.69 1241.36 1367.69 1241.36 1367.69 1084.32 c 0,0,0
 1367.69 804.01 1367.69 804.01 1038.74 739.65 c 1,0,0
 1175.4 716.65 1175.4 716.65 1251.735 634.48 c 0,0,0
 1328.07 552.31 1328.07 552.31 1328.07 433.64 c 0,0,0
466.61 830.77 m 1,0,0
 772.82 830.77 l 2,0,0
 948.81 830.77 948.81 830.77 1027.26 882.875 c 0,0,0
 1105.71 934.98 1105.71 934.98 1105.71 1047.9 c 0,0,0
 1105.71 1132.52 1105.71 1132.52 1045.41 1172.15 c 0,0,0
 985.11 1211.78 985.11 1211.78 851.11 1211.78 c 2,0,0
 540.21 1211.78 l 1,0,0
 466.61 830.77 l 1,0,0
343.3 197.22 m 1,0,0
 684.5 197.22 l 2,0,0
 893.83 197.22 893.83 197.22 980.275 255.31 c 0,0,0
 1066.72 313.4 1066.72 313.4 1066.72 438.65 c 0,0,0
 1066.72 534.26 1066.72 534.26 994.925 584.9 c 0,0,0
 923.13 635.54 923.13 635.54 770.78 635.54 c 2,0,0
 428.9 635.54 l 1,0,0
 343.3 197.22 l 1,0,0
EndSplineSet
EndChar

StartChar: C
Encoding: 67 67 38
Width: 1479
GlyphClass: 2
Flags: W
LayerCount: 2
Fore
SplineSet
1170.78 454.81 m 1,0,0
 1370.06 347.05 l 1,0,0
 1258.13 160.39 1258.13 160.39 1093.775 70.195 c 0,0,0
 929.42 -20 929.42 -20 707.37 -20 c 0,0,0
 519.67 -20 519.67 -20 383.32 52.33 c 0,0,0
 246.3 124.33 246.3 124.33 175.295 257.995 c 0,0,0
 104.29 391.66 104.29 391.66 104.29 569 c 0,0,0
 104.29 819.02 104.29 819.02 209.29 1018.02 c 0,0,0
 314.29 1216.35 314.29 1216.35 502.13 1323.175 c 0,0,0
 689.97 1430 689.97 1430 926.67 1430 c 0,0,0
 1152.38 1430 1152.38 1430 1300.54 1334.14 c 0,0,0
 1448.7 1238.28 1448.7 1238.28 1498.71 1053.51 c 1,0,0
 1255.73 987.79 l 1,0,0
 1224.42 1096.44 1224.42 1096.44 1135.325 1159.76 c 0,0,0
 1046.23 1223.08 1046.23 1223.08 917.34 1223.08 c 0,0,0
 714.25 1223.08 714.25 1223.08 579.27 1106.27 c 0,0,0
 477.46 1022.96 477.46 1022.96 422.895 885.745 c 0,0,0
 368.33 748.53 368.33 748.53 368.33 570.69 c 0,0,0
 368.33 388.78 368.33 388.78 461.585 287.35 c 0,0,0
 554.84 185.92 554.84 185.92 725.06 185.92 c 0,0,0
 863.01 185.92 863.01 185.92 975.265 253.39 c 0,0,0
 1087.52 320.86 1087.52 320.86 1170.78 454.81 c 1,0,0
EndSplineSet
EndChar

StartChar: D
Encoding: 68 68 39
Width: 1479
GlyphClass: 2
Flags: W
LayerCount: 2
Fore
SplineSet
737.3 1409 m 2,0,0
 954.68 1409 954.68 1409 1107.025 1337.85 c 0,0,0
 1259.37 1266.7 1259.37 1266.7 1338.865 1131.38 c 0,0,0
 1418.36 996.06 1418.36 996.06 1418.36 801.72 c 0,0,0
 1418.36 566.06 1418.36 566.06 1318.04 386.04 c 0,0,0
 1217.72 206.36 1217.72 206.36 1027.905 103.18 c 0,0,0
 838.09 0 838.09 0 601.13 0 c 2,0,0
 44.91 0 l 1,0,0
 318.58 1409 l 1,0,0
 737.3 1409 l 2,0,0
344.64 203.25 m 1,0,0
 592.46 203.25 l 2,0,0
 764.34 203.25 764.34 203.25 896.26 275.22 c 0,0,0
 1027.84 346.19 1027.84 346.19 1098.63 480.635 c 0,0,0
 1169.42 615.08 1169.42 615.08 1169.42 793.67 c 0,0,0
 1169.42 992.57 1169.42 992.57 1057.155 1099.16 c 0,0,0
 944.89 1205.75 944.89 1205.75 737.32 1205.75 c 2,0,0
 539.54 1205.75 l 1,0,0
 344.64 203.25 l 1,0,0
EndSplineSet
EndChar

StartChar: E
Encoding: 69 69 40
Width: 1366
GlyphClass: 2
Flags: W
LayerCount: 2
Fore
SplineSet
1213.82 204.24 m 1,0,0
 1173.77 0 l 1,0,0
 44.91 0 l 1,0,0
 317.91 1409 l 1,0,0
 1406.44 1409 l 1,0,0
 1367.06 1204.76 l 1,0,0
 539.21 1204.76 l 1,0,0
 463.94 818.42 l 1,0,0
 1231.12 818.42 l 1,0,0
 1191.74 614.84 l 1,0,0
 424.56 614.84 l 1,0,0
 344.97 204.24 l 1,0,0
 1213.82 204.24 l 1,0,0
EndSplineSet
EndChar

StartChar: F
Encoding: 70 70 41
Width: 1251
GlyphClass: 2
Flags: W
LayerCount: 2
Fore
SplineSet
408.89 534.82 m 1,0,0
 304.92 0 l 1,0,0
 44.91 0 l 1,0,0
 317.91 1409 l 1,0,0
 1312.16 1409 l 1,0,0
 1272.78 1204.76 l 1,0,0
 539.21 1204.76 l 1,0,0
 448.6 739.72 l 1,0,0
 1158.84 739.72 l 1,0,0
 1119.13 534.82 l 1,0,0
 408.89 534.82 l 1,0,0
EndSplineSet
EndChar

StartChar: G
Encoding: 71 71 42
Width: 1593
GlyphClass: 2
Flags: W
LayerCount: 2
Fore
SplineSet
740.66 -19.33 m 0,0,0
 439.01 -19.33 439.01 -19.33 269.67 138.345 c 0,0,0
 100.33 296.02 100.33 296.02 100.33 579.7 c 0,0,0
 100.33 830.37 100.33 830.37 205.33 1024.36 c 0,0,0
 309.66 1219.35 309.66 1219.35 501.49 1324.675 c 0,0,0
 693.32 1430 693.32 1430 942.66 1430 c 0,0,0
 1168.68 1430 1168.68 1430 1318.385 1333.27 c 0,0,0
 1468.09 1236.54 1468.09 1236.54 1521.75 1058.47 c 1,0,0
 1269.12 988.39 l 1,0,0
 1237.48 1102.05 1237.48 1102.05 1149.86 1162.565 c 0,0,0
 1062.24 1223.08 1062.24 1223.08 927.98 1223.08 c 0,0,0
 758.42 1223.08 758.42 1223.08 630.17 1144.45 c 0,0,0
 501.92 1065.82 501.92 1065.82 433.63 921.055 c 0,0,0
 365.34 776.29 365.34 776.29 365.34 587.05 c 0,0,0
 365.34 398.16 365.34 398.16 468.265 292.04 c 0,0,0
 571.19 185.92 571.19 185.92 758.72 185.92 c 0,0,0
 876.62 185.92 876.62 185.92 986.54 216.375 c 0,0,0
 1096.46 246.83 1096.46 246.83 1175.39 301.72 c 1,0,0
 1223.04 538.3 l 1,0,0
 854.97 538.3 l 1,0,0
 891.66 730.46 l 1,0,0
 1500.05 730.46 l 1,0,0
 1396.7 186.55 l 1,0,0
 1245.98 75.26 1245.98 75.26 1089.155 27.965 c 0,0,0
 932.33 -19.33 932.33 -19.33 740.66 -19.33 c 0,0,0
EndSplineSet
EndChar

StartChar: H
Encoding: 72 72 43
Width: 1479
GlyphClass: 2
Flags: W
LayerCount: 2
Fore
SplineSet
425.89 620.17 m 1,0,0
 304.92 0 l 1,0,0
 44.91 0 l 1,0,0
 318.24 1409 l 1,0,0
 578.92 1409 l 1,0,0
 467.61 836.45 l 1,0,0
 1140.14 836.45 l 1,0,0
 1251.45 1409 l 1,0,0
 1503.11 1409 l 1,0,0
 1229.11 0 l 1,0,0
 977.45 0 l 1,0,0
 1098.42 620.17 l 1,0,0
 425.89 620.17 l 1,0,0
EndSplineSet
EndChar

StartChar: I
Encoding: 73 73 44
Width: 569
GlyphClass: 2
Flags: W
LayerCount: 2
Fore
SplineSet
584.86 1409 m 1,0,0
 310.86 0 l 1,0,0
 50.85 0 l 1,0,0
 324.18 1409 l 1,0,0
 584.86 1409 l 1,0,0
EndSplineSet
EndChar

StartChar: J
Encoding: 74 74 45
Width: 1101
GlyphClass: 2
Flags: W
LayerCount: 2
Fore
SplineSet
447.33 -20 m 0,0,0
 267.56 -20 267.56 -20 158.35 75.01 c 0,0,0
 49.14 170.02 49.14 170.02 15.1 367.12 c 1,0,0
 249.43 416.87 l 1,0,0
 272.43 302.55 272.43 302.55 325.75 244.235 c 0,0,0
 379.07 185.92 379.07 185.92 465.67 185.92 c 0,0,0
 523.3 185.92 523.3 185.92 563.93 210.58 c 0,0,0
 607.2 236.89 607.2 236.89 635.655 288.975 c 0,0,0
 664.11 341.06 664.11 341.06 683.1 440 c 2,0,0
 870.1 1409 l 1,0,0
 1129.78 1409 l 1,0,0
 936.78 423 l 2,0,0
 892.44 194.31 892.44 194.31 774.42 87.155 c 0,0,0
 656.4 -20 656.4 -20 447.33 -20 c 0,0,0
EndSplineSet
EndChar

StartChar: K
Encoding: 75 75 46
Width: 1441
GlyphClass: 2
Flags: W
LayerCount: 2
Fore
SplineSet
406.23 526.24 m 1,0,0
 303.58 0 l 1,0,0
 44.91 0 l 1,0,0
 317.91 1409 l 1,0,0
 578.59 1409 l 1,0,0
 446.61 752.84 l 1,0,0
 599.34 885.19 l 1,0,0
 1221.46 1409 l 1,0,0
 1549.54 1409 l 1,0,0
 801.55 788.38 l 1,0,0
 1296.91 0 l 1,0,0
 1003.91 0 l 1,0,0
 610.3 651.22 l 1,0,0
 406.23 526.24 l 1,0,0
EndSplineSet
EndChar

StartChar: L
Encoding: 76 76 47
Width: 1214
GlyphClass: 2
Flags: W
LayerCount: 2
Fore
SplineSet
1086.45 204.24 m 1,0,0
 1046.4 0 l 1,0,0
 44.91 0 l 1,0,0
 317.91 1409 l 1,0,0
 578.59 1409 l 1,0,0
 344.97 204.24 l 1,0,0
 1086.45 204.24 l 1,0,0
EndSplineSet
EndChar

StartChar: M
Encoding: 77 77 48
Width: 1706
GlyphClass: 2
Flags: W
LayerCount: 2
Fore
SplineSet
457.79 937.82 m 2,0,0
 276.55 0 l 1,0,0
 44.91 0 l 1,0,0
 318.58 1409 l 1,0,0
 661.11 1409 l 1,0,0
 782.44 558.63 l 2,0,0
 787.78 506.13 787.78 506.13 794.775 442.905 c 0,0,0
 801.77 379.68 801.77 379.68 809.75 306.06 c 1,0,0
 830.39 350.35 830.39 350.35 850.025 392.46 c 0,0,0
 869.66 434.57 869.66 434.57 888.96 473.5 c 2,0,0
 1382.33 1409 l 1,0,0
 1730.12 1409 l 1,0,0
 1456.45 0 l 1,0,0
 1224.15 0 l 1,0,0
 1398.79 898.52 l 2,0,0
 1413.44 972.43 1413.44 972.43 1431.28 1051.115 c 0,0,0
 1449.12 1129.8 1449.12 1129.8 1469.82 1213.26 c 1,0,0
 1419.05 1103.36 1419.05 1103.36 1386.185 1034.275 c 0,0,0
 1353.32 965.19 1353.32 965.19 1333.33 924.86 c 0,0,0
 1313.34 884.53 1313.34 884.53 1299.36 859.56 c 2,0,0
 842.48 0 l 1,0,0
 660.86 0 l 1,0,0
 536.83 861.57 l 2,0,0
 525.12 964.01 525.12 964.01 515.29 1051.93 c 0,0,0
 505.46 1139.85 505.46 1139.85 496.5 1213.26 c 1,0,0
 485.8 1121.62 485.8 1121.62 476.29 1053.01 c 0,0,0
 466.78 984.4 466.78 984.4 457.79 937.82 c 2,0,0
EndSplineSet
EndChar

StartChar: N
Encoding: 78 78 49
Width: 1479
GlyphClass: 2
Flags: W
LayerCount: 2
Fore
SplineSet
452.86 908.83 m 2,0,0
 276.55 0 l 1,0,0
 44.91 0 l 1,0,0
 318.58 1409 l 1,0,0
 623.04 1409 l 1,0,0
 1051.85 243.58 l 1,0,0
 1066.19 343.94 1066.19 343.94 1075.515 403.215 c 0,0,0
 1084.84 462.49 1084.84 462.49 1094.17 508.82 c 2,0,0
 1270.48 1409 l 1,0,0
 1502.78 1409 l 1,0,0
 1229.11 0 l 1,0,0
 917.99 0 l 1,0,0
 492.18 1157.07 l 1,0,0
 481.18 1074.75 481.18 1074.75 471.35 1012.44 c 0,0,0
 461.52 950.13 461.52 950.13 452.86 908.83 c 2,0,0
EndSplineSet
EndChar

StartChar: O
Encoding: 79 79 50
Width: 1593
GlyphClass: 2
Flags: W
LayerCount: 2
Fore
SplineSet
931.3 1430 m 0,0,0
 1123.67 1430 1123.67 1430 1262.36 1359.335 c 0,0,0
 1401.05 1288.67 1401.05 1288.67 1476.23 1159.005 c 0,0,0
 1551.41 1029.34 1551.41 1029.34 1551.41 851 c 0,0,0
 1550.09 597.73 1550.09 597.73 1444.1 396.71 c 0,0,0
 1337.77 195.35 1337.77 195.35 1149.76 87.675 c 0,0,0
 961.75 -20 961.75 -20 721.06 -20 c 0,0,0
 526.09 -20 526.09 -20 384.41 54.97 c 0,0,0
 248.02 126.64 248.02 126.64 175.825 259.985 c 0,0,0
 103.63 393.33 103.63 393.33 103.63 573 c 0,0,0
 103.63 810.32 103.63 810.32 209.63 1012.33 c 0,0,0
 314.63 1214.34 314.63 1214.34 502.29 1322.17 c 0,0,0
 689.95 1430 689.95 1430 931.3 1430 c 0,0,0
918.95 1223.07 m 0,0,0
 744.74 1223.07 744.74 1223.07 622.16 1143.45 c 0,0,0
 540.55 1090.48 540.55 1090.48 483.92 999.865 c 0,0,0
 427.29 909.25 427.29 909.25 397.475 798.97 c 0,0,0
 367.66 688.69 367.66 688.69 367.66 575.06 c 0,0,0
 367.66 382.81 367.66 382.81 463.105 284.7 c 0,0,0
 558.55 186.59 558.55 186.59 733.41 186.59 c 0,0,0
 906.29 186.59 906.29 186.59 1028.54 265.55 c 0,0,0
 1109.82 318.19 1109.82 318.19 1167.115 406.645 c 0,0,0
 1224.41 495.1 1224.41 495.1 1254.555 605.71 c 0,0,0
 1284.7 716.32 1284.7 716.32 1284.7 833.6 c 0,0,0
 1284.7 1019.83 1284.7 1019.83 1190.27 1121.45 c 0,0,0
 1095.84 1223.07 1095.84 1223.07 918.95 1223.07 c 0,0,0
EndSplineSet
EndChar

StartChar: P
Encoding: 80 80 51
Width: 1366
GlyphClass: 2
Flags: W
LayerCount: 2
Fore
SplineSet
850.66 1409 m 2,0,0
 1091.71 1409 1091.71 1409 1227.715 1299.64 c 0,0,0
 1363.72 1190.28 1363.72 1190.28 1363.72 997.89 c 0,0,0
 1363.72 849.21 1363.72 849.21 1294.385 740.195 c 0,0,0
 1225.05 631.18 1225.05 631.18 1098.22 572.335 c 0,0,0
 971.39 513.49 971.39 513.49 798.07 513.49 c 2,0,0
 405.56 513.49 l 1,0,0
 304.92 0 l 1,0,0
 44.91 0 l 1,0,0
 317.91 1409 l 1,0,0
 850.66 1409 l 2,0,0
444.27 715.41 m 1,0,0
 765.61 715.41 l 2,0,0
 932.49 715.41 932.49 715.41 1015.93 780.01 c 0,0,0
 1099.37 844.61 1099.37 844.61 1099.37 984.2 c 0,0,0
 1099.37 1091.81 1099.37 1091.81 1030.42 1148.445 c 0,0,0
 961.47 1205.08 961.47 1205.08 830.25 1205.08 c 2,0,0
 539.54 1205.08 l 1,0,0
 444.27 715.41 l 1,0,0
EndSplineSet
EndChar

StartChar: Q
Encoding: 81 81 52
Width: 1593
GlyphClass: 2
Flags: W
LayerCount: 2
Fore
SplineSet
928 1430 m 0,0,0
 1120.37 1430 1120.37 1430 1259.06 1359.335 c 0,0,0
 1397.75 1288.67 1397.75 1288.67 1472.93 1159.005 c 0,0,0
 1548.11 1029.34 1548.11 1029.34 1548.11 851 c 0,0,0
 1546.79 701.79 1546.79 701.79 1494.115 520.43 c 0,0,0
 1441.44 339.07 1441.44 339.07 1281.32 188.19 c 0,0,0
 1111.64 28.72 1111.64 28.72 862.2 -9.32 c 1,0,0
 880.54 -114.91 880.54 -114.91 927.525 -162.705 c 0,0,0
 974.51 -210.5 974.51 -210.5 1066.81 -210.5 c 0,0,0
 1138.53 -210.5 1138.53 -210.5 1207.9 -196.83 c 1,0,0
 1171.81 -371.7 l 1,0,0
 1099.49 -395.71 1099.49 -395.71 1002.81 -395.71 c 0,0,0
 820.99 -395.71 820.99 -395.71 722.905 -304.35 c 0,0,0
 624.82 -212.99 624.82 -212.99 601.82 -11.64 c 1,0,0
 480.85 4.06 480.85 4.06 387.715 52.415 c 0,0,0
 294.58 100.77 294.58 100.77 230.27 176.77 c 0,0,0
 100.33 328.76 100.33 328.76 100.33 573 c 0,0,0
 100.33 810.32 100.33 810.32 206.33 1012.33 c 0,0,0
 311.33 1214.34 311.33 1214.34 498.99 1322.17 c 0,0,0
 686.65 1430 686.65 1430 928 1430 c 0,0,0
915.65 1223.07 m 0,0,0
 741.44 1223.07 741.44 1223.07 618.86 1143.45 c 0,0,0
 537.25 1090.48 537.25 1090.48 480.62 999.865 c 0,0,0
 423.99 909.25 423.99 909.25 394.175 798.97 c 0,0,0
 364.36 688.69 364.36 688.69 364.36 575.06 c 0,0,0
 364.36 382.81 364.36 382.81 459.805 284.7 c 0,0,0
 555.25 186.59 555.25 186.59 730.11 186.59 c 0,0,0
 902.99 186.59 902.99 186.59 1025.24 265.55 c 0,0,0
 1106.52 318.19 1106.52 318.19 1163.815 406.645 c 0,0,0
 1221.11 495.1 1221.11 495.1 1251.255 605.71 c 0,0,0
 1281.4 716.32 1281.4 716.32 1281.4 833.6 c 0,0,0
 1281.4 1019.83 1281.4 1019.83 1186.97 1121.45 c 0,0,0
 1092.54 1223.07 1092.54 1223.07 915.65 1223.07 c 0,0,0
EndSplineSet
EndChar

StartChar: R
Encoding: 82 82 53
Width: 1479
GlyphClass: 2
Flags: W
LayerCount: 2
Fore
SplineSet
411.89 550.83 m 1,0,0
 305.59 0 l 1,0,0
 44.91 0 l 1,0,0
 318.58 1409 l 1,0,0
 956.71 1409 l 2,0,0
 1114.4 1409 1114.4 1409 1226.74 1358.35 c 0,0,0
 1334.46 1310.34 1334.46 1310.34 1391.645 1222.475 c 0,0,0
 1448.83 1134.61 1448.83 1134.61 1448.83 1016.89 c 0,0,0
 1448.83 844.3 1448.83 844.3 1340.495 730.95 c 0,0,0
 1232.16 617.6 1232.16 617.6 1037.91 589.27 c 1,0,0
 1309.93 0 l 1,0,0
 1023.53 0 l 1,0,0
 789.24 550.83 l 1,0,0
 411.89 550.83 l 1,0,0
867.05 754.76 m 2,0,0
 1023.93 754.76 1023.93 754.76 1104.205 818.87 c 0,0,0
 1184.48 882.98 1184.48 882.98 1184.48 1000.55 c 0,0,0
 1184.48 1099.82 1184.48 1099.82 1117.35 1152.45 c 0,0,0
 1050.22 1205.08 1050.22 1205.08 924.33 1205.08 c 2,0,0
 539.54 1205.08 l 1,0,0
 451.94 754.76 l 1,0,0
 867.05 754.76 l 2,0,0
EndSplineSet
EndChar

StartChar: S
Encoding: 83 83 54
Width: 1366
GlyphClass: 2
Flags: W
LayerCount: 2
Fore
SplineSet
605.28 -20 m 0,0,0
 344.22 -20 344.22 -20 205.045 72.52 c 0,0,0
 65.87 165.04 65.87 165.04 35.89 356.09 c 1,0,0
 287.93 401.13 l 1,0,0
 310.91 284.19 310.91 284.19 390.175 230.88 c 0,0,0
 469.44 177.57 469.44 177.57 623.3 177.57 c 0,0,0
 811.48 177.57 811.48 177.57 902.43 232.35 c 0,0,0
 993.38 287.13 993.38 287.13 993.38 398.68 c 0,0,0
 993.38 447.59 993.38 447.59 973.76 482.395 c 0,0,0
 954.14 517.2 954.14 517.2 910.94 543.5 c 0,0,0
 879.29 564.19 879.29 564.19 819.625 586.2 c 0,0,0
 759.96 608.21 759.96 608.21 671.95 630.87 c 0,0,0
 493.9 678.88 493.9 678.88 405.56 731.22 c 0,0,0
 318.55 783.23 318.55 783.23 272.705 857.42 c 0,0,0
 226.86 931.61 226.86 931.61 226.86 1038.32 c 0,0,0
 226.86 1157.64 226.86 1157.64 297.7 1245.645 c 0,0,0
 368.54 1333.65 368.54 1333.65 497.21 1381.825 c 0,0,0
 625.88 1430 625.88 1430 798.54 1430 c 0,0,0
 1030.6 1430 1030.6 1430 1170.97 1346.965 c 0,0,0
 1311.34 1263.93 1311.34 1263.93 1344.67 1104.53 c 1,0,0
 1094.62 1042.81 l 1,0,0
 1068.99 1137.76 1068.99 1137.76 991.53 1190.105 c 0,0,0
 914.07 1242.45 914.07 1242.45 787.49 1242.45 c 0,0,0
 642.37 1242.45 642.37 1242.45 563.78 1191.825 c 0,0,0
 485.19 1141.2 485.19 1141.2 485.19 1047.99 c 0,0,0
 485.19 996.7 485.19 996.7 511.19 962.215 c 0,0,0
 537.19 927.73 537.19 927.73 589.83 902.08 c 0,0,0
 616.15 888.75 616.15 888.75 668.455 871.595 c 0,0,0
 720.76 854.44 720.76 854.44 799.05 833.45 c 0,0,0
 937.92 795.06 937.92 795.06 1011.94 760.685 c 0,0,0
 1085.96 726.31 1085.96 726.31 1130.97 685.9 c 0,0,0
 1189.5 637.24 1189.5 637.24 1220.43 572.105 c 0,0,0
 1251.36 506.97 1251.36 506.97 1251.36 418.05 c 0,0,0
 1251.36 205.35 1251.36 205.35 1088.99 92.675 c 0,0,0
 926.62 -20 926.62 -20 605.28 -20 c 0,0,0
EndSplineSet
EndChar

StartChar: T
Encoding: 84 84 55
Width: 1251
GlyphClass: 2
Flags: W
LayerCount: 2
Fore
SplineSet
882.79 1204.76 m 1,0,0
 648.17 0 l 1,0,0
 387.82 0 l 1,0,0
 622.44 1204.76 l 1,0,0
 157.87 1204.76 l 1,0,0
 197.25 1409 l 1,0,0
 1387.41 1409 l 1,0,0
 1348.03 1204.76 l 1,0,0
 882.79 1204.76 l 1,0,0
EndSplineSet
EndChar

StartChar: U
Encoding: 85 85 56
Width: 1479
GlyphClass: 2
Flags: W
LayerCount: 2
Fore
SplineSet
666.06 -20 m 0,0,0
 412.29 -20 412.29 -20 271.255 98.49 c 0,0,0
 130.22 216.98 130.22 216.98 130.22 431 c 0,0,0
 130.22 475 130.22 475 137.72 536.5 c 0,0,0
 145.22 598 145.22 598 153.22 635 c 2,0,0
 301.88 1409 l 1,0,0
 562.56 1409 l 1,0,0
 406.59 588.11 l 2,0,0
 388.92 500.12 388.92 500.12 388.92 425.68 c 0,0,0
 388.92 311.79 388.92 311.79 466.705 248.855 c 0,0,0
 544.49 185.92 544.49 185.92 682.06 185.92 c 0,0,0
 855.97 185.92 855.97 185.92 951.37 270.335 c 0,0,0
 1046.77 354.75 1046.77 354.75 1082.09 541 c 2,0,0
 1250.09 1409 l 1,0,0
 1510.44 1409 l 1,0,0
 1339.77 530 l 2,0,0
 1285.1 251.64 1285.1 251.64 1119.11 115.82 c 0,0,0
 953.12 -20 953.12 -20 666.06 -20 c 0,0,0
EndSplineSet
EndChar

StartChar: V
Encoding: 86 86 57
Width: 1366
GlyphClass: 2
Flags: W
LayerCount: 2
Fore
SplineSet
1514.28 1409 m 1,0,0
 717.2 0 l 1,0,0
 424.73 0 l 1,0,0
 172.98 1409 l 1,0,0
 441.35 1409 l 1,0,0
 583.07 475.29 l 2,0,0
 591.4 405.92 591.4 405.92 597.89 340.405 c 0,0,0
 604.38 274.89 604.38 274.89 609.36 214.9 c 1,0,0
 635.66 270.87 635.66 270.87 659.78 319.3 c 0,0,0
 683.9 367.73 683.9 367.73 704.17 408.96 c 2,0,0
 1239.28 1409 l 1,0,0
 1514.28 1409 l 1,0,0
EndSplineSet
EndChar

StartChar: W
Encoding: 87 87 58
Width: 1933
GlyphClass: 2
Flags: W
LayerCount: 2
Fore
SplineSet
965.69 882.94 m 2,0,0
 576.84 0 l 1,0,0
 265.4 0 l 1,0,0
 158.91 1409 l 1,0,0
 411.52 1409 l 1,0,0
 461.71 567.6 l 2,0,0
 466.37 485.91 466.37 485.91 468.695 399.245 c 0,0,0
 471.02 312.58 471.02 312.58 471.68 221.6 c 1,0,0
 506.99 308.23 506.99 308.23 540.16 388.085 c 0,0,0
 573.33 467.94 573.33 467.94 604.02 541.69 c 2,0,0
 988.06 1409 l 1,0,0
 1260.17 1409 l 1,0,0
 1305.69 545.4 l 2,0,0
 1310.01 469.07 1310.01 469.07 1313.17 388.12 c 0,0,0
 1316.33 307.17 1316.33 307.17 1318.67 221.6 c 1,0,0
 1340.59 273.78 1340.59 273.78 1360.42 324.78 c 0,0,0
 1380.25 375.78 1380.25 375.78 1402.62 431.22 c 2,0,0
 1822.65 1409 l 1,0,0
 2083.95 1409 l 1,0,0
 1429.45 0 l 1,0,0
 1121.36 0 l 1,0,0
 1079.84 839.39 l 2,0,0
 1074.87 1013.17 l 0,0,0
 1072.88 1090.82 1072.88 1090.82 1071.21 1149.99 c 1,0,0
 1038.57 1063.39 1038.57 1063.39 1012.275 996.795 c 0,0,0
 985.98 930.2 985.98 930.2 965.69 882.94 c 2,0,0
EndSplineSet
EndChar

StartChar: X
Encoding: 88 88 59
Width: 1366
GlyphClass: 2
Flags: W
LayerCount: 2
Fore
SplineSet
951.43 0 m 1,0,0
 681.93 556.42 l 1,0,0
 204.16 0 l 1,0,0
 -75.85 0 l 1,0,0
 576.81 739.3 l 1,0,0
 238.15 1409 l 1,0,0
 510.85 1409 l 1,0,0
 750.03 911.6 l 1,0,0
 1176.12 1409 l 1,0,0
 1455.46 1409 l 1,0,0
 855.46 732.33 l 1,0,0
 1222.79 0 l 1,0,0
 951.43 0 l 1,0,0
EndSplineSet
EndChar

StartChar: Y
Encoding: 89 89 60
Width: 1366
GlyphClass: 2
Flags: W
LayerCount: 2
Fore
SplineSet
819.17 579.98 m 1,0,0
 706.84 0 l 1,0,0
 447.16 0 l 1,0,0
 560.15 579.98 l 1,0,0
 185.53 1409 l 1,0,0
 445.85 1409 l 1,0,0
 720.36 781.23 l 1,0,0
 1222.74 1409 l 1,0,0
 1509.77 1409 l 1,0,0
 819.17 579.98 l 1,0,0
EndSplineSet
EndChar

StartChar: Z
Encoding: 90 90 61
Width: 1251
GlyphClass: 2
Flags: W
LayerCount: 2
Fore
SplineSet
1122.05 206.25 m 1,0,0
 1082 0 l 1,0,0
 -45.36 0 l 1,0,0
 -9.65 187.22 l 1,0,0
 959.26 1202.75 l 1,0,0
 262.6 1202.75 l 1,0,0
 302.65 1409 l 1,0,0
 1312.69 1409 l 1,0,0
 1276.98 1225.78 l 1,0,0
 306.06 206.25 l 1,0,0
 1122.05 206.25 l 1,0,0
EndSplineSet
EndChar

StartChar: bracketleft
Encoding: 91 91 62
Width: 644
GlyphClass: 2
Flags: W
LayerCount: 2
Fore
SplineSet
480.44 -254.46 m 1,0,0
 447.4 -425 l 1,0,0
 -49.05 -425 l 1,0,0
 320.95 1484 l 1,0,0
 818.4 1484 l 1,0,0
 785.36 1314.13 l 1,0,0
 523.55 1314.13 l 1,0,0
 218.63 -254.46 l 1,0,0
 480.44 -254.46 l 1,0,0
EndSplineSet
EndChar

StartChar: backslash
Encoding: 92 92 63
Width: 569
GlyphClass: 2
Flags: W
LayerCount: 2
Fore
SplineSet
330.85 1484.67 m 1,0,0
 512.2 -34.07 l 1,0,0
 299.23 -34.07 l 1,0,0
 122.55 1484.67 l 1,0,0
 330.85 1484.67 l 1,0,0
EndSplineSet
EndChar

StartChar: bracketright
Encoding: 93 93 64
Width: 644
GlyphClass: 2
Flags: W
LayerCount: 2
Fore
SplineSet
695.1 1484 m 1,0,0
 324.1 -425 l 1,0,0
 -172.35 -425 l 1,0,0
 -139.31 -254.46 l 1,0,0
 122.84 -254.46 l 1,0,0
 427.76 1314.13 l 1,0,0
 164.61 1314.13 l 1,0,0
 197.65 1484 l 1,0,0
 695.1 1484 l 1,0,0
EndSplineSet
EndChar

StartChar: asciicircum
Encoding: 94 94 65
Width: 1118
GlyphClass: 2
Flags: W
LayerCount: 2
Fore
SplineSet
593.76 1279.2 m 1,0,0
 275.7 566.47 l 1,0,0
 70.15 566.47 l 1,0,0
 453.56 1409 l 1,0,0
 736.29 1409 l 1,0,0
 1121.7 566.47 l 1,0,0
 914.15 566.47 l 1,0,0
 593.76 1279.2 l 1,0,0
EndSplineSet
EndChar

StartChar: underscore
Encoding: 95 95 66
Width: 1139
GlyphClass: 2
Flags: W
LayerCount: 2
Fore
SplineSet
1044.13 -172.66 m 1,0,0
 1044.13 -250 l 1,0,0
 -133.2 -250 l 1,0,0
 -133.2 -172.66 l 1,0,0
 1044.13 -172.66 l 1,0,0
EndSplineSet
EndChar

StartChar: grave
Encoding: 96 96 67
Width: 682
GlyphClass: 2
Flags: W
LayerCount: 2
Fore
SplineSet
668.49 1216.31 m 1,0,0
 663.48 1188.94 l 1,0,0
 535.28 1188.94 l 1,0,0
 236.53 1465.6 l 1,0,0
 243.54 1503.98 l 1,0,0
 484.71 1503.98 l 1,0,0
 668.49 1216.31 l 1,0,0
EndSplineSet
EndChar

StartChar: a
Encoding: 97 97 68
Width: 1139
GlyphClass: 2
Flags: W
LayerCount: 2
Fore
SplineSet
903.55 -10 m 0,0,0
 844.89 -10 844.89 -10 805.035 3.33 c 0,0,0
 765.18 16.66 765.18 16.66 741.99 43.825 c 0,0,0
 718.8 70.99 718.8 70.99 711.285 111.825 c 0,0,0
 703.77 152.66 703.77 152.66 710.45 207 c 1,0,0
 704.45 207 l 1,0,0
 668.79 152.34 668.79 152.34 631.465 109.84 c 0,0,0
 594.14 67.34 594.14 67.34 550.485 38.505 c 0,0,0
 506.83 9.67 506.83 9.67 453.34 -5.165 c 0,0,0
 399.85 -20 399.85 -20 331.52 -20 c 0,0,0
 264.52 -20 264.52 -20 207.69 1 c 0,0,0
 150.86 22 150.86 22 109.365 60.5 c 0,0,0
 67.87 99 67.87 99 44.875 154 c 0,0,0
 21.88 209 21.88 209 21.88 278 c 0,0,0
 21.88 380.32 21.88 380.32 57.365 448.315 c 0,0,0
 92.85 516.31 92.85 516.31 152.165 558.31 c 0,0,0
 211.48 600.31 211.48 600.31 288.955 620.98 c 0,0,0
 366.43 641.65 366.43 641.65 449.745 650.155 c 0,0,0
 533.06 658.66 533.06 658.66 616.545 658.83 c 0,0,0
 700.03 659 700.03 659 772.03 660 c 1,0,0
 778.7 691.67 778.7 691.67 785.535 724.675 c 0,0,0
 792.37 757.68 792.37 757.68 792.37 789.68 c 0,0,0
 792.37 826.96 792.37 826.96 782.225 854.095 c 0,0,0
 772.08 881.23 772.08 881.23 752.95 899.045 c 0,0,0
 733.82 916.86 733.82 916.86 705.695 925.52 c 0,0,0
 677.57 934.18 677.57 934.18 641.28 934.18 c 0,0,0
 598.65 934.18 598.65 934.18 562.68 926.85 c 0,0,0
 526.71 919.52 526.71 919.52 498.405 902.03 c 0,0,0
 470.1 884.54 470.1 884.54 449.455 855.56 c 0,0,0
 428.81 826.58 428.81 826.58 416.83 782.28 c 1,0,0
 181.88 812.62 l 1,0,0
 203.86 897.63 203.86 897.63 249.535 953.305 c 0,0,0
 295.21 1008.98 295.21 1008.98 357.725 1041.985 c 0,0,0
 420.24 1074.99 420.24 1074.99 494.42 1088.495 c 0,0,0
 568.6 1102 568.6 1102 647.93 1102 c 0,0,0
 722.62 1102 722.62 1102 792.805 1088.515 c 0,0,0
 862.99 1075.03 862.99 1075.03 917.67 1042.04 c 0,0,0
 972.35 1009.05 972.35 1009.05 1005.19 952.045 c 0,0,0
 1038.03 895.04 1038.03 895.04 1038.03 807 c 0,0,0
 1038.03 768.34 1038.03 768.34 1030.855 728.335 c 0,0,0
 1023.68 688.33 1023.68 688.33 1015.68 650 c 2,0,0
 943.69 288.75 l 2,0,0
 939.36 270.1 939.36 270.1 937.03 250.275 c 0,0,0
 934.7 230.45 934.7 230.45 934.7 211.47 c 0,0,0
 934.7 174.48 934.7 174.48 957.37 159.155 c 0,0,0
 980.04 143.83 980.04 143.83 1014.36 143.83 c 0,0,0
 1030.03 143.83 1030.03 143.83 1045.365 145.495 c 0,0,0
 1060.7 147.16 1060.7 147.16 1075.7 150.83 c 1,0,0
 1061.7 10.02 l 1,0,0
 1023 -3.34 1023 -3.34 983.63 -6.67 c 0,0,0
 944.26 -10 944.26 -10 903.55 -10 c 0,0,0
277.2 312.13 m 0,0,0
 277.2 276.81 277.2 276.81 288.19 247.99 c 0,0,0
 299.18 219.17 299.18 219.17 319.165 198.845 c 0,0,0
 339.15 178.52 339.15 178.52 368.135 167.525 c 0,0,0
 397.12 156.53 397.12 156.53 432.44 156.53 c 0,0,0
 485.71 156.53 485.71 156.53 530.63 173.675 c 0,0,0
 575.55 190.82 575.55 190.82 610.98 220.775 c 0,0,0
 646.41 250.73 646.41 250.73 671.025 291.665 c 0,0,0
 695.64 332.6 695.64 332.6 707.63 380.18 c 2,0,0
 743.34 513.89 l 1,0,0
 572.76 513.56 l 2,0,0
 521.85 513.56 521.85 513.56 469.095 504.73 c 0,0,0
 416.34 495.9 416.34 495.9 373.9 472.92 c 0,0,0
 331.46 449.94 331.46 449.94 304.33 410.99 c 0,0,0
 277.2 372.04 277.2 372.04 277.2 312.13 c 0,0,0
EndSplineSet
EndChar

StartChar: b
Encoding: 98 98 69
Width: 1214
GlyphClass: 2
Flags: W
LayerCount: 2
Fore
SplineSet
818.37 1102 m 0,0,0
 976.71 1102 976.71 1102 1065.215 1007.5 c 0,0,0
 1153.72 913 1153.72 913 1153.72 748 c 0,0,0
 1153.72 644.99 1153.72 644.99 1138.385 547.495 c 0,0,0
 1123.05 450 1123.05 450 1092.05 355 c 0,0,0
 1030.38 163.66 1030.38 163.66 918.045 71.83 c 0,0,0
 805.71 -20 805.71 -20 632.04 -20 c 0,0,0
 507.7 -20 507.7 -20 430.365 32 c 0,0,0
 353.03 84 353.03 84 321.03 178 c 1,0,0
 318.03 178 l 1,0,0
 311.35 146.28 311.35 146.28 304.185 116.635 c 0,0,0
 297.02 86.99 297.02 86.99 291.03 64.36 c 0,0,0
 285.7 45.72 285.7 45.72 280.53 28.885 c 0,0,0
 275.36 12.05 275.36 12.05 271.68 0 c 1,0,0
 33.02 0 l 1,0,0
 38.02 15 38.02 15 52.855 82 c 0,0,0
 67.69 149 67.69 149 82.02 223 c 2,0,0
 327.69 1484 l 1,0,0
 575.36 1484 l 1,0,0
 491.69 1058.32 l 2,0,0
 485.68 1029.29 485.68 1029.29 477.85 993.62 c 0,0,0
 470.02 957.95 470.02 957.95 459.03 915.64 c 1,0,0
 463.03 915.64 l 1,0,0
 524.64 1003.27 524.64 1003.27 611.335 1052.635 c 0,0,0
 698.03 1102 698.03 1102 818.37 1102 c 0,0,0
720.81 925.48 m 0,0,0
 572.02 925.48 572.02 925.48 488.76 811.05 c 0,0,0
 454.4 765.4 454.4 765.4 429.55 700.23 c 0,0,0
 404.7 635.06 404.7 635.06 388.69 554.33 c 0,0,0
 371.03 457.01 371.03 457.01 371.03 393.08 c 0,0,0
 371.03 280.14 371.03 280.14 427.495 216.67 c 0,0,0
 483.96 153.2 483.96 153.2 584.9 153.2 c 0,0,0
 693.49 153.2 693.49 153.2 755.44 220.49 c 0,0,0
 786.75 253.8 786.75 253.8 812.235 312.445 c 0,0,0
 837.72 371.09 837.72 371.09 856.38 441.23 c 0,0,0
 875.04 511.37 875.04 511.37 885.205 580.17 c 0,0,0
 895.37 648.97 895.37 648.97 895.37 701.26 c 0,0,0
 895.37 812.2 895.37 812.2 856.075 868.84 c 0,0,0
 816.78 925.48 816.78 925.48 720.81 925.48 c 0,0,0
EndSplineSet
EndChar

StartChar: c
Encoding: 99 99 70
Width: 1101
GlyphClass: 2
Flags: W
LayerCount: 2
Fore
SplineSet
513.89 156.17 m 0,0,0
 603.49 156.17 603.49 156.17 663.43 210.32 c 0,0,0
 723.37 264.47 723.37 264.47 758.67 371.43 c 1,0,0
 991.72 321.76 l 1,0,0
 880.44 -20 880.44 -20 501.85 -20 c 0,0,0
 291.09 -20 291.09 -20 177.705 91.345 c 0,0,0
 64.32 202.69 64.32 202.69 64.32 401.7 c 0,0,0
 64.32 599.35 64.32 599.35 141.34 769.68 c 0,0,0
 218.03 941.01 218.03 941.01 345.57 1021.505 c 0,0,0
 473.11 1102 473.11 1102 661.85 1102 c 0,0,0
 844.25 1102 844.25 1102 952.465 1009.965 c 0,0,0
 1060.68 917.93 1060.68 917.93 1073.36 755.19 c 1,0,0
 824.67 731.53 l 1,0,0
 819.34 827.19 819.34 827.19 773.38 876.675 c 0,0,0
 727.42 926.16 727.42 926.16 645.13 926.16 c 0,0,0
 524.93 926.16 524.93 926.16 457.83 846.72 c 0,0,0
 390.73 767.28 390.73 767.28 344.7 578.96 c 1,0,0
 334.03 523.93 334.03 523.93 328.36 479.125 c 0,0,0
 322.69 434.32 322.69 434.32 322.69 401.06 c 0,0,0
 322.69 156.17 322.69 156.17 513.89 156.17 c 0,0,0
EndSplineSet
EndChar

StartChar: d
Encoding: 100 100 71
Width: 1214
GlyphClass: 2
Flags: W
LayerCount: 2
Fore
SplineSet
394.97 -21 m 0,0,0
 239.98 -21 239.98 -21 150.805 78.525 c 0,0,0
 61.63 178.05 61.63 178.05 61.63 347.07 c 0,0,0
 61.63 542.37 61.63 542.37 124.97 727.67 c 0,0,0
 188.31 913.31 188.31 913.31 302.325 1007.49 c 0,0,0
 416.34 1101.67 416.34 1101.67 582.64 1101.67 c 0,0,0
 708.99 1101.67 708.99 1101.67 787.16 1051.345 c 0,0,0
 865.33 1001.02 865.33 1001.02 895.32 903.67 c 1,0,0
 900.32 903.67 l 1,0,0
 903.97 930.6 903.97 930.6 910.3 970.765 c 0,0,0
 916.63 1010.93 916.63 1010.93 926.98 1065.67 c 2,0,0
 1010.32 1484 l 1,0,0
 1255.31 1484 l 1,0,0
 1015 228.36 l 2,0,0
 1003.68 167.74 1003.68 167.74 995.855 110.4 c 0,0,0
 988.03 53.06 988.03 53.06 983.03 0 c 1,0,0
 738 0 l 1,0,0
 738 59.04 738 59.04 754.98 160 c 1,0,0
 750.65 160 l 1,0,0
 678.99 66.34 678.99 66.34 596.985 22.67 c 0,0,0
 514.98 -21 514.98 -21 394.97 -21 c 0,0,0
494.54 154.18 m 0,0,0
 663.09 154.18 663.09 154.18 749.37 302.44 c 0,0,0
 779.02 352.42 779.02 352.42 799.84 420.89 c 0,0,0
 820.66 489.36 820.66 489.36 832.155 560.325 c 0,0,0
 843.65 631.29 843.65 631.29 843.65 688.59 c 0,0,0
 843.65 810.24 843.65 810.24 791.205 869.69 c 0,0,0
 738.76 929.14 738.76 929.14 638.49 929.14 c 0,0,0
 530.56 929.14 530.56 929.14 463.58 859.15 c 0,0,0
 419.26 812.49 419.26 812.49 387.78 730.545 c 0,0,0
 356.3 648.6 356.3 648.6 339.48 555.83 c 0,0,0
 322.66 463.06 322.66 463.06 322.66 383.76 c 0,0,0
 322.66 269.47 322.66 269.47 364.97 211.825 c 0,0,0
 407.28 154.18 407.28 154.18 494.54 154.18 c 0,0,0
EndSplineSet
EndChar

StartChar: e
Encoding: 101 101 72
Width: 1139
GlyphClass: 2
Flags: W
LayerCount: 2
Fore
SplineSet
324.34 484.91 m 1,0,0
 317.67 450.24 317.67 450.24 316.68 387.99 c 0,0,0
 316.68 273.08 316.68 273.08 369.78 211.795 c 0,0,0
 422.88 150.51 422.88 150.51 528.07 150.51 c 0,0,0
 609.66 150.51 609.66 150.51 671.24 194.49 c 0,0,0
 732.82 238.47 732.82 238.47 769.45 322.81 c 1,0,0
 979.14 252.44 l 1,0,0
 904.8 102.68 904.8 102.68 793.305 41.34 c 0,0,0
 681.81 -20 681.81 -20 508.41 -20 c 0,0,0
 299.37 -20 299.37 -20 182.175 94.18 c 0,0,0
 64.98 208.36 64.98 208.36 64.98 413.71 c 0,0,0
 64.98 618.07 64.98 618.07 136.65 776.05 c 0,0,0
 208.32 932.37 208.32 932.37 339.665 1017.185 c 0,0,0
 471.01 1102 471.01 1102 640.72 1102 c 0,0,0
 848.4 1102 848.4 1102 962.065 995.985 c 0,0,0
 1075.73 889.97 1075.73 889.97 1075.73 696.61 c 0,0,0
 1075.73 595.96 1075.73 595.96 1051.73 484.91 c 1,0,0
 324.34 484.91 l 1,0,0
354.37 655.74 m 1,0,0
 841.14 655.74 l 1,0,0
 844.47 717.02 l 1,0,0
 844.47 829.63 844.47 829.63 790.02 884.24 c 0,0,0
 735.57 938.85 735.57 938.85 642.04 938.85 c 0,0,0
 533.5 938.85 533.5 938.85 459.42 866.08 c 0,0,0
 385.34 793.31 385.34 793.31 354.37 655.74 c 1,0,0
EndSplineSet
EndChar

StartChar: f
Encoding: 102 102 73
Width: 644
GlyphClass: 2
Flags: W
LayerCount: 2
Fore
SplineSet
496.98 911.47 m 1,0,0
 319.35 0 l 1,0,0
 72.35 0 l 1,0,0
 249.98 911.47 l 1,0,0
 93.96 911.47 l 1,0,0
 127.33 1082 l 1,0,0
 283.35 1082 l 1,0,0
 305.68 1197.97 l 2,0,0
 327.68 1306.63 327.68 1306.63 372.71 1366.64 c 0,0,0
 418.08 1427.33 418.08 1427.33 491.305 1455.665 c 0,0,0
 564.53 1484 564.53 1484 672.92 1484 c 0,0,0
 744.57 1484 744.57 1484 817.69 1468.65 c 1,0,0
 784.99 1302.17 l 1,0,0
 777.34 1303.5 777.34 1303.5 764.835 1305.335 c 0,0,0
 752.33 1307.17 752.33 1307.17 738.65 1308.17 c 0,0,0
 726.31 1309.84 726.31 1309.84 713.64 1310.675 c 0,0,0
 700.97 1311.51 700.97 1311.51 690.64 1311.51 c 0,0,0
 624.63 1311.51 624.63 1311.51 593.64 1279.345 c 0,0,0
 562.65 1247.18 562.65 1247.18 547.34 1170.96 c 2,0,0
 530.35 1082 l 1,0,0
 742.69 1082 l 1,0,0
 709.32 911.47 l 1,0,0
 496.98 911.47 l 1,0,0
EndSplineSet
EndChar

StartChar: g
Encoding: 103 103 74
Width: 1214
GlyphClass: 2
Flags: W
LayerCount: 2
Fore
SplineSet
419.78 -425 m 0,0,0
 230.68 -425 230.68 -425 126.485 -357.98 c 0,0,0
 22.29 -290.96 22.29 -290.96 -3.37 -152.23 c 1,0,0
 240.03 -118.27 l 1,0,0
 269.34 -255.17 269.34 -255.17 443.21 -255.17 c 0,0,0
 563.77 -255.17 563.77 -255.17 630.38 -191.385 c 0,0,0
 696.99 -127.6 696.99 -127.6 730.33 27 c 0,0,0
 739.67 73.68 739.67 73.68 748 117.18 c 0,0,0
 756.33 160.68 756.33 160.68 762.32 201 c 1,0,0
 760.32 201 l 1,0,0
 697.98 112.33 697.98 112.33 650.65 73 c 0,0,0
 602.65 34 602.65 34 543.15 13 c 0,0,0
 483.65 -8 483.65 -8 406.65 -8 c 0,0,0
 252.31 -8 252.31 -8 159.48 92.165 c 0,0,0
 66.65 192.33 66.65 192.33 66.65 356.99 c 0,0,0
 66.65 431.25 66.65 431.25 76.95 508.135 c 0,0,0
 87.25 585.02 87.25 585.02 107.36 658.255 c 0,0,0
 127.47 731.49 127.47 731.49 155.73 794.8 c 0,0,0
 219.39 952.41 219.39 952.41 324.785 1026.705 c 0,0,0
 430.18 1101 430.18 1101 586.66 1101 c 0,0,0
 705.65 1101 705.65 1101 790.155 1044.67 c 0,0,0
 874.66 988.34 874.66 988.34 900.67 894.32 c 1,0,0
 902.67 894.32 l 1,0,0
 907 915.97 907 915.97 917 958.475 c 0,0,0
 927 1000.98 927 1000.98 937.335 1038.825 c 0,0,0
 947.67 1076.67 947.67 1076.67 950.67 1082 c 1,0,0
 1184.65 1082 l 1,0,0
 1165.65 999.33 l 1,0,0
 1135.65 854.65 l 1,0,0
 971.97 16.93 l 2,0,0
 924.64 -219.04 924.64 -219.04 793.27 -322.02 c 0,0,0
 661.9 -425 661.9 -425 419.78 -425 c 0,0,0
326 388.41 m 0,0,0
 326 173.24 326 173.24 510.22 173.24 c 0,0,0
 605.49 173.24 605.49 173.24 683.44 244.2 c 0,0,0
 761.39 314.83 761.39 314.83 803.86 437.425 c 0,0,0
 846.33 560.02 846.33 560.02 846.33 691.94 c 0,0,0
 846.33 802.87 846.33 802.87 790.37 865.67 c 0,0,0
 734.41 928.47 734.41 928.47 634.47 928.47 c 0,0,0
 553.85 928.47 553.85 928.47 501.22 894.82 c 0,0,0
 448.59 861.17 448.59 861.17 411.61 787.53 c 0,0,0
 387.29 738.21 387.29 738.21 367.97 665.07 c 0,0,0
 348.65 591.93 348.65 591.93 337.325 517.64 c 0,0,0
 326 443.35 326 443.35 326 388.41 c 0,0,0
EndSplineSet
EndChar

StartChar: h
Encoding: 104 104 75
Width: 1214
GlyphClass: 2
Flags: W
LayerCount: 2
Fore
SplineSet
452.01 897 m 1,0,0
 529.65 1004.63 529.65 1004.63 617.84 1052.815 c 0,0,0
 706.03 1101 706.03 1101 822.37 1101 c 0,0,0
 973.05 1101 973.05 1101 1049.225 1028 c 0,0,0
 1125.4 955 1125.4 955 1125.4 817 c 0,0,0
 1125.4 789.69 1125.4 789.69 1119.06 739.645 c 0,0,0
 1112.72 689.6 1112.72 689.6 1104.4 653 c 2,0,0
 977.4 0 l 1,0,0
 730.74 0 l 1,0,0
 851.38 611.5 l 2,0,0
 874.74 725.96 874.74 725.96 874.74 771.55 c 0,0,0
 874.74 913.09 874.74 913.09 713.83 913.09 c 0,0,0
 641.22 913.09 641.22 913.09 575.75 873.61 c 0,0,0
 510.28 834.13 510.28 834.13 464.135 765.015 c 0,0,0
 417.99 695.9 417.99 695.9 400.68 606 c 2,0,0
 282.68 0 l 1,0,0
 34.67 0 l 1,0,0
 321.33 1484 l 1,0,0
 568.33 1484 l 1,0,0
 490.65 1085.27 l 2,0,0
 481.65 1037.95 481.65 1037.95 470.99 991.135 c 0,0,0
 460.33 944.32 460.33 944.32 449.01 897 c 1,0,0
 452.01 897 l 1,0,0
EndSplineSet
EndChar

StartChar: i
Encoding: 105 105 76
Width: 531
GlyphClass: 2
Flags: W
LayerCount: 2
Fore
SplineSet
570.01 1484 m 1,0,0
 531.32 1288.55 l 1,0,0
 283.65 1288.55 l 1,0,0
 322.34 1484 l 1,0,0
 570.01 1484 l 1,0,0
492.01 1082 m 1,0,0
 281.01 0 l 1,0,0
 34.34 0 l 1,0,0
 244.34 1082 l 1,0,0
 492.01 1082 l 1,0,0
EndSplineSet
Substitution2: "Single Substitution lookup 3 subtable" dotlessi
EndChar

StartChar: j
Encoding: 106 106 77
Width: 531
GlyphClass: 2
Flags: W
LayerCount: 2
Fore
SplineSet
570.34 1484 m 1,0,0
 532.65 1288.55 l 1,0,0
 284.98 1288.55 l 1,0,0
 322.67 1484 l 1,0,0
 570.34 1484 l 1,0,0
-69.18 -425 m 0,0,0
 -151.66 -425 -151.66 -425 -222.97 -407.65 c 1,0,0
 -191.26 -236.81 l 1,0,0
 -173.3 -238.8 -173.3 -238.8 -156.485 -240.465 c 0,0,0
 -139.67 -242.13 -139.67 -242.13 -125.01 -242.13 c 0,0,0
 -60.65 -242.13 -60.65 -242.13 -29.645 -205.155 c 0,0,0
 1.36 -168.18 1.36 -168.18 19.03 -75.51 c 2,0,0
 244.67 1082 l 1,0,0
 492.34 1082 l 1,0,0
 256.01 -129.98 l 2,0,0
 226.35 -278.6 226.35 -278.6 144.625 -351.8 c 0,0,0
 62.9 -425 62.9 -425 -69.18 -425 c 0,0,0
EndSplineSet
Substitution2: "Single Substitution lookup 3 subtable" uni0237
EndChar

StartChar: k
Encoding: 107 107 78
Width: 1101
GlyphClass: 2
Flags: W
LayerCount: 2
Fore
SplineSet
362.05 407.48 m 1,0,0
 281.34 0 l 1,0,0
 34.67 0 l 1,0,0
 322.67 1484 l 1,0,0
 570.34 1484 l 1,0,0
 399.38 611.89 l 1,0,0
 573.9 777.77 l 1,0,0
 897.38 1082 l 1,0,0
 1186.38 1082 l 1,0,0
 694.57 645.81 l 1,0,0
 989.7 0 l 1,0,0
 725.69 0 l 1,0,0
 511.29 498.65 l 1,0,0
 362.05 407.48 l 1,0,0
EndSplineSet
EndChar

StartChar: l
Encoding: 108 108 79
Width: 531
GlyphClass: 2
Flags: W
LayerCount: 2
Fore
SplineSet
570.01 1484 m 1,0,0
 281.01 0 l 1,0,0
 34.34 0 l 1,0,0
 322.34 1484 l 1,0,0
 570.01 1484 l 1,0,0
EndSplineSet
EndChar

StartChar: m
Encoding: 109 109 80
Width: 1783
GlyphClass: 2
Flags: W
LayerCount: 2
Fore
SplineSet
668.71 0 m 1,0,0
 792.04 634.67 l 2,0,0
 811.68 737.91 811.68 737.91 811.68 783.21 c 0,0,0
 811.68 848.83 811.68 848.83 778.035 881.965 c 0,0,0
 744.39 915.1 744.39 915.1 673.8 915.1 c 0,0,0
 576.56 915.1 576.56 915.1 502.12 831.845 c 0,0,0
 427.68 748.59 427.68 748.59 400.68 604 c 1,0,0
 282.68 0 l 1,0,0
 34.67 0 l 1,0,0
 200.67 851 l 2,0,0
 220.67 946 220.67 946 239.67 1082 c 1,0,0
 478.01 1082 l 1,0,0
 478.01 1075 478.01 1075 473.01 1040.5 c 0,0,0
 468.01 1006 468.01 1006 461.51 965.5 c 0,0,0
 455.01 925 455.01 925 450.01 897 c 1,0,0
 453.01 897 l 1,0,0
 528.69 1012.34 528.69 1012.34 602.86 1056.67 c 0,0,0
 677.03 1101 677.03 1101 779.03 1101 c 0,0,0
 1030.38 1101 1030.38 1101 1059.38 869 c 1,0,0
 1140.37 995.65 1140.37 995.65 1222.21 1048.325 c 0,0,0
 1304.05 1101 1304.05 1101 1411.4 1101 c 0,0,0
 1548.41 1101 1548.41 1101 1621.58 1028 c 0,0,0
 1694.75 955 1694.75 955 1694.75 817 c 0,0,0
 1694.75 754 1694.75 754 1673.75 653 c 2,0,0
 1546.08 0 l 1,0,0
 1300.41 0 l 1,0,0
 1423.07 629.31 l 2,0,0
 1443.38 729.87 1443.38 729.87 1443.38 783.21 c 0,0,0
 1442.71 848.83 1442.71 848.83 1409.065 881.965 c 0,0,0
 1375.42 915.1 1375.42 915.1 1305.5 915.1 c 0,0,0
 1206.25 915.1 1206.25 915.1 1132.98 831.335 c 0,0,0
 1059.71 747.57 1059.71 747.57 1033.05 607 c 2,0,0
 914.38 0 l 1,0,0
 668.71 0 l 1,0,0
EndSplineSet
EndChar

StartChar: n
Encoding: 110 110 81
Width: 1214
GlyphClass: 2
Flags: W
LayerCount: 2
Fore
SplineSet
401.01 606 m 2,0,0
 283.01 0 l 1,0,0
 34.67 0 l 1,0,0
 200.67 851 l 2,0,0
 209.33 893.31 209.33 893.31 218.83 950.975 c 0,0,0
 228.33 1008.64 228.33 1008.64 239 1082 c 1,0,0
 474.66 1082 l 1,0,0
 474.66 1075.67 474.66 1075.67 469.995 1038.49 c 0,0,0
 465.33 1001.31 465.33 1001.31 459.5 959.805 c 0,0,0
 453.67 918.3 453.67 918.3 449.34 897 c 1,0,0
 452.34 897 l 1,0,0
 529.98 1004.63 529.98 1004.63 618.17 1052.815 c 0,0,0
 706.36 1101 706.36 1101 822.7 1101 c 0,0,0
 973.38 1101 973.38 1101 1049.555 1028 c 0,0,0
 1125.73 955 1125.73 955 1125.73 817 c 0,0,0
 1125.73 789.69 1125.73 789.69 1119.39 739.645 c 0,0,0
 1113.05 689.6 1113.05 689.6 1104.73 653 c 2,0,0
 977.73 0 l 1,0,0
 731.07 0 l 1,0,0
 851.71 611.5 l 2,0,0
 875.07 725.96 875.07 725.96 875.07 771.55 c 0,0,0
 875.07 913.09 875.07 913.09 714.16 913.09 c 0,0,0
 641.55 913.09 641.55 913.09 576.08 873.61 c 0,0,0
 510.61 834.13 510.61 834.13 464.465 765.015 c 0,0,0
 418.32 695.9 418.32 695.9 401.01 606 c 2,0,0
EndSplineSet
EndChar

StartChar: o
Encoding: 111 111 82
Width: 1214
GlyphClass: 2
Flags: W
LayerCount: 2
Fore
SplineSet
1148.37 683 m 0,0,0
 1148.37 571.09 1148.37 571.09 1121.77 462.915 c 0,0,0
 1095.17 354.74 1095.17 354.74 1043.28 268.8 c 0,0,0
 963.59 128.92 963.59 128.92 827.785 54.46 c 0,0,0
 691.98 -20 691.98 -20 520.48 -20 c 0,0,0
 309.74 -20 309.74 -20 187.03 97.665 c 0,0,0
 64.32 215.33 64.32 215.33 64.32 419 c 1,0,0
 65.97 621.98 65.97 621.98 142.34 776.98 c 0,0,0
 219.04 932.97 219.04 932.97 358.115 1016.985 c 0,0,0
 497.19 1101 497.19 1101 683.54 1101 c 0,0,0
 910.29 1101 910.29 1101 1029.33 991.5 c 0,0,0
 1148.37 882 1148.37 882 1148.37 683 c 0,0,0
890.01 668.93 m 1,0,0
 890.01 928.8 890.01 928.8 668.81 928.8 c 0,0,0
 548.55 928.8 548.55 928.8 476.26 865.83 c 0,0,0
 428.29 823.85 428.29 823.85 393.81 750.72 c 0,0,0
 359.33 677.59 359.33 677.59 341.175 591.8 c 0,0,0
 323.02 506.01 323.02 506.01 323.02 426.05 c 0,0,0
 323.02 290.11 323.02 290.11 378.98 221.32 c 0,0,0
 434.94 152.53 434.94 152.53 544.88 152.53 c 0,0,0
 616.39 152.53 616.39 152.53 666.83 173.795 c 0,0,0
 717.27 195.06 717.27 195.06 754.89 237.91 c 0,0,0
 813.95 299.85 813.95 299.85 848.81 414.355 c 0,0,0
 883.67 528.86 883.67 528.86 890.01 668.93 c 1,0,0
EndSplineSet
EndChar

StartChar: p
Encoding: 112 112 83
Width: 1214
GlyphClass: 2
Flags: W
LayerCount: 2
Fore
SplineSet
626.36 -20 m 0,0,0
 502.02 -20 502.02 -20 424.185 32 c 0,0,0
 346.35 84 346.35 84 314.35 178 c 1,0,0
 311.36 178 l 1,0,0
 308.68 155.58 308.68 155.58 302.995 118.645 c 0,0,0
 297.31 81.71 297.31 81.71 287.28 30.59 c 0,0,0
 272.56 -47.33 272.56 -47.33 250.58 -161.395 c 0,0,0
 199.69 -425 l 1,0,0
 -46.98 -425 l 1,0,0
 198 842.24 l 2,0,0
 203 868.92 203 868.92 208.17 894.93 c 0,0,0
 213.34 920.94 213.34 920.94 217.34 947.62 c 0,0,0
 227.01 1015.31 l 0,0,0
 235.68 1082 l 1,0,0
 475.04 1082 l 1,0,0
 475.04 1070.03 475.04 1070.03 471.705 1036.525 c 0,0,0
 468.37 1003.02 468.37 1003.02 463.7 968.335 c 0,0,0
 459.03 933.65 459.03 933.65 454.02 915.64 c 1,0,0
 458.02 915.64 l 1,0,0
 530.35 1013.99 530.35 1013.99 612.355 1057.995 c 0,0,0
 694.36 1102 694.36 1102 812.69 1102 c 0,0,0
 971.03 1102 971.03 1102 1059.535 1007.5 c 0,0,0
 1148.04 913 1148.04 913 1148.04 748 c 0,0,0
 1148.04 546.01 1148.04 546.01 1086.37 355 c 0,0,0
 1024.7 163.66 1024.7 163.66 912.365 71.83 c 0,0,0
 800.03 -20 800.03 -20 626.36 -20 c 0,0,0
715.13 925.48 m 0,0,0
 598.04 925.48 598.04 925.48 524.19 853.155 c 0,0,0
 450.34 780.83 450.34 780.83 411.39 635.51 c 0,0,0
 397.48 596.92 397.48 596.92 386.88 553.745 c 0,0,0
 376.28 510.57 376.28 510.57 370.815 469.25 c 0,0,0
 365.35 427.93 365.35 427.93 365.35 393.08 c 0,0,0
 365.35 280.14 365.35 280.14 421.815 216.67 c 0,0,0
 478.28 153.2 478.28 153.2 579.22 153.2 c 0,0,0
 689.15 153.2 689.15 153.2 751.77 221.16 c 0,0,0
 783.75 255.14 783.75 255.14 808.9 312.445 c 0,0,0
 834.05 369.75 834.05 369.75 851.705 438.215 c 0,0,0
 869.36 506.68 869.36 506.68 878.52 575.815 c 0,0,0
 887.68 644.95 887.68 644.95 887.68 701.26 c 0,0,0
 887.68 812.87 887.68 812.87 846.375 869.175 c 0,0,0
 805.07 925.48 805.07 925.48 715.13 925.48 c 0,0,0
EndSplineSet
EndChar

StartChar: q
Encoding: 113 113 84
Width: 1214
GlyphClass: 2
Flags: W
LayerCount: 2
Fore
SplineSet
396.31 -21 m 0,0,0
 242.66 -21 242.66 -21 152.48 75.845 c 0,0,0
 62.3 172.69 62.3 172.69 62.3 343.05 c 0,0,0
 62.3 541.7 62.3 541.7 125.64 727 c 0,0,0
 188.98 912.64 188.98 912.64 303.33 1007.155 c 0,0,0
 417.68 1101.67 417.68 1101.67 582.64 1101.67 c 0,0,0
 710.33 1101.67 710.33 1101.67 783.475 1054.025 c 0,0,0
 856.62 1006.38 856.62 1006.38 894.65 903 c 1,0,0
 899.65 903 l 1,0,0
 908.32 942.35 908.32 942.35 916.48 978.655 c 0,0,0
 924.64 1014.96 924.64 1014.96 932.97 1043.605 c 0,0,0
 941.3 1072.25 941.3 1072.25 947.31 1086.62 c 1,0,0
 1185.3 1086.62 l 1,0,0
 1178.99 1065.04 1178.99 1065.04 1168.52 1018.34 c 0,0,0
 1158.05 971.64 1158.05 971.64 1143.75 900.16 c 0,0,0
 1116.91 763.67 1116.91 763.67 1052.22 432.215 c 0,0,0
 987.53 100.76 987.53 100.76 886.32 -425 c 1,0,0
 638.65 -425 l 1,0,0
 723.65 9.31 l 1,0,0
 758.33 162.01 l 1,0,0
 754.33 162.01 l 1,0,0
 679.99 65 679.99 65 596.645 22 c 0,0,0
 513.3 -21 513.3 -21 396.31 -21 c 0,0,0
496.55 154.18 m 0,0,0
 614.31 154.18 614.31 154.18 687.825 226.84 c 0,0,0
 761.34 299.5 761.34 299.5 798.95 445.82 c 0,0,0
 813.86 483.74 813.86 483.74 823.96 526.08 c 0,0,0
 834.06 568.42 834.06 568.42 839.19 610.575 c 0,0,0
 844.32 652.73 844.32 652.73 844.32 687.92 c 0,0,0
 844.32 806.22 844.32 806.22 794.22 867.68 c 0,0,0
 744.12 929.14 744.12 929.14 648.54 929.14 c 0,0,0
 533.91 929.14 533.91 929.14 466.93 862.5 c 0,0,0
 421.94 817.85 421.94 817.85 389.79 735.235 c 0,0,0
 357.64 652.62 357.64 652.62 340.485 557.505 c 0,0,0
 323.33 462.39 323.33 462.39 323.33 379.07 c 0,0,0
 323.33 268.8 323.33 268.8 365.975 211.49 c 0,0,0
 408.62 154.18 408.62 154.18 496.55 154.18 c 0,0,0
EndSplineSet
EndChar

StartChar: r
Encoding: 114 114 85
Width: 759
GlyphClass: 2
Flags: W
LayerCount: 2
Fore
SplineSet
802.42 881.05 m 1,0,0
 742.33 895.39 742.33 895.39 696.34 895.39 c 0,0,0
 618.3 895.39 618.3 895.39 556.635 852.93 c 0,0,0
 494.97 810.47 494.97 810.47 451.98 729.165 c 0,0,0
 408.99 647.86 408.99 647.86 386.31 530.5 c 2,0,0
 282.34 0 l 1,0,0
 34.67 0 l 1,0,0
 196 830 l 2,0,0
 202 860.98 202 860.98 207.83 891.795 c 0,0,0
 213.66 922.61 213.66 922.61 218.32 953.93 c 0,0,0
 223.99 985.61 223.99 985.61 229.16 1017.795 c 0,0,0
 234.33 1049.98 234.33 1049.98 238.33 1082 c 1,0,0
 473.99 1082 l 1,0,0
 450.34 910.99 l 1,0,0
 442.34 861 l 1,0,0
 446.34 861 l 1,0,0
 517.03 994.67 517.03 994.67 585.72 1048.335 c 0,0,0
 654.41 1102 654.41 1102 743.77 1102 c 0,0,0
 788.44 1102 788.44 1102 844.13 1088 c 1,0,0
 802.42 881.05 l 1,0,0
EndSplineSet
EndChar

StartChar: s
Encoding: 115 115 86
Width: 1101
GlyphClass: 2
Flags: W
LayerCount: 2
Fore
SplineSet
969.31 328.39 m 0,0,0
 969.31 158.35 969.31 158.35 842.295 69.175 c 0,0,0
 715.28 -20 715.28 -20 473.24 -20 c 0,0,0
 281.15 -20 281.15 -20 169.605 46.875 c 0,0,0
 58.06 113.75 58.06 113.75 17.06 255.16 c 1,0,0
 233.74 297.76 l 1,0,0
 258.7 218.47 258.7 218.47 319.155 183.16 c 0,0,0
 379.61 147.85 379.61 147.85 491.92 147.85 c 0,0,0
 736.69 147.85 736.69 147.85 736.69 301.67 c 0,0,0
 736.69 356.3 736.69 356.3 692.39 389.59 c 0,0,0
 647.09 421.21 647.09 421.21 498.5 458.14 c 0,0,0
 375.53 490.42 375.53 490.42 303.15 530.09 c 0,0,0
 223.07 574.11 223.07 574.11 186.055 634.98 c 0,0,0
 149.04 695.85 149.04 695.85 149.04 778.24 c 0,0,0
 149.04 933.29 149.04 933.29 271.405 1016.145 c 0,0,0
 393.77 1099 393.77 1099 619.51 1099 c 0,0,0
 815.94 1099 815.94 1099 916.445 1030.81 c 0,0,0
 1016.95 962.62 1016.95 962.62 1040.29 821.89 c 1,0,0
 818.33 794.21 l 1,0,0
 799.68 866.51 799.68 866.51 746.72 898.83 c 0,0,0
 693.76 931.15 693.76 931.15 602.82 931.15 c 0,0,0
 492.89 931.15 492.89 931.15 436.775 898.015 c 0,0,0
 380.66 864.88 380.66 864.88 380.66 800.92 c 0,0,0
 380.66 764.95 380.66 764.95 400.99 740.805 c 0,0,0
 421.32 716.66 421.32 716.66 459.31 698.35 c 0,0,0
 496.63 680.04 496.63 680.04 638.63 643.08 c 0,0,0
 771.99 609.11 771.99 609.11 844.03 562.08 c 0,0,0
 908.36 520.41 908.36 520.41 938.835 462.735 c 0,0,0
 969.31 405.06 969.31 405.06 969.31 328.39 c 0,0,0
EndSplineSet
EndChar

StartChar: t
Encoding: 116 116 87
Width: 644
GlyphClass: 2
Flags: W
LayerCount: 2
Fore
SplineSet
342.67 -17.32 m 0,0,0
 231.54 -17.32 231.54 -17.32 169.975 38.705 c 0,0,0
 108.41 94.73 108.41 94.73 108.41 194.81 c 0,0,0
 108.41 262.54 108.41 262.54 124.08 342.9 c 2,0,0
 234 911.47 l 1,0,0
 93.59 911.47 l 1,0,0
 126.96 1082 l 1,0,0
 277.41 1082 l 1,0,0
 403.85 1332.04 l 1,0,0
 561.37 1332.04 l 1,0,0
 513.7 1082 l 1,0,0
 715.04 1082 l 1,0,0
 683.01 911.47 l 1,0,0
 479.66 911.47 l 1,0,0
 368.73 340.17 l 2,0,0
 357.4 281.51 357.4 281.51 357.4 249.19 c 0,0,0
 357.4 203.85 357.4 203.85 380.57 181.515 c 0,0,0
 403.74 159.18 403.74 159.18 445.39 159.18 c 0,0,0
 481.04 159.18 481.04 159.18 550.75 172.51 c 1,0,0
 523.04 6.68 l 1,0,0
 436.1 -17.32 436.1 -17.32 342.67 -17.32 c 0,0,0
EndSplineSet
EndChar

StartChar: u
Encoding: 117 117 88
Width: 1214
GlyphClass: 2
Flags: W
LayerCount: 2
Fore
SplineSet
758.72 185 m 1,0,0
 680.41 75.36 680.41 75.36 592.22 28.18 c 0,0,0
 504.03 -19 504.03 -19 388.36 -19 c 0,0,0
 237.68 -19 237.68 -19 161.505 54 c 0,0,0
 85.33 127 85.33 127 85.33 265 c 0,0,0
 85.33 283.65 85.33 283.65 88.5 313.005 c 0,0,0
 91.67 342.36 91.67 342.36 96.505 374.205 c 0,0,0
 101.34 406.05 101.34 406.05 106.33 429 c 2,0,0
 233.33 1082 l 1,0,0
 479.99 1082 l 1,0,0
 359.35 470.5 l 2,0,0
 335.99 357.71 335.99 357.71 335.99 310.45 c 0,0,0
 335.99 168.91 335.99 168.91 496.9 168.91 c 0,0,0
 570.18 168.91 570.18 168.91 634.98 208.055 c 0,0,0
 699.78 247.2 699.78 247.2 746.425 316.815 c 0,0,0
 793.07 386.43 793.07 386.43 810.05 476 c 2,0,0
 928.05 1082 l 1,0,0
 1176.39 1082 l 1,0,0
 1010.39 231 l 2,0,0
 1001.73 188.69 1001.73 188.69 992.23 131.025 c 0,0,0
 982.73 73.36 982.73 73.36 972.06 0 c 1,0,0
 736.4 0 l 1,0,0
 736.4 6.66 736.4 6.66 741.065 43.675 c 0,0,0
 745.73 80.69 745.73 80.69 752.06 122.695 c 0,0,0
 758.39 164.7 758.39 164.7 761.72 185 c 1,0,0
 758.72 185 l 1,0,0
EndSplineSet
EndChar

StartChar: v
Encoding: 118 118 89
Width: 1101
GlyphClass: 2
Flags: W
LayerCount: 2
Fore
SplineSet
1195.7 1082 m 1,0,0
 584.05 0 l 1,0,0
 288.64 0 l 1,0,0
 110.66 1082 l 1,0,0
 366 1082 l 1,0,0
 446.9 444.33 l 2,0,0
 449.23 427.02 449.23 427.02 452.565 391.82 c 0,0,0
 455.9 356.62 455.9 356.62 459.735 315.58 c 0,0,0
 463.57 274.54 463.57 274.54 465.9 237.55 c 2,0,0
 469.23 185.89 l 1,0,0
 492.55 236.21 l 2,0,0
 516.89 290.58 516.89 290.58 541.23 341.775 c 0,0,0
 565.57 392.97 565.57 392.97 590.24 441.66 c 2,0,0
 928.68 1082 l 1,0,0
 1195.7 1082 l 1,0,0
EndSplineSet
EndChar

StartChar: w
Encoding: 119 119 90
Width: 1555
GlyphClass: 2
Flags: W
LayerCount: 2
Fore
SplineSet
765.35 705.85 m 2,0,0
 444.21 0 l 1,0,0
 176.58 0 l 1,0,0
 99.99 1082 l 1,0,0
 331.59 1082 l 1,0,0
 354.17 373.13 l 2,0,0
 355.5 334.85 355.5 334.85 355.825 296.74 c 0,0,0
 356.15 258.63 356.15 258.63 356.48 220.02 c 1,0,0
 376.48 267.69 376.48 267.69 395.64 315.69 c 0,0,0
 414.8 363.69 414.8 363.69 436.14 410.69 c 2,0,0
 745.65 1082 l 1,0,0
 1011.01 1082 l 1,0,0
 1053.67 410.69 l 2,0,0
 1056.67 360.71 1056.67 360.71 1057.5 313.21 c 0,0,0
 1058.33 265.71 1058.33 265.71 1059 220.02 c 1,0,0
 1070.69 247.08 1070.69 247.08 1085.835 284.04 c 0,0,0
 1120.58 367.2 l 2,0,0
 1428.41 1082 l 1,0,0
 1664.71 1082 l 1,0,0
 1161.13 0 l 1,0,0
 893.17 0 l 1,0,0
 852.15 672.54 l 1,0,0
 846.82 904.52 l 1,0,0
 824.45 844.74 824.45 844.74 803.915 794.99 c 0,0,0
 783.38 745.24 783.38 745.24 765.35 705.85 c 2,0,0
EndSplineSet
EndChar

StartChar: x
Encoding: 120 120 91
Width: 1101
GlyphClass: 2
Flags: W
LayerCount: 2
Fore
SplineSet
524.47 403.13 m 1,0,0
 179.98 0 l 1,0,0
 -87.36 0 l 1,0,0
 415.36 560.02 l 1,0,0
 141.31 1082 l 1,0,0
 399.32 1082 l 1,0,0
 578.92 710.58 l 1,0,0
 892.74 1082 l 1,0,0
 1167.08 1082 l 1,0,0
 688.7 557.33 l 1,0,0
 978.41 0 l 1,0,0
 718.06 0 l 1,0,0
 524.47 403.13 l 1,0,0
EndSplineSet
EndChar

StartChar: y
Encoding: 121 121 92
Width: 1101
GlyphClass: 2
Flags: W
LayerCount: 2
Fore
SplineSet
64.24 -425 m 0,0,0
 -23.18 -425 -23.18 -425 -95.23 -408.32 c 1,0,0
 -59.54 -232.78 l 1,0,0
 -16.23 -241.45 -16.23 -241.45 24.16 -241.45 c 0,0,0
 107.77 -241.45 107.77 -241.45 171.56 -189.51 c 0,0,0
 235.35 -137.57 235.35 -137.57 297.98 -27.63 c 2,0,0
 325.65 20.04 l 1,0,0
 112 1082 l 1,0,0
 367.36 1082 l 1,0,0
 451.89 551.67 l 2,0,0
 457.21 518.37 457.21 518.37 463.54 470.855 c 0,0,0
 469.87 423.34 469.87 423.34 475.535 374.47 c 0,0,0
 481.2 325.6 481.2 325.6 485.2 286.895 c 0,0,0
 489.2 248.19 489.2 248.19 489.2 232.85 c 1,0,0
 494.2 243.18 494.2 243.18 499.025 253.665 c 0,0,0
 509.17 275.46 l 2,0,0
 642.56 546.02 l 1,0,0
 925.32 1082 l 1,0,0
 1191.99 1082 l 1,0,0
 547.23 -38.19 l 1,0,0
 437.91 -215.77 437.91 -215.77 371.91 -284.74 c 0,0,0
 304.91 -356.04 304.91 -356.04 230.91 -390.52 c 0,0,0
 156.91 -425 156.91 -425 64.24 -425 c 0,0,0
EndSplineSet
EndChar

StartChar: z
Encoding: 122 122 93
Width: 1024
GlyphClass: 2
Flags: W
LayerCount: 2
Fore
SplineSet
875.79 183.22 m 1,0,0
 840.74 0 l 1,0,0
 -10.66 0 l 1,0,0
 22.39 178.54 l 1,0,0
 677.96 900.12 l 1,0,0
 196.38 900.12 l 1,0,0
 231.43 1082 l 1,0,0
 1005.38 1082 l 1,0,0
 971.33 902.12 l 1,0,0
 317.77 183.22 l 1,0,0
 875.79 183.22 l 1,0,0
EndSplineSet
EndChar

StartChar: braceleft
Encoding: 123 123 94
Width: 759
GlyphClass: 2
Flags: W
LayerCount: 2
Fore
SplineSet
380.74 -425 m 2,0,0
 264.38 -425 264.38 -425 196.87 -362.52 c 0,0,0
 129.36 -300.04 129.36 -300.04 129.36 -193.09 c 0,0,0
 129.36 -144.5 129.36 -144.5 140.03 -86.81 c 2,0,0
 199.38 214.26 l 2,0,0
 207.04 250.22 207.04 250.22 207.04 285.23 c 0,0,0
 207.04 364.21 207.04 364.21 159.535 402.72 c 0,0,0
 112.03 441.23 112.03 441.23 19.66 443.89 c 1,0,0
 53.37 614.44 l 1,0,0
 279.42 619.43 279.42 619.43 323.08 844.41 c 2,0,0
 391.07 1190.33 l 2,0,0
 419.74 1335.34 419.74 1335.34 500.6 1409.67 c 0,0,0
 581.46 1484 581.46 1484 731.5 1484 c 2,0,0
 906.03 1484 l 1,0,0
 872.99 1314.13 l 1,0,0
 801.28 1314.13 l 2,0,0
 716.97 1314.13 716.97 1314.13 672.155 1267.465 c 0,0,0
 627.34 1220.8 627.34 1220.8 604.68 1105.83 c 2,0,0
 541.71 780.65 l 2,0,0
 522.71 686.32 522.71 686.32 454.195 619.49 c 0,0,0
 385.68 552.66 385.68 552.66 290 532 c 1,0,0
 289.33 528.66 l 1,0,0
 361.68 510.32 361.68 510.32 404.86 459.985 c 0,0,0
 448.04 409.65 448.04 409.65 448.04 333.66 c 0,0,0
 448.04 306.66 448.04 306.66 442.71 279.35 c 2,0,0
 379.03 -49.7 l 2,0,0
 374.7 -71.69 374.7 -71.69 371.705 -98.61 c 0,0,0
 368.71 -125.53 368.71 -125.53 368.71 -142.86 c 0,0,0
 368.71 -196.85 368.71 -196.85 402.205 -225.655 c 0,0,0
 435.7 -254.46 435.7 -254.46 498.63 -254.46 c 2,0,0
 568.07 -254.46 l 1,0,0
 535.03 -425 l 1,0,0
 380.74 -425 l 2,0,0
EndSplineSet
EndChar

StartChar: bar
Encoding: 124 124 95
Width: 559
GlyphClass: 2
Flags: W
LayerCount: 2
Fore
SplineSet
428.58 1484 m 1,0,0
 428.58 -434.57 l 1,0,0
 198.26 -434.57 l 1,0,0
 198.26 1484 l 1,0,0
 428.58 1484 l 1,0,0
EndSplineSet
EndChar

StartChar: braceright
Encoding: 125 125 96
Width: 759
GlyphClass: 2
Flags: W
LayerCount: 2
Fore
SplineSet
368.97 1484.67 m 2,0,0
 485.33 1484.67 485.33 1484.67 552.84 1422.19 c 0,0,0
 620.35 1359.71 620.35 1359.71 620.35 1252.76 c 0,0,0
 620.35 1202.83 620.35 1202.83 609.68 1146.48 c 2,0,0
 550.33 845.41 l 2,0,0
 542.67 810.45 542.67 810.45 542.67 774.44 c 0,0,0
 542.67 695.46 542.67 695.46 589.17 656.95 c 0,0,0
 635.67 618.44 635.67 618.44 730.05 615.78 c 1,0,0
 696.34 445.23 l 1,0,0
 470.29 440.24 470.29 440.24 426.63 214.59 c 2,0,0
 358.64 -130.66 l 2,0,0
 328.63 -279.69 328.63 -279.69 247.1 -352.345 c 0,0,0
 165.57 -425 165.57 -425 18.21 -425 c 2,0,0
 -156.32 -425 l 1,0,0
 -123.28 -255.13 l 1,0,0
 -51.57 -255.13 l 2,0,0
 32.74 -255.13 32.74 -255.13 77.555 -208.465 c 0,0,0
 122.37 -161.8 122.37 -161.8 145.03 -46.83 c 2,0,0
 208 278.35 l 2,0,0
 227 373.35 227 373.35 295.515 440.18 c 0,0,0
 364.03 507.01 364.03 507.01 459.71 527.67 c 1,0,0
 460.38 530.34 l 1,0,0
 387.36 548.68 387.36 548.68 344.515 599.685 c 0,0,0
 301.67 650.69 301.67 650.69 301.67 726.01 c 0,0,0
 301.67 753.34 301.67 753.34 307 780.32 c 2,0,0
 370.68 1108.7 l 2,0,0
 375.68 1132.03 375.68 1132.03 378.34 1159.28 c 0,0,0
 381 1186.53 381 1186.53 381 1202.53 c 0,0,0
 381 1256.52 381 1256.52 347.505 1285.325 c 0,0,0
 314.01 1314.13 314.01 1314.13 251.08 1314.13 c 2,0,0
 181.64 1314.13 l 1,0,0
 214.68 1484.67 l 1,0,0
 368.97 1484.67 l 2,0,0
EndSplineSet
EndChar

StartChar: asciitilde
Encoding: 126 126 97
Width: 1196
GlyphClass: 2
Flags: W
LayerCount: 2
Fore
SplineSet
884.05 528.21 m 0,0,0
 811.03 528.21 811.03 528.21 738.53 549.54 c 0,0,0
 666.03 570.87 666.03 570.87 591.69 596.87 c 0,0,0
 458 643.21 458 643.21 372.01 643.21 c 0,0,0
 302.33 643.21 302.33 643.21 243.325 622.04 c 0,0,0
 184.32 600.87 184.32 600.87 119.32 555.21 c 1,0,0
 119.32 745.11 l 1,0,0
 231.66 829.11 231.66 829.11 387.68 829.11 c 0,0,0
 458.11 829.11 458.11 829.11 528.67 810.575 c 0,0,0
 599.23 792.04 599.23 792.04 670.92 767.03 c 0,0,0
 733.41 745.76 733.41 745.76 775.205 733.775 c 0,0,0
 817 721.79 817 721.79 846.86 716.95 c 0,0,0
 876.72 712.11 876.72 712.11 902.06 712.11 c 0,0,0
 1033.74 712.11 1033.74 712.11 1148.74 804.11 c 1,0,0
 1148.74 608.21 l 1,0,0
 1086.06 564.87 1086.06 564.87 1027.89 546.54 c 0,0,0
 969.72 528.21 969.72 528.21 884.05 528.21 c 0,0,0
EndSplineSet
EndChar

StartChar: exclamdown
Encoding: 161 161 99
Width: 682
GlyphClass: 2
Flags: W
LayerCount: 2
Fore
SplineSet
570.84 1082.33 m 1,0,0
 522.13 835.1 l 1,0,0
 265.15 835.1 l 1,0,0
 313.86 1082.33 l 1,0,0
 570.84 1082.33 l 1,0,0
255.86 664.56 m 1,0,0
 458.8 664.56 l 1,0,0
 296.18 -326.67 l 1,0,0
 34.52 -326.67 l 1,0,0
 255.86 664.56 l 1,0,0
EndSplineSet
EndChar

StartChar: cent
Encoding: 162 162 100
Width: 1139
GlyphClass: 2
Flags: W
LayerCount: 2
Fore
SplineSet
552.63 311.5 m 0,0,0
 642.23 311.5 642.23 311.5 702.17 365.65 c 0,0,0
 762.11 419.8 762.11 419.8 797.41 526.76 c 1,0,0
 1030.46 477.09 l 1,0,0
 976.48 313.04 976.48 313.04 864.775 229.525 c 0,0,0
 753.07 146.01 753.07 146.01 585.32 136 c 1,0,0
 553.32 -31 l 1,0,0
 403.86 -31 l 1,0,0
 436.52 142.67 l 1,0,0
 276.8 167.35 276.8 167.35 189.93 274.855 c 0,0,0
 103.06 382.36 103.06 382.36 103.06 557.03 c 0,0,0
 103.06 667.65 103.06 667.65 124.69 755.83 c 0,0,0
 148.38 856.62 148.38 856.62 186.43 938.69 c 0,0,0
 224.48 1020.76 224.48 1020.76 276.89 1080.8 c 0,0,0
 344.57 1161.4 344.57 1161.4 437.235 1205.53 c 0,0,0
 529.9 1249.66 529.9 1249.66 652.85 1255.66 c 1,0,0
 682.86 1409 l 1,0,0
 832.32 1409 l 1,0,0
 801.31 1248.99 l 1,0,0
 939.68 1227.31 939.68 1227.31 1020.885 1137.94 c 0,0,0
 1102.09 1048.57 1102.09 1048.57 1112.1 910.52 c 1,0,0
 863.41 886.86 l 1,0,0
 858.08 982.52 858.08 982.52 812.12 1032.005 c 0,0,0
 766.16 1081.49 766.16 1081.49 683.87 1081.49 c 0,0,0
 570.27 1081.49 570.27 1081.49 504.66 1010.47 c 0,0,0
 467.05 970.15 467.05 970.15 436.745 901.535 c 0,0,0
 406.44 832.92 406.44 832.92 384.43 738.91 c 0,0,0
 372.09 683.56 372.09 683.56 366.76 637.265 c 0,0,0
 361.43 590.97 361.43 590.97 361.43 556.39 c 0,0,0
 361.43 311.5 361.43 311.5 552.63 311.5 c 0,0,0
EndSplineSet
EndChar

StartChar: sterling
Encoding: 163 163 101
Width: 1139
GlyphClass: 2
Flags: W
LayerCount: 2
Fore
SplineSet
976.67 0 m 1,0,0
 -38.13 0 l 1,0,0
 -2.43 188.17 l 1,0,0
 92.56 228.81 92.56 228.81 150.055 299.27 c 0,0,0
 207.55 369.73 207.55 369.73 229.54 481 c 2,0,0
 255.53 610.93 l 1,0,0
 68.86 610.93 l 1,0,0
 98.55 767.4 l 1,0,0
 279.19 767.4 l 1,0,0
 331.51 1034 l 2,0,0
 370.84 1240.34 370.84 1240.34 481.665 1335.17 c 0,0,0
 592.49 1430 592.49 1430 786.52 1430 c 0,0,0
 953.28 1430 953.28 1430 1054.81 1356.11 c 0,0,0
 1156.34 1282.22 1156.34 1282.22 1175.32 1153.1 c 1,0,0
 957.05 1104.44 l 1,0,0
 940.4 1181.84 940.4 1181.84 894.115 1217.515 c 0,0,0
 847.83 1253.19 847.83 1253.19 776.17 1253.19 c 0,0,0
 686.29 1253.19 686.29 1253.19 637.195 1203.395 c 0,0,0
 588.1 1153.6 588.1 1153.6 566.78 1042 c 2,0,0
 512.79 767.4 l 1,0,0
 839.05 767.4 l 1,0,0
 808.69 610.93 l 1,0,0
 482.43 610.93 l 1,0,0
 455.43 478 l 2,0,0
 434.76 376.38 434.76 376.38 375.275 303.11 c 0,0,0
 315.79 229.84 315.79 229.84 222.77 191.19 c 1,0,0
 1011.7 191.19 l 1,0,0
 976.67 0 l 1,0,0
EndSplineSet
EndChar

StartChar: currency
Encoding: 164 164 102
Width: 1139
GlyphClass: 2
Flags: W
LayerCount: 2
Fore
SplineSet
154.28 684 m 0,0,0
 154.28 810.61 154.28 810.61 220.22 915.23 c 1,0,0
 98.11 1037.34 l 1,0,0
 237.62 1175.85 l 1,0,0
 358.06 1053.41 l 1,0,0
 463.02 1120 463.02 1120 589.28 1120 c 0,0,0
 715.23 1120 715.23 1120 818.84 1054.07 c 1,0,0
 941.3 1176.53 l 1,0,0
 1081.48 1036.02 l 1,0,0
 958.68 913.89 l 1,0,0
 1025.28 808.62 1025.28 808.62 1025.28 684 c 0,0,0
 1025.28 558.4 1025.28 558.4 959.36 455.45 c 1,0,0
 1082.14 333.34 l 1,0,0
 942.62 191.49 l 1,0,0
 820.18 315.27 l 1,0,0
 714.89 250 714.89 250 589.28 250 c 0,0,0
 460.68 250 460.68 250 358.72 314.59 c 1,0,0
 233.62 188.15 l 1,0,0
 94.77 328.66 l 1,0,0
 218.88 454.11 l 1,0,0
 154.28 557.39 154.28 557.39 154.28 684 c 0,0,0
356.52 686 m 0,0,0
 356.52 622.73 356.52 622.73 387.82 569.95 c 0,0,0
 419.12 517.17 419.12 517.17 471.9 485.37 c 0,0,0
 524.68 453.57 524.68 453.57 589.28 453.57 c 0,0,0
 652.55 453.57 652.55 453.57 704.995 485.04 c 0,0,0
 757.44 516.51 757.44 516.51 789.24 569.625 c 0,0,0
 821.04 622.74 821.04 622.74 821.04 686 c 0,0,0
 821.04 750.6 821.04 750.6 789.74 803.045 c 0,0,0
 758.44 855.49 758.44 855.49 705.995 887.125 c 0,0,0
 653.55 918.76 653.55 918.76 589.28 918.76 c 0,0,0
 525.35 918.76 525.35 918.76 472.57 887.295 c 0,0,0
 419.79 855.83 419.79 855.83 388.155 802.885 c 0,0,0
 356.52 749.94 356.52 749.94 356.52 686 c 0,0,0
EndSplineSet
EndChar

StartChar: yen
Encoding: 165 165 103
Width: 1139
GlyphClass: 2
Flags: W
LayerCount: 2
Fore
SplineSet
632.81 258.11 m 1,0,0
 582.52 0 l 1,0,0
 341.54 0 l 1,0,0
 391.83 258.11 l 1,0,0
 40.98 258.11 l 1,0,0
 67.99 398.51 l 1,0,0
 419.51 398.51 l 1,0,0
 451.51 557.87 l 1,0,0
 99.33 557.87 l 1,0,0
 126.01 696.94 l 1,0,0
 416.53 696.94 l 1,0,0
 172.4 1409 l 1,0,0
 426.37 1409 l 1,0,0
 610.73 796.17 l 1,0,0
 1037.03 1409 l 1,0,0
 1301.66 1409 l 1,0,0
 779.84 696.94 l 1,0,0
 1070.69 696.94 l 1,0,0
 1044.01 557.87 l 1,0,0
 691.16 557.87 l 1,0,0
 659.82 398.51 l 1,0,0
 1012.67 398.51 l 1,0,0
 985.66 258.11 l 1,0,0
 632.81 258.11 l 1,0,0
EndSplineSet
EndChar

StartChar: brokenbar
Encoding: 166 166 104
Width: 559
GlyphClass: 2
Flags: W
LayerCount: 2
Fore
SplineSet
429.25 1484.33 m 1,0,0
 429.25 726.43 l 1,0,0
 198.93 726.43 l 1,0,0
 198.93 1484.33 l 1,0,0
 429.25 1484.33 l 1,0,0
429.25 324 m 1,0,0
 429.25 -434.9 l 1,0,0
 198.93 -434.9 l 1,0,0
 198.93 324 l 1,0,0
 429.25 324 l 1,0,0
EndSplineSet
EndChar

StartChar: section
Encoding: 167 167 105
Width: 1139
GlyphClass: 2
Flags: W
LayerCount: 2
Fore
SplineSet
1056.23 669.65 m 0,0,0
 1056.23 557.65 1056.23 557.65 994.765 485.31 c 0,0,0
 933.3 412.97 933.3 412.97 798.98 374.6 c 1,0,0
 930.98 297.96 930.98 297.96 930.98 149.59 c 0,0,0
 930.98 -25.81 930.98 -25.81 797.265 -118 c 0,0,0
 663.55 -210.19 663.55 -210.19 411.14 -210.19 c 0,0,0
 207.31 -210.19 207.31 -210.19 96.94 -144.32 c 0,0,0
 -13.43 -78.45 -13.43 -78.45 -39.36 62.96 c 1,0,0
 172.63 106.23 l 1,0,0
 192.9 21.58 192.9 21.58 254.695 -15.74 c 0,0,0
 316.49 -53.06 316.49 -53.06 426.12 -53.06 c 0,0,0
 564.43 -53.06 564.43 -53.06 636.42 -10.255 c 0,0,0
 708.41 32.55 708.41 32.55 708.41 112.82 c 0,0,0
 708.41 155.54 708.41 155.54 687.205 185.055 c 0,0,0
 666 214.57 666 214.57 625.93 235.9 c 0,0,0
 578.28 263.83 578.28 263.83 419.63 304.45 c 0,0,0
 97.31 385.02 97.31 385.02 97.31 614.04 c 0,0,0
 97.31 827.66 97.31 827.66 369.96 892.68 c 1,0,0
 228.59 973.99 228.59 973.99 228.59 1127.06 c 0,0,0
 228.59 1285.46 228.59 1285.46 349.61 1365.635 c 0,0,0
 470.63 1445.81 470.63 1445.81 710.41 1445.81 c 0,0,0
 904.18 1445.81 904.18 1445.81 1009.72 1377.955 c 0,0,0
 1115.26 1310.1 1115.26 1310.1 1127.21 1178.08 c 1,0,0
 909.94 1153.08 l 1,0,0
 895.3 1223.06 895.3 1223.06 838.475 1255.87 c 0,0,0
 781.65 1288.68 781.65 1288.68 694.03 1288.68 c 0,0,0
 452.17 1288.68 452.17 1288.68 452.17 1145.78 c 0,0,0
 452.17 1103.17 452.17 1103.17 487.41 1069.22 c 0,0,0
 516.09 1039.85 516.09 1039.85 570.265 1018.525 c 0,0,0
 624.44 997.2 624.44 997.2 708.14 974.88 c 0,0,0
 888.13 928.6 888.13 928.6 972.18 853.12 c 0,0,0
 1056.23 777.64 1056.23 777.64 1056.23 669.65 c 0,0,0
322.9 646.46 m 0,0,0
 322.9 603.14 322.9 603.14 348.56 570.67 c 0,0,0
 374.22 538.2 374.22 538.2 423.16 512.91 c 0,0,0
 470.43 487.95 470.43 487.95 583.5 458.62 c 1,0,0
 701.43 466.3 701.43 466.3 766.54 507.42 c 0,0,0
 831.65 548.54 831.65 548.54 831.65 619.12 c 0,0,0
 831.65 659.4 831.65 659.4 813.2 689.865 c 0,0,0
 794.75 720.33 794.75 720.33 758.84 743.3 c 0,0,0
 704.5 778 704.5 778 558.46 814.98 c 1,0,0
 450.84 808.98 450.84 808.98 386.87 765.03 c 0,0,0
 322.9 721.08 322.9 721.08 322.9 646.46 c 0,0,0
EndSplineSet
EndChar

StartChar: dieresis
Encoding: 168 168 106
Width: 682
GlyphClass: 2
Flags: W
LayerCount: 2
Fore
SplineSet
795.33 1413.05 m 1,0,0
 754.97 1205.6 l 1,0,0
 552.49 1205.6 l 1,0,0
 592.85 1413.05 l 1,0,0
 795.33 1413.05 l 1,0,0
376.48 1413.05 m 1,0,0
 336.12 1205.6 l 1,0,0
 135.66 1205.6 l 1,0,0
 175.35 1413.05 l 1,0,0
 376.48 1413.05 l 1,0,0
EndSplineSet
EndChar

StartChar: copyright
Encoding: 169 169 107
Width: 1509
GlyphClass: 2
Flags: W
LayerCount: 2
Fore
SplineSet
1508.33 707 m 0,0,0
 1508.33 514 1508.33 514 1412.33 346 c 0,0,0
 1315.33 177 1315.33 177 1146.83 80.5 c 0,0,0
 978.33 -16 978.33 -16 785.33 -16 c 0,0,0
 589.33 -16 589.33 -16 419.33 85 c 0,0,0
 250.33 186 250.33 186 156.33 352 c 0,0,0
 62.33 518 62.33 518 62.33 707 c 0,0,0
 62.33 901 62.33 901 159.33 1068 c 0,0,0
 256.33 1236 256.33 1236 424.33 1333 c 0,0,0
 592.33 1430 592.33 1430 785.33 1430 c 0,0,0
 979.33 1430 979.33 1430 1148.33 1333 c 0,0,0
 1316.33 1236 1316.33 1236 1412.33 1068.5 c 0,0,0
 1508.33 901 1508.33 901 1508.33 707 c 0,0,0
1402.93 707 m 0,0,0
 1402.93 872.65 1402.93 872.65 1320.27 1014.3 c 0,0,0
 1237.28 1156.28 1237.28 1156.28 1093.795 1238.94 c 0,0,0
 950.31 1321.6 950.31 1321.6 785.33 1321.6 c 0,0,0
 624.7 1321.6 624.7 1321.6 482.72 1241.62 c 0,0,0
 340.74 1161.31 340.74 1161.31 255.735 1018.325 c 0,0,0
 170.73 875.34 170.73 875.34 170.73 707 c 0,0,0
 170.73 541.69 170.73 541.69 253.72 398.7 c 0,0,0
 335.71 255.38 335.71 255.38 477.695 172.72 c 0,0,0
 619.68 90.06 619.68 90.06 785.33 90.06 c 0,0,0
 951.64 90.06 951.64 90.06 1094.96 173.05 c 0,0,0
 1238.28 255.71 1238.28 255.71 1320.605 398.865 c 0,0,0
 1402.93 542.02 1402.93 542.02 1402.93 707 c 0,0,0
797.67 283.02 m 0,0,0
 606.32 283.02 606.32 283.02 501.315 394.68 c 0,0,0
 396.31 506.34 396.31 506.34 396.31 709 c 0,0,0
 396.31 912 396.31 912 497.65 1019.485 c 0,0,0
 598.99 1126.97 598.99 1126.97 789.33 1126.97 c 0,0,0
 1043.38 1126.97 1043.38 1126.97 1138.04 904.57 c 1,0,0
 995.9 866.21 l 1,0,0
 967.92 929.85 967.92 929.85 916.285 963.85 c 0,0,0
 864.65 997.85 864.65 997.85 793.34 997.85 c 0,0,0
 678.4 997.85 678.4 997.85 618.94 924.385 c 0,0,0
 559.48 850.92 559.48 850.92 559.48 709 c 0,0,0
 559.48 567.4 559.48 567.4 622.44 489.605 c 0,0,0
 685.4 411.81 685.4 411.81 797.67 411.81 c 0,0,0
 941.61 411.81 941.61 411.81 1005.88 559.1 c 1,0,0
 1151.03 516.06 l 1,0,0
 1091.71 392.38 1091.71 392.38 1005.535 337.7 c 0,0,0
 919.36 283.02 919.36 283.02 797.67 283.02 c 0,0,0
EndSplineSet
EndChar

StartChar: ordfeminine
Encoding: 170 170 108
Width: 758
GlyphClass: 2
Flags: W
LayerCount: 2
Fore
SplineSet
693.52 683.8 m 0,0,0
 627.52 683.8 627.52 683.8 592.02 710.955 c 0,0,0
 556.52 738.11 556.52 738.11 556.52 785.1 c 1,0,0
 559.85 825.77 l 1,0,0
 556.52 825.77 l 1,0,0
 497.22 739.43 497.22 739.43 440.26 707.945 c 0,0,0
 383.3 676.46 383.3 676.46 306.31 676.46 c 0,0,0
 213.35 676.46 213.35 676.46 156.2 731.12 c 0,0,0
 99.05 785.78 99.05 785.78 99.05 875.42 c 0,0,0
 99.05 995.06 99.05 995.06 184.69 1057.555 c 0,0,0
 270.33 1120.05 270.33 1120.05 455.68 1122.72 c 2,0,0
 597.16 1125.38 l 1,0,0
 612.48 1201.98 612.48 1201.98 612.48 1220.96 c 0,0,0
 612.48 1309.56 612.48 1309.56 515.63 1309.56 c 0,0,0
 450.35 1309.56 450.35 1309.56 415.07 1283.095 c 0,0,0
 379.79 1256.63 379.79 1256.63 366.47 1204.04 c 1,0,0
 208.34 1222.38 l 1,0,0
 231.31 1317.64 231.31 1317.64 307.125 1370.13 c 0,0,0
 382.94 1422.62 382.94 1422.62 518.3 1422.62 c 0,0,0
 650.66 1422.62 650.66 1422.62 715.47 1373.81 c 0,0,0
 780.28 1325 780.28 1325 780.28 1228.98 c 0,0,0
 780.28 1211.32 780.28 1211.32 777.11 1190.655 c 0,0,0
 773.94 1169.99 773.94 1169.99 768.94 1148.33 c 2,0,0
 717.28 888.07 l 2,0,0
 715.62 874.75 715.62 874.75 714.455 862.755 c 0,0,0
 713.29 850.76 713.29 850.76 711.95 839.09 c 0,0,0
 711.95 792.13 711.95 792.13 762.63 792.13 c 0,0,0
 779.96 792.13 779.96 792.13 804.62 798.79 c 1,0,0
 792.97 696.13 l 1,0,0
 758.31 683.8 758.31 683.8 693.52 683.8 c 0,0,0
279.85 897.83 m 0,0,0
 279.85 848.15 279.85 848.15 306.505 823.165 c 0,0,0
 333.16 798.18 333.16 798.18 375.45 798.18 c 0,0,0
 418.7 798.18 418.7 798.18 457.295 820.145 c 0,0,0
 495.89 842.11 495.89 842.11 524.345 881.065 c 0,0,0
 552.8 920.02 552.8 920.02 564.47 969.99 c 2,0,0
 578.49 1027.35 l 1,0,0
 466.96 1024.69 l 2,0,0
 374.78 1022.36 374.78 1022.36 327.315 990.56 c 0,0,0
 279.85 958.76 279.85 958.76 279.85 897.83 c 0,0,0
EndSplineSet
EndChar

StartChar: guillemotleft
Encoding: 171 171 109
Width: 1139
GlyphClass: 2
Flags: W
LayerCount: 2
Fore
SplineSet
966.92 173.38 m 1,0,0
 961.92 139.66 l 1,0,0
 753.68 139.66 l 1,0,0
 536.93 501.98 l 1,0,0
 550.27 570.34 l 1,0,0
 901.98 938.66 l 1,0,0
 1114.25 938.66 l 1,0,0
 1108.25 898.98 l 1,0,0
 752.52 531 l 1,0,0
 966.92 173.38 l 1,0,0
502.32 173.05 m 1,0,0
 497.32 139.66 l 1,0,0
 289.41 139.66 l 1,0,0
 73.32 501.98 l 1,0,0
 86.66 570.34 l 1,0,0
 437.71 938.66 l 1,0,0
 649.65 938.66 l 1,0,0
 643.65 898.65 l 1,0,0
 288.91 530.67 l 1,0,0
 502.32 173.05 l 1,0,0
EndSplineSet
EndChar

StartChar: logicalnot
Encoding: 172 172 110
Width: 1196
GlyphClass: 2
Flags: W
LayerCount: 2
Fore
SplineSet
1099.69 780.13 m 1,0,0
 1099.69 153.87 l 1,0,0
 901.76 153.87 l 1,0,0
 901.76 581.87 l 1,0,0
 83.25 581.87 l 1,0,0
 83.25 780.13 l 1,0,0
 1099.69 780.13 l 1,0,0
EndSplineSet
EndChar

StartChar: registered
Encoding: 174 174 111
Width: 1509
GlyphClass: 2
Flags: W
LayerCount: 2
Fore
SplineSet
1508.33 707 m 0,0,0
 1508.33 514 1508.33 514 1412.33 346 c 0,0,0
 1315.33 177 1315.33 177 1146.83 80.5 c 0,0,0
 978.33 -16 978.33 -16 785.33 -16 c 0,0,0
 589.33 -16 589.33 -16 419.33 85 c 0,0,0
 250.33 186 250.33 186 156.33 352 c 0,0,0
 62.33 518 62.33 518 62.33 707 c 0,0,0
 62.33 901 62.33 901 159.33 1068 c 0,0,0
 256.33 1236 256.33 1236 424.33 1333 c 0,0,0
 592.33 1430 592.33 1430 785.33 1430 c 0,0,0
 979.33 1430 979.33 1430 1148.33 1333 c 0,0,0
 1316.33 1236 1316.33 1236 1412.33 1068.5 c 0,0,0
 1508.33 901 1508.33 901 1508.33 707 c 0,0,0
1402.93 707 m 0,0,0
 1402.93 872.65 1402.93 872.65 1320.27 1014.3 c 0,0,0
 1237.28 1156.28 1237.28 1156.28 1093.795 1238.94 c 0,0,0
 950.31 1321.6 950.31 1321.6 785.33 1321.6 c 0,0,0
 624.7 1321.6 624.7 1321.6 482.72 1241.62 c 0,0,0
 340.74 1161.31 340.74 1161.31 255.735 1018.325 c 0,0,0
 170.73 875.34 170.73 875.34 170.73 707 c 0,0,0
 170.73 541.69 170.73 541.69 253.72 398.7 c 0,0,0
 335.71 255.38 335.71 255.38 477.695 172.72 c 0,0,0
 619.68 90.06 619.68 90.06 785.33 90.06 c 0,0,0
 951.64 90.06 951.64 90.06 1094.96 173.05 c 0,0,0
 1238.28 255.71 1238.28 255.71 1320.605 398.865 c 0,0,0
 1402.93 542.02 1402.93 542.02 1402.93 707 c 0,0,0
647.77 614.95 m 1,0,0
 647.77 294.36 l 1,0,0
 486.6 294.36 l 1,0,0
 486.6 1114.64 l 1,0,0
 809.01 1114.64 l 2,0,0
 958.38 1114.64 958.38 1114.64 1034.215 1050.635 c 0,0,0
 1110.05 986.63 1110.05 986.63 1110.05 874.29 c 0,0,0
 1110.05 777.65 1110.05 777.65 1060.73 717.825 c 0,0,0
 1011.41 658 1011.41 658 931.1 634.98 c 1,0,0
 1146.74 294.36 l 1,0,0
 964.22 294.36 l 1,0,0
 779.29 614.95 l 1,0,0
 647.77 614.95 l 1,0,0
947.54 872.29 m 0,0,0
 947.54 933.25 947.54 933.25 906.74 965.23 c 0,0,0
 865.94 997.21 865.94 997.21 792.98 997.21 c 2,0,0
 647.77 997.21 l 1,0,0
 647.77 733.06 l 1,0,0
 804.31 733.06 l 2,0,0
 874.93 733.06 874.93 733.06 911.235 770.87 c 0,0,0
 947.54 808.68 947.54 808.68 947.54 872.29 c 0,0,0
EndSplineSet
EndChar

StartChar: macron
Encoding: 175 175 112
Width: 1131
GlyphClass: 2
Flags: W
LayerCount: 2
Fore
SplineSet
1148 1570.42 m 1,0,0
 1148 1468.83 l 1,0,0
 -17 1468.83 l 1,0,0
 -17 1570.42 l 1,0,0
 1148 1570.42 l 1,0,0
EndSplineSet
EndChar

StartChar: degree
Encoding: 176 176 113
Width: 819
GlyphClass: 2
Flags: W
LayerCount: 2
Fore
SplineSet
810.2 1121.55 m 0,0,0
 810.2 1037.19 810.2 1037.19 768.52 967.835 c 0,0,0
 726.84 898.48 726.84 898.48 656.815 857.465 c 0,0,0
 586.79 816.45 586.79 816.45 500.42 816.45 c 0,0,0
 415.72 816.45 415.72 816.45 345.53 857.46 c 0,0,0
 275.34 898.47 275.34 898.47 233.325 967.66 c 0,0,0
 191.31 1036.85 191.31 1036.85 191.31 1122.22 c 0,0,0
 191.31 1206.92 191.31 1206.92 232.825 1275.94 c 0,0,0
 274.34 1344.96 274.34 1344.96 344.7 1385.805 c 0,0,0
 415.06 1426.65 415.06 1426.65 500.42 1426.65 c 0,0,0
 587.12 1426.65 587.12 1426.65 657.145 1385.635 c 0,0,0
 727.17 1344.62 727.17 1344.62 768.685 1275.43 c 0,0,0
 810.2 1206.24 810.2 1206.24 810.2 1121.55 c 0,0,0
668.37 1121.55 m 0,0,0
 668.37 1193.53 668.37 1193.53 620.22 1242.85 c 0,0,0
 572.07 1292.17 572.07 1292.17 500.42 1292.17 c 0,0,0
 428.1 1292.17 428.1 1292.17 379.28 1242.185 c 0,0,0
 330.46 1192.2 330.46 1192.2 330.46 1121.55 c 0,0,0
 330.46 1050.9 330.46 1050.9 380.615 1000.245 c 0,0,0
 430.77 949.59 430.77 949.59 500.42 949.59 c 0,0,0
 569.73 949.59 569.73 949.59 619.05 999.745 c 0,0,0
 668.37 1049.9 668.37 1049.9 668.37 1121.55 c 0,0,0
EndSplineSet
EndChar

StartChar: plusminus
Encoding: 177 177 114
Width: 1124
GlyphClass: 2
Flags: W
LayerCount: 2
Fore
SplineSet
686.92 698.09 m 1,0,0
 686.92 339.27 l 1,0,0
 488.33 339.27 l 1,0,0
 488.33 698.09 l 1,0,0
 79.74 698.09 l 1,0,0
 79.74 895.35 l 1,0,0
 488.33 895.35 l 1,0,0
 488.33 1253.17 l 1,0,0
 686.92 1253.17 l 1,0,0
 686.92 895.35 l 1,0,0
 1096.18 895.35 l 1,0,0
 1096.18 698.09 l 1,0,0
 686.92 698.09 l 1,0,0
1096.18 197.26 m 1,0,0
 1096.18 0 l 1,0,0
 79.74 0 l 1,0,0
 79.74 197.26 l 1,0,0
 1096.18 197.26 l 1,0,0
EndSplineSet
EndChar

StartChar: uni00B2
Encoding: 178 178 115
Width: 682
GlyphClass: 2
Flags: W
LayerCount: 2
Fore
SplineSet
57.47 652.11 m 1,0,0
 79.49 766.5 l 1,0,0
 107.82 812.16 107.82 812.16 148.49 851.82 c 0,0,0
 173.82 876.48 173.82 876.48 203.165 899.645 c 0,0,0
 232.51 922.81 232.51 922.81 271.995 948.295 c 0,0,0
 311.48 973.78 311.48 973.78 365.74 1005.4 c 0,0,0
 446.14 1050.57 446.14 1050.57 483.47 1080.22 c 0,0,0
 525.14 1112.88 525.14 1112.88 544.13 1145.69 c 0,0,0
 563.12 1178.5 563.12 1178.5 563.12 1218.13 c 0,0,0
 563.12 1254.39 563.12 1254.39 537.16 1279.335 c 0,0,0
 511.2 1304.28 511.2 1304.28 466.3 1304.28 c 0,0,0
 413.72 1304.28 413.72 1304.28 378.125 1275.33 c 0,0,0
 342.53 1246.38 342.53 1246.38 329.2 1192.76 c 1,0,0
 179.41 1220.49 l 1,0,0
 209.75 1324.44 209.75 1324.44 282.545 1374.395 c 0,0,0
 355.34 1424.35 355.34 1424.35 479.33 1424.35 c 0,0,0
 595.65 1424.35 595.65 1424.35 663.465 1370.715 c 0,0,0
 731.28 1317.08 731.28 1317.08 731.28 1228.11 c 0,0,0
 731.28 1171.4 731.28 1171.4 708.92 1127.74 c 0,0,0
 687.55 1085.38 687.55 1085.38 653.505 1051.54 c 0,0,0
 619.46 1017.7 619.46 1017.7 576.41 989.71 c 0,0,0
 551.42 973.41 551.42 973.41 519.175 953.645 c 0,0,0
 486.93 933.88 486.93 933.88 447.1 911.65 c 0,0,0
 384.27 876.42 384.27 876.42 341.475 847.3 c 0,0,0
 298.68 818.18 298.68 818.18 275.36 785.21 c 1,0,0
 657.03 785.21 l 1,0,0
 633.68 652.11 l 1,0,0
 57.47 652.11 l 1,0,0
EndSplineSet
EndChar

StartChar: uni00B3
Encoding: 179 179 116
Width: 682
GlyphClass: 2
Flags: W
LayerCount: 2
Fore
SplineSet
338.03 1100.59 m 1,0,0
 397.04 1100.59 l 2,0,0
 470.59 1100.59 470.59 1100.59 513.21 1131.035 c 0,0,0
 555.83 1161.48 555.83 1161.48 555.83 1215.39 c 0,0,0
 555.83 1258.7 555.83 1258.7 530.87 1283.165 c 0,0,0
 505.91 1307.63 505.91 1307.63 459.63 1307.63 c 0,0,0
 407.04 1307.63 407.04 1307.63 371.94 1280.335 c 0,0,0
 336.84 1253.04 336.84 1253.04 321.86 1200.1 c 1,0,0
 171.4 1224.43 l 1,0,0
 200.04 1325.73 200.04 1325.73 273.175 1375.04 c 0,0,0
 346.31 1424.35 346.31 1424.35 476.33 1424.35 c 0,0,0
 592.02 1424.35 592.02 1424.35 659.34 1375.89 c 0,0,0
 726.66 1327.43 726.66 1327.43 726.66 1237.43 c 0,0,0
 726.66 1160.49 726.66 1160.49 674.84 1107.84 c 0,0,0
 623.02 1055.19 623.02 1055.19 532.11 1043.24 c 1,0,0
 531.44 1041.24 l 1,0,0
 598.41 1028.91 598.41 1028.91 639.39 987.44 c 0,0,0
 680.37 945.97 680.37 945.97 680.37 881.32 c 0,0,0
 680.37 773.72 680.37 773.72 594.05 708.255 c 0,0,0
 507.73 642.79 507.73 642.79 362.73 642.79 c 0,0,0
 111.78 642.79 111.78 642.79 81.81 852 c 1,0,0
 245.65 874.03 l 1,0,0
 253.98 817.44 253.98 817.44 287.085 788.48 c 0,0,0
 320.19 759.52 320.19 759.52 375.43 759.52 c 0,0,0
 434.63 759.52 434.63 759.52 472.08 791.96 c 0,0,0
 509.53 824.4 509.53 824.4 509.53 883.65 c 0,0,0
 509.53 930.28 509.53 930.28 476.585 955.24 c 0,0,0
 443.64 980.2 443.64 980.2 380.71 980.2 c 2,0,0
 315.02 980.2 l 1,0,0
 338.03 1100.59 l 1,0,0
EndSplineSet
EndChar

StartChar: acute
Encoding: 180 180 117
Width: 682
GlyphClass: 2
Flags: W
LayerCount: 2
Fore
SplineSet
732.78 1465.6 m 1,0,0
 357.44 1188.94 l 1,0,0
 228.6 1188.94 l 1,0,0
 233.61 1216.31 l 1,0,0
 482.59 1503.98 l 1,0,0
 739.79 1503.98 l 1,0,0
 732.78 1465.6 l 1,0,0
EndSplineSet
EndChar

StartChar: mu
Encoding: 181 181 118
Width: 1180
GlyphClass: 2
Flags: W
LayerCount: 2
Fore
SplineSet
288.51 -44.67 m 1,0,0
 215.18 -425 l 1,0,0
 -31.82 -425 l 1,0,0
 259.84 1082 l 1,0,0
 507.84 1082 l 1,0,0
 384.56 450.27 l 2,0,0
 379.56 420.28 379.56 420.28 376.225 391.93 c 0,0,0
 372.89 363.58 372.89 363.58 372.22 337.21 c 0,0,0
 372.22 168.58 372.22 168.58 509.43 168.58 c 0,0,0
 600.66 168.58 600.66 168.58 668.085 253.53 c 0,0,0
 735.51 338.48 735.51 338.48 762.17 493.44 c 2,0,0
 876.15 1082 l 1,0,0
 1123.82 1082 l 1,0,0
 973.52 308.5 l 2,0,0
 964.52 265.15 964.52 265.15 964.52 237.89 c 0,0,0
 964.52 167.9 964.52 167.9 1016.83 167.9 c 0,0,0
 1036.88 167.9 1036.88 167.9 1066.13 175.23 c 1,0,0
 1048.15 3.35 l 1,0,0
 954.05 -20 954.05 -20 881.6 -20 c 0,0,0
 800.53 -20 800.53 -20 764.34 14.645 c 0,0,0
 728.15 49.29 728.15 49.29 726.5 125.3 c 2,0,0
 727.51 165.65 l 1,0,0
 724.17 165.65 l 1,0,0
 674.91 76.34 674.91 76.34 613.825 28.17 c 0,0,0
 552.74 -20 552.74 -20 468.77 -20 c 0,0,0
 408.78 -20 408.78 -20 368.135 3.345 c 0,0,0
 327.49 26.69 327.49 26.69 309.85 66.37 c 1,0,0
 305.83 66.37 l 1,0,0
 288.51 -44.67 l 1,0,0
EndSplineSet
EndChar

StartChar: paragraph
Encoding: 182 182 119
Width: 1126
GlyphClass: 2
Flags: W
LayerCount: 2
Fore
SplineSet
622.35 1279.53 m 1,0,0
 622.35 -264 l 1,0,0
 481.21 -264 l 1,0,0
 481.21 694 l 1,0,0
 312.54 694 312.54 694 215.54 786.5 c 0,0,0
 118.54 879 118.54 879 118.54 1049 c 0,0,0
 118.54 1218 118.54 1218 217.04 1313.5 c 0,0,0
 315.54 1409 315.54 1409 489.21 1409 c 2,0,0
 1096.43 1409 l 1,0,0
 1096.43 1279.53 l 1,0,0
 966.09 1279.53 l 1,0,0
 966.09 -264 l 1,0,0
 824.61 -264 l 1,0,0
 824.61 1279.53 l 1,0,0
 622.35 1279.53 l 1,0,0
EndSplineSet
EndChar

StartChar: periodcentered
Encoding: 183 183 120
Width: 682
GlyphClass: 2
Flags: W
LayerCount: 2
Fore
SplineSet
510.59 779.9 m 1,0,0
 456.87 502.95 l 1,0,0
 199.56 502.95 l 1,0,0
 253.28 779.9 l 1,0,0
 510.59 779.9 l 1,0,0
EndSplineSet
EndChar

StartChar: cedilla
Encoding: 184 184 121
Width: 682
GlyphClass: 2
Flags: W
LayerCount: 2
Fore
SplineSet
360.88 -87.29 m 1,0,0
 434.51 -89.61 434.51 -89.61 477.02 -123.265 c 0,0,0
 519.53 -156.92 519.53 -156.92 519.53 -220.61 c 0,0,0
 519.53 -317.61 519.53 -317.61 438.335 -371.305 c 0,0,0
 357.14 -425 357.14 -425 188.39 -425 c 0,0,0
 163.39 -425 163.39 -425 136.89 -423.5 c 0,0,0
 110.39 -422 110.39 -422 82.39 -418.67 c 1,0,0
 108.75 -310.25 l 1,0,0
 150.72 -316.92 150.72 -316.92 192.73 -316.92 c 0,0,0
 277.03 -316.92 277.03 -316.92 314.195 -297.935 c 0,0,0
 351.36 -278.95 351.36 -278.95 351.36 -235.96 c 0,0,0
 351.36 -169.99 351.36 -169.99 238.39 -169.99 c 0,0,0
 222.42 -170.66 222.42 -170.66 208.925 -170.825 c 0,0,0
 195.43 -170.99 195.43 -170.99 183.74 -171.99 c 1,0,0
 282.73 0 l 1,0,0
 412.51 0 l 1,0,0
 360.88 -87.29 l 1,0,0
EndSplineSet
EndChar

StartChar: uni00B9
Encoding: 185 185 122
Width: 682
GlyphClass: 2
Flags: W
LayerCount: 2
Fore
SplineSet
650.73 766.48 m 1,0,0
 628.39 650.1 l 1,0,0
 85.79 650.1 l 1,0,0
 107.8 766.48 l 1,0,0
 300.71 766.48 l 1,0,0
 400.62 1281.01 l 1,0,0
 195.07 1163.11 l 1,0,0
 219.73 1288.08 l 1,0,0
 433.28 1411.68 l 1,0,0
 591.12 1411.68 l 1,0,0
 465.88 766.48 l 1,0,0
 650.73 766.48 l 1,0,0
EndSplineSet
EndChar

StartChar: ordmasculine
Encoding: 186 186 123
Width: 748
GlyphClass: 2
Flags: W
LayerCount: 2
Fore
SplineSet
407.02 676.46 m 0,0,0
 264.03 676.46 264.03 676.46 182.85 754.96 c 0,0,0
 101.67 833.46 101.67 833.46 101.67 970.1 c 0,0,0
 101.67 1033.44 101.67 1033.44 115.34 1096.09 c 0,0,0
 148.67 1250.98 148.67 1250.98 253.185 1336.8 c 0,0,0
 357.7 1422.62 357.7 1422.62 516.65 1422.62 c 0,0,0
 667.01 1422.62 667.01 1422.62 746.515 1347.47 c 0,0,0
 826.02 1272.32 826.02 1272.32 826.02 1139.03 c 0,0,0
 826.02 1079.04 826.02 1079.04 815.03 1024.43 c 0,0,0
 784.38 860.83 784.38 860.83 677.185 768.645 c 0,0,0
 569.99 676.46 569.99 676.46 407.02 676.46 c 0,0,0
504.96 1294.85 m 0,0,0
 423.69 1294.85 423.69 1294.85 375.39 1247.85 c 0,0,0
 346.09 1219.87 346.09 1219.87 326.12 1175.105 c 0,0,0
 306.15 1130.34 306.15 1130.34 296.505 1077.575 c 0,0,0
 286.86 1024.81 286.86 1024.81 286.86 970.83 c 0,0,0
 286.86 803.56 286.86 803.56 422.07 803.56 c 0,0,0
 471.74 803.56 471.74 803.56 501.535 816.06 c 0,0,0
 531.33 828.56 531.33 828.56 554.64 852.89 c 0,0,0
 582.26 881.87 582.26 881.87 601.895 932.32 c 0,0,0
 621.53 982.77 621.53 982.77 632.01 1038.205 c 0,0,0
 642.49 1093.64 642.49 1093.64 642.49 1136.58 c 0,0,0
 642.49 1216.51 642.49 1216.51 607.03 1255.68 c 0,0,0
 571.57 1294.85 571.57 1294.85 504.96 1294.85 c 0,0,0
EndSplineSet
EndChar

StartChar: guillemotright
Encoding: 187 187 124
Width: 1139
GlyphClass: 2
Flags: W
LayerCount: 2
Fore
SplineSet
1055.03 506 m 1,0,0
 703.65 139.66 l 1,0,0
 491.38 139.66 l 1,0,0
 497.71 180 l 1,0,0
 853.44 546.33 l 1,0,0
 640.36 905.6 l 1,0,0
 645.03 938.66 l 1,0,0
 851.95 938.66 l 1,0,0
 1068.37 574.36 l 1,0,0
 1055.03 506 l 1,0,0
590.43 506 m 1,0,0
 240.04 139.66 l 1,0,0
 27.11 139.66 l 1,0,0
 33.44 180 l 1,0,0
 389.17 546.33 l 1,0,0
 176.09 905.6 l 1,0,0
 180.76 938.66 l 1,0,0
 388.34 938.66 l 1,0,0
 603.77 574.36 l 1,0,0
 590.43 506 l 1,0,0
EndSplineSet
EndChar

StartChar: questiondown
Encoding: 191 191 128
Width: 1251
GlyphClass: 2
Flags: W
LayerCount: 2
Fore
SplineSet
917.09 1082.33 m 1,0,0
 869.38 835.1 l 1,0,0
 611.4 835.1 l 1,0,0
 659.11 1082.33 l 1,0,0
 917.09 1082.33 l 1,0,0
492.31 -347.67 m 0,0,0
 353.94 -347.67 353.94 -347.67 251.75 -304.18 c 0,0,0
 149.56 -260.69 149.56 -260.69 94.215 -180.695 c 0,0,0
 38.87 -100.7 38.87 -100.7 38.87 7.99 c 0,0,0
 38.87 70.15 38.87 70.15 55.3 119.89 c 0,0,0
 71.73 169.63 71.73 169.63 100.63 209.91 c 0,0,0
 127.94 253.29 127.94 253.29 165.27 290.17 c 0,0,0
 202.6 327.05 202.6 327.05 258.51 365.12 c 0,0,0
 314.42 403.19 314.42 403.19 397.3 449.31 c 1,0,0
 445.23 479.62 445.23 479.62 477.85 503.585 c 0,0,0
 510.47 527.55 510.47 527.55 528.42 545.5 c 0,0,0
 556.08 573.15 556.08 573.15 571.92 603.815 c 0,0,0
 587.76 634.48 587.76 634.48 593.42 672.5 c 1,0,0
 830.06 672.5 l 1,0,0
 816.06 594.18 816.06 594.18 784.07 536.85 c 0,0,0
 763.08 498.19 763.08 498.19 734.92 465.19 c 0,0,0
 706.76 432.19 706.76 432.19 659.11 396.36 c 0,0,0
 611.46 360.53 611.46 360.53 528.83 310.87 c 0,0,0
 465.44 272.49 465.44 272.49 422.415 241.965 c 0,0,0
 379.39 211.44 379.39 211.44 353.71 184.74 c 0,0,0
 320.44 150.11 320.44 150.11 305.315 113.17 c 0,0,0
 290.19 76.23 290.19 76.23 290.19 28.32 c 0,0,0
 290.19 -46.23 290.19 -46.23 346.44 -93.835 c 0,0,0
 402.69 -141.44 402.69 -141.44 508.64 -141.44 c 0,0,0
 630.55 -141.44 630.55 -141.44 707.48 -86.18 c 0,0,0
 784.41 -30.92 784.41 -30.92 814.37 74.33 c 1,0,0
 1047.04 34.33 l 1,0,0
 987.39 -157.99 987.39 -157.99 848.54 -252.83 c 0,0,0
 709.69 -347.67 709.69 -347.67 492.31 -347.67 c 0,0,0
EndSplineSet
EndChar

StartChar: AE
Encoding: 198 198 135
Width: 2048
GlyphClass: 2
Flags: W
LayerCount: 2
Fore
SplineSet
438.52 377.16 m 1,0,0
 184.31 0 l 1,0,0
 -91.72 0 l 1,0,0
 871.3 1409 l 1,0,0
 2088.44 1409 l 1,0,0
 2048.39 1205.43 l 1,0,0
 1334.85 1205.43 l 1,0,0
 1259.58 818.42 l 1,0,0
 1911.78 818.42 l 1,0,0
 1873.07 619.53 l 1,0,0
 1220.87 619.53 l 1,0,0
 1140.61 203.57 l 1,0,0
 1895.15 203.57 l 1,0,0
 1855.44 0 l 1,0,0
 845.58 0 l 1,0,0
 919.21 377.16 l 1,0,0
 438.52 377.16 l 1,0,0
568.34 575.07 m 1,0,0
 957.59 575.07 l 1,0,0
 1081.53 1215.1 l 1,0,0
 990.83 1215.1 l 1,0,0
 854.83 1003.79 l 1,0,0
 568.34 575.07 l 1,0,0
EndSplineSet
EndChar

StartChar: Eth
Encoding: 208 208 145
Width: 1479
GlyphClass: 2
Flags: W
LayerCount: 2
Fore
SplineSet
743.9 1409 m 2,0,0
 961.28 1409 961.28 1409 1113.625 1337.85 c 0,0,0
 1265.97 1266.7 1265.97 1266.7 1345.465 1131.38 c 0,0,0
 1424.96 996.06 1424.96 996.06 1424.96 801.72 c 0,0,0
 1424.96 567.38 1424.96 567.38 1326.29 386.37 c 0,0,0
 1227.29 206.36 1227.29 206.36 1038.465 103.18 c 0,0,0
 849.64 0 849.64 0 613.34 0 c 2,0,0
 44.91 0 l 1,0,0
 163.21 611.49 l 1,0,0
 26.63 611.49 l 1,0,0
 64.67 809.04 l 1,0,0
 201.92 809.04 l 1,0,0
 318.58 1409 l 1,0,0
 743.9 1409 l 2,0,0
344.64 203.25 m 1,0,0
 599.06 203.25 l 2,0,0
 770.94 203.25 770.94 203.25 902.86 275.22 c 0,0,0
 1034.44 346.19 1034.44 346.19 1105.23 480.635 c 0,0,0
 1176.02 615.08 1176.02 615.08 1176.02 793.67 c 0,0,0
 1176.02 992.57 1176.02 992.57 1063.755 1099.16 c 0,0,0
 951.49 1205.75 951.49 1205.75 743.92 1205.75 c 2,0,0
 539.54 1205.75 l 1,0,0
 461.93 809.04 l 1,0,0
 835.1 809.04 l 1,0,0
 795.72 611.49 l 1,0,0
 423.89 611.49 l 1,0,0
 344.64 203.25 l 1,0,0
EndSplineSet
EndChar

StartChar: multiply
Encoding: 215 215 152
Width: 1196
GlyphClass: 2
Flags: W
LayerCount: 2
Fore
SplineSet
636.7 543.82 m 1,0,0
 280.7 186.81 l 1,0,0
 141.18 327.32 l 1,0,0
 496.52 684 l 1,0,0
 144.52 1036 l 1,0,0
 284.7 1174.51 l 1,0,0
 636.04 823.52 l 1,0,0
 987.38 1175.19 l 1,0,0
 1127.89 1034.68 l 1,0,0
 776.55 682.66 l 1,0,0
 1128.55 332 l 1,0,0
 989.03 190.15 l 1,0,0
 636.7 543.82 l 1,0,0
EndSplineSet
EndChar

StartChar: Oslash
Encoding: 216 216 153
Width: 1593
GlyphClass: 2
Flags: W
LayerCount: 2
Fore
SplineSet
1431.04 1219.74 m 1,0,0
 1548.11 1072.73 1548.11 1072.73 1548.11 851 c 0,0,0
 1546.79 597.73 1546.79 597.73 1440.8 396.71 c 0,0,0
 1334.47 195.35 1334.47 195.35 1146.46 87.675 c 0,0,0
 958.45 -20 958.45 -20 717.76 -20 c 0,0,0
 485.53 -20 485.53 -20 336.21 81.89 c 1,0,0
 206.03 -53 l 1,0,0
 4.97 -53 l 1,0,0
 228.12 178.22 l 1,0,0
 100.33 332.92 100.33 332.92 100.33 573 c 0,0,0
 100.33 810.32 100.33 810.32 206.33 1012.33 c 0,0,0
 311.33 1214.34 311.33 1214.34 498.99 1322.17 c 0,0,0
 686.65 1430 686.65 1430 928 1430 c 0,0,0
 1168.29 1430 1168.29 1430 1326.64 1318.41 c 1,0,0
 1469.52 1466 l 1,0,0
 1668.89 1466 l 1,0,0
 1431.04 1219.74 l 1,0,0
915.65 1223.07 m 0,0,0
 741.44 1223.07 741.44 1223.07 618.86 1143.45 c 0,0,0
 537.25 1090.48 537.25 1090.48 480.62 999.865 c 0,0,0
 423.99 909.25 423.99 909.25 394.175 798.97 c 0,0,0
 364.36 688.69 364.36 688.69 364.36 575.06 c 0,0,0
 364.36 448.45 364.36 448.45 405.67 363.49 c 1,0,0
 1161.1 1145.15 l 1,0,0
 1067.51 1223.07 1067.51 1223.07 915.65 1223.07 c 0,0,0
1281.4 833.6 m 0,0,0
 1281.4 944.15 1281.4 944.15 1246.79 1025.76 c 1,0,0
 498.73 251.46 l 1,0,0
 585.98 186.59 585.98 186.59 730.11 186.59 c 0,0,0
 902.99 186.59 902.99 186.59 1025.24 265.55 c 0,0,0
 1106.52 318.19 1106.52 318.19 1163.815 406.645 c 0,0,0
 1221.11 495.1 1221.11 495.1 1251.255 605.71 c 0,0,0
 1281.4 716.32 1281.4 716.32 1281.4 833.6 c 0,0,0
EndSplineSet
EndChar

StartChar: Thorn
Encoding: 222 222 159
Width: 1366
GlyphClass: 2
Flags: W
LayerCount: 2
Fore
SplineSet
360.9 279.58 m 1,0,0
 305.59 0 l 1,0,0
 44.91 0 l 1,0,0
 318.91 1409 l 1,0,0
 579.59 1409 l 1,0,0
 533.94 1175.09 l 1,0,0
 806.67 1175.09 l 2,0,0
 1049.7 1175.09 1049.7 1175.09 1184.715 1066.39 c 0,0,0
 1319.73 957.69 1319.73 957.69 1319.73 763.98 c 0,0,0
 1319.73 615.3 1319.73 615.3 1250.395 506.285 c 0,0,0
 1181.06 397.27 1181.06 397.27 1054.23 338.425 c 0,0,0
 927.4 279.58 927.4 279.58 754.08 279.58 c 2,0,0
 360.9 279.58 l 1,0,0
400.28 481.5 m 1,0,0
 721.62 481.5 l 2,0,0
 888.5 481.5 888.5 481.5 971.94 546.1 c 0,0,0
 1055.38 610.7 1055.38 610.7 1055.38 750.29 c 0,0,0
 1055.38 857.9 1055.38 857.9 986.43 914.535 c 0,0,0
 917.48 971.17 917.48 971.17 786.26 971.17 c 2,0,0
 495.55 971.17 l 1,0,0
 400.28 481.5 l 1,0,0
EndSplineSet
EndChar

StartChar: germandbls
Encoding: 223 223 160
Width: 1251
GlyphClass: 2
Flags: W
LayerCount: 2
Fore
SplineSet
1142.43 332.79 m 0,0,0
 1142.43 168.43 1142.43 168.43 1032.755 72.73 c 0,0,0
 923.08 -22.97 923.08 -22.97 737.45 -22.97 c 0,0,0
 641.4 -22.97 641.4 -22.97 560.57 -7.975 c 0,0,0
 479.74 7.02 479.74 7.02 424.37 33.37 c 1,0,0
 488.41 205.18 l 1,0,0
 559.81 172.15 559.81 172.15 612.265 160.66 c 0,0,0
 664.72 149.17 664.72 149.17 719.67 149.17 c 0,0,0
 809.57 149.17 809.57 149.17 856.845 193.645 c 0,0,0
 904.12 238.12 904.12 238.12 904.12 316.39 c 0,0,0
 904.12 369.04 904.12 369.04 874.8 412.5 c 0,0,0
 845.48 455.96 845.48 455.96 776.84 510.24 c 0,0,0
 709.87 561.85 709.87 561.85 679.215 614.01 c 0,0,0
 648.56 666.17 648.56 666.17 648.56 730.54 c 0,0,0
 648.56 801.18 648.56 801.18 684.38 856.505 c 0,0,0
 720.2 911.83 720.2 911.83 797.54 965.54 c 0,0,0
 876.86 1020.91 876.86 1020.91 911.19 1068.425 c 0,0,0
 945.52 1115.94 945.52 1115.94 945.52 1173.94 c 0,0,0
 945.52 1232.22 945.52 1232.22 901.265 1266.84 c 0,0,0
 857.01 1301.46 857.01 1301.46 776.45 1301.46 c 0,0,0
 650.88 1301.46 650.88 1301.46 579.265 1232.345 c 0,0,0
 507.65 1163.23 507.65 1163.23 479.67 1021 c 2,0,0
 282.34 0 l 1,0,0
 34.67 0 l 1,0,0
 234.67 1027 l 2,0,0
 283.68 1264 283.68 1264 419.54 1374 c 0,0,0
 555.4 1484 555.4 1484 785.45 1484 c 0,0,0
 965.13 1484 965.13 1484 1070.29 1405.68 c 0,0,0
 1175.45 1327.36 1175.45 1327.36 1175.45 1196 c 0,0,0
 1175.45 1035.62 1175.45 1035.62 1028.49 929.28 c 0,0,0
 936.85 862.94 936.85 862.94 910.19 833.28 c 0,0,0
 880.86 801.61 880.86 801.61 880.86 764.94 c 0,0,0
 880.86 717.91 880.86 717.91 924.59 672.89 c 0,0,0
 939.25 656.92 939.25 656.92 960.89 637.465 c 0,0,0
 982.53 618.01 982.53 618.01 1011.81 593.74 c 0,0,0
 1142.43 487.53 1142.43 487.53 1142.43 332.79 c 0,0,0
EndSplineSet
EndChar

StartChar: ae
Encoding: 230 230 167
Width: 1821
GlyphClass: 2
Flags: W
LayerCount: 2
Fore
SplineSet
1014.46 484.91 m 1,0,0
 1007.79 450.24 1007.79 450.24 1006.8 387.99 c 0,0,0
 1006.8 273.08 1006.8 273.08 1058.25 211.795 c 0,0,0
 1109.7 150.51 1109.7 150.51 1210.6 150.51 c 0,0,0
 1288.89 150.51 1288.89 150.51 1347.665 193.665 c 0,0,0
 1406.44 236.82 1406.44 236.82 1443.07 322.81 c 1,0,0
 1652.76 252.44 l 1,0,0
 1579.08 102.35 1579.08 102.35 1469.73 41.175 c 0,0,0
 1360.38 -20 1360.38 -20 1190.61 -20 c 0,0,0
 1041.62 -20 1041.62 -20 944.275 39.95 c 0,0,0
 846.93 99.9 846.93 99.9 802.55 215.17 c 1,0,0
 738.01 118.66 738.01 118.66 660.18 65.73 c 0,0,0
 597.18 21.36 597.18 21.36 525.165 0.68 c 0,0,0
 453.15 -20 453.15 -20 348.34 -20 c 0,0,0
 237.93 -20 237.93 -20 160.23 34.08 c 0,0,0
 101.63 73.42 101.63 73.42 70.165 136.56 c 0,0,0
 38.7 199.7 38.7 199.7 38.7 278 c 0,0,0
 38.7 467.02 38.7 467.02 173.865 562.19 c 0,0,0
 309.03 657.36 309.03 657.36 588.94 659.01 c 2,0,0
 795.45 660 l 1,0,0
 815.79 755 815.79 755 815.79 789.68 c 0,0,0
 815.79 934.18 815.79 934.18 662.06 934.18 c 0,0,0
 558.16 934.18 558.16 934.18 506.385 895.865 c 0,0,0
 454.61 857.55 454.61 857.55 433.65 782.28 c 1,0,0
 198.7 812.62 l 1,0,0
 236.99 957.61 236.99 957.61 355.17 1029.805 c 0,0,0
 473.35 1102 473.35 1102 670.36 1102 c 0,0,0
 881.98 1102 881.98 1102 978.61 974.15 c 1,0,0
 1113.66 1102 1113.66 1102 1321.6 1102 c 0,0,0
 1525.98 1102 1525.98 1102 1637.665 995.655 c 0,0,0
 1749.35 889.31 1749.35 889.31 1749.35 696.61 c 0,0,0
 1749.35 647.94 1749.35 647.94 1742.855 591.465 c 0,0,0
 1736.36 534.99 1736.36 534.99 1725.68 484.91 c 1,0,0
 1014.46 484.91 l 1,0,0
1044.49 655.74 m 1,0,0
 1514.76 655.74 l 1,0,0
 1518.09 717.02 l 1,0,0
 1518.09 829.63 1518.09 829.63 1465.455 884.24 c 0,0,0
 1412.82 938.85 1412.82 938.85 1322.59 938.85 c 0,0,0
 1217.68 938.85 1217.68 938.85 1146.075 866.245 c 0,0,0
 1074.47 793.64 1074.47 793.64 1044.49 655.74 c 1,0,0
302.06 312.13 m 0,0,0
 302.06 238.48 302.06 238.48 340.52 197.505 c 0,0,0
 378.98 156.53 378.98 156.53 448.27 156.53 c 0,0,0
 528.16 156.53 528.16 156.53 597.08 202.87 c 0,0,0
 652.26 238.16 652.26 238.16 691.17 295.565 c 0,0,0
 730.08 352.97 730.08 352.97 746.08 422.22 c 2,0,0
 766.43 511.22 l 1,0,0
 590.58 509.9 l 2,0,0
 473.74 508.25 473.74 508.25 407.8 475.55 c 0,0,0
 302.06 427.91 302.06 427.91 302.06 312.13 c 0,0,0
EndSplineSet
EndChar

StartChar: eth
Encoding: 240 240 177
Width: 1214
GlyphClass: 2
Flags: W
LayerCount: 2
Fore
SplineSet
649.12 1312.59 m 1,0,0
 535.7 1422.02 535.7 1422.02 436.03 1484 c 1,0,0
 690.42 1484 l 1,0,0
 727.08 1465 727.08 1465 763.735 1440.84 c 0,0,0
 800.39 1416.68 800.39 1416.68 836.37 1387.36 c 1,0,0
 1120.81 1494.05 l 1,0,0
 1093.1 1340.49 l 1,0,0
 940.18 1282.2 l 1,0,0
 1042.44 1153.92 1042.44 1153.92 1087.75 1021.955 c 0,0,0
 1133.06 889.99 1133.06 889.99 1133.06 728 c 0,0,0
 1133.06 519.68 1133.06 519.68 1071.07 355.09 c 0,0,0
 1002.38 171.41 1002.38 171.41 862.45 76.53 c 0,0,0
 722.52 -18.35 722.52 -18.35 515.12 -18.35 c 0,0,0
 302.72 -18.35 302.72 -18.35 181.845 96.325 c 0,0,0
 60.97 211 60.97 211 60.97 407.69 c 0,0,0
 60.97 595.5 60.97 595.5 148.08 734.5 c 0,0,0
 219.11 852.07 219.11 852.07 342.64 915.535 c 0,0,0
 466.17 979 466.17 979 634.48 979 c 0,0,0
 701.42 979 701.42 979 770.235 956.87 c 0,0,0
 839.05 934.74 839.05 934.74 875.39 902.14 c 1,0,0
 858.4 986.33 858.4 986.33 822.945 1062.89 c 0,0,0
 787.49 1139.45 787.49 1139.45 736.86 1202.77 c 1,0,0
 461.18 1091.11 l 1,0,0
 490.22 1250.64 l 1,0,0
 649.12 1312.59 l 1,0,0
639.85 806.47 m 0,0,0
 537.6 806.47 537.6 806.47 463.28 752.48 c 0,0,0
 417.97 718.83 417.97 718.83 385.315 662.885 c 0,0,0
 352.66 606.94 352.66 606.94 335.665 537.82 c 0,0,0
 318.67 468.7 318.67 468.7 318.67 392.69 c 0,0,0
 318.67 281.45 318.67 281.45 376.31 217.815 c 0,0,0
 433.95 154.18 433.95 154.18 534.87 154.18 c 0,0,0
 652.56 154.18 652.56 154.18 730.84 238.91 c 0,0,0
 772.9 279.88 772.9 279.88 803.11 341.18 c 0,0,0
 833.32 402.48 833.32 402.48 849.175 473.985 c 0,0,0
 865.03 545.49 865.03 545.49 865.03 615.57 c 0,0,0
 865.03 674.93 865.03 674.93 835.04 720.24 c 0,0,0
 808.07 761.2 808.07 761.2 758.115 783.835 c 0,0,0
 708.16 806.47 708.16 806.47 639.85 806.47 c 0,0,0
EndSplineSet
EndChar

StartChar: divide
Encoding: 247 247 184
Width: 1124
GlyphClass: 2
Flags: W
LayerCount: 2
Fore
SplineSet
687.79 1176.51 m 1,0,0
 687.79 960.01 l 1,0,0
 472.89 960.01 l 1,0,0
 472.89 1176.51 l 1,0,0
 687.79 1176.51 l 1,0,0
1089.73 780.13 m 1,0,0
 1089.73 581.87 l 1,0,0
 73.29 581.87 l 1,0,0
 73.29 780.13 l 1,0,0
 1089.73 780.13 l 1,0,0
687.79 403.99 m 1,0,0
 687.79 187.49 l 1,0,0
 472.89 187.49 l 1,0,0
 472.89 403.99 l 1,0,0
 687.79 403.99 l 1,0,0
EndSplineSet
EndChar

StartChar: oslash
Encoding: 248 248 185
Width: 1251
GlyphClass: 2
Flags: W
LayerCount: 2
Fore
SplineSet
182.24 124.23 m 1,0,0
 83.46 237.25 83.46 237.25 83.46 419 c 0,0,0
 85.11 621.98 85.11 621.98 161.48 776.98 c 0,0,0
 238.18 932.97 238.18 932.97 377.255 1016.985 c 0,0,0
 516.33 1101 516.33 1101 702.68 1101 c 0,0,0
 863 1101 863 1101 973.7 1042.71 c 1,0,0
 1037 1116 l 1,0,0
 1218.74 1116 l 1,0,0
 1080.78 955.71 l 1,0,0
 1167.51 851.04 1167.51 851.04 1167.51 683 c 0,0,0
 1167.51 509.99 1167.51 509.99 1104.66 365.16 c 0,0,0
 1031.57 177.76 1031.57 177.76 885.535 79.705 c 0,0,0
 739.5 -18.35 739.5 -18.35 539.62 -18.35 c 0,0,0
 395.67 -18.35 395.67 -18.35 291 37.91 c 1,0,0
 225.74 -38 l 1,0,0
 42.66 -38 l 1,0,0
 182.24 124.23 l 1,0,0
342.16 426.05 m 0,0,0
 342.16 370.47 342.16 370.47 352.47 321.83 c 1,0,0
 835.52 881.83 l 1,0,0
 780.9 928.8 780.9 928.8 687.95 928.8 c 0,0,0
 567.69 928.8 567.69 928.8 495.4 865.83 c 0,0,0
 447.43 823.85 447.43 823.85 412.95 750.72 c 0,0,0
 378.47 677.59 378.47 677.59 360.315 591.8 c 0,0,0
 342.16 506.01 342.16 506.01 342.16 426.05 c 0,0,0
909.15 668.93 m 0,0,0
 909.15 713.5 909.15 713.5 901.85 747.74 c 1,0,0
 426.17 195.11 l 1,0,0
 479.46 154.18 479.46 154.18 564.02 154.18 c 0,0,0
 684.27 154.18 684.27 154.18 753.9 214.48 c 0,0,0
 822.86 273.78 822.86 273.78 862.67 395.545 c 0,0,0
 902.48 517.31 902.48 517.31 909.15 668.93 c 0,0,0
EndSplineSet
EndChar

StartChar: thorn
Encoding: 254 254 191
Width: 1214
GlyphClass: 2
Flags: W
LayerCount: 2
Fore
SplineSet
626.36 -20 m 0,0,0
 502.02 -20 502.02 -20 424.185 32 c 0,0,0
 346.35 84 346.35 84 314.35 178 c 1,0,0
 311.36 178 l 1,0,0
 307.69 155.01 307.69 155.01 304.525 131.685 c 0,0,0
 301.36 108.36 301.36 108.36 297.36 84.37 c 0,0,0
 293.36 61.35 293.36 61.35 289.19 38.67 c 0,0,0
 285.02 15.99 285.02 15.99 280.35 -7.36 c 2,0,0
 199.02 -425 l 1,0,0
 -47.65 -425 l 1,0,0
 322.01 1484 l 1,0,0
 569.68 1484 l 1,0,0
 486.68 1058.32 l 2,0,0
 479.33 1019.91 479.33 1019.91 470.83 984.24 c 0,0,0
 462.33 948.57 462.33 948.57 452.68 915.64 c 1,0,0
 458.02 915.64 l 1,0,0
 530.35 1013.99 530.35 1013.99 612.355 1057.995 c 0,0,0
 694.36 1102 694.36 1102 812.69 1102 c 0,0,0
 971.03 1102 971.03 1102 1059.535 1007.5 c 0,0,0
 1148.04 913 1148.04 913 1148.04 748 c 0,0,0
 1148.04 546.01 1148.04 546.01 1086.37 355 c 0,0,0
 1024.7 163.66 1024.7 163.66 912.365 71.83 c 0,0,0
 800.03 -20 800.03 -20 626.36 -20 c 0,0,0
715.13 925.48 m 0,0,0
 554.95 925.48 554.95 925.48 468.34 791.62 c 0,0,0
 440.34 747.63 440.34 747.63 419.005 688.31 c 0,0,0
 397.67 628.99 397.67 628.99 383.67 557.96 c 0,0,0
 365.35 460.97 365.35 460.97 365.35 393.08 c 0,0,0
 365.35 280.14 365.35 280.14 421.815 216.67 c 0,0,0
 478.28 153.2 478.28 153.2 579.22 153.2 c 0,0,0
 689.15 153.2 689.15 153.2 751.77 221.16 c 0,0,0
 783.75 255.14 783.75 255.14 808.9 312.445 c 0,0,0
 834.05 369.75 834.05 369.75 851.705 438.215 c 0,0,0
 869.36 506.68 869.36 506.68 878.52 575.815 c 0,0,0
 887.68 644.95 887.68 644.95 887.68 701.26 c 0,0,0
 887.68 812.87 887.68 812.87 846.375 869.175 c 0,0,0
 805.07 925.48 805.07 925.48 715.13 925.48 c 0,0,0
EndSplineSet
EndChar

StartChar: dcroat
Encoding: 273 273 210
Width: 1214
GlyphClass: 2
Flags: W
LayerCount: 2
Fore
SplineSet
394.97 -21 m 0,0,0
 239.98 -21 239.98 -21 150.805 75.845 c 0,0,0
 61.63 172.69 61.63 172.69 61.63 337.69 c 0,0,0
 61.63 526.29 61.63 526.29 124.3 708.24 c 0,0,0
 186.97 889.19 186.97 889.19 300.315 981.695 c 0,0,0
 413.66 1074.2 413.66 1074.2 576.61 1074.2 c 0,0,0
 702.29 1074.2 702.29 1074.2 781.465 1024.545 c 0,0,0
 860.64 974.89 860.64 974.89 890.63 881.56 c 1,0,0
 896.3 881.56 l 1,0,0
 900.28 909.83 900.28 909.83 907.275 954.175 c 0,0,0
 914.27 998.52 914.27 998.52 925.96 1058.28 c 2,0,0
 951.29 1185.23 l 1,0,0
 658.66 1185.23 l 1,0,0
 689.02 1342.36 l 1,0,0
 982.32 1342.36 l 1,0,0
 1010.65 1484 l 1,0,0
 1255.64 1484 l 1,0,0
 1227.98 1342.36 l 1,0,0
 1359.98 1342.36 l 1,0,0
 1329.62 1185.23 l 1,0,0
 1198.29 1185.23 l 1,0,0
 1015 228.36 l 2,0,0
 1003.68 167.74 1003.68 167.74 995.855 110.4 c 0,0,0
 988.03 53.06 988.03 53.06 983.03 0 c 1,0,0
 738 0 l 1,0,0
 738 59.04 738 59.04 754.98 160 c 1,0,0
 750.98 160 l 1,0,0
 679.32 66.34 679.32 66.34 597.315 22.67 c 0,0,0
 515.31 -21 515.31 -21 394.97 -21 c 0,0,0
494.54 154.18 m 0,0,0
 628.92 154.18 628.92 154.18 707.16 250.18 c 0,0,0
 748.87 296.14 748.87 296.14 778.4 368.63 c 0,0,0
 807.93 441.12 807.93 441.12 823.78 522.135 c 0,0,0
 839.63 603.15 839.63 603.15 839.63 671.84 c 0,0,0
 839.63 790.14 839.63 790.14 787.185 847.58 c 0,0,0
 734.74 905.02 734.74 905.02 634.47 905.02 c 0,0,0
 529.22 905.02 529.22 905.02 462.91 838.38 c 0,0,0
 419.26 793.73 419.26 793.73 387.78 713.795 c 0,0,0
 356.3 633.86 356.3 633.86 339.48 543.435 c 0,0,0
 322.66 453.01 322.66 453.01 322.66 376.39 c 0,0,0
 322.66 265.45 322.66 265.45 364.97 209.815 c 0,0,0
 407.28 154.18 407.28 154.18 494.54 154.18 c 0,0,0
EndSplineSet
EndChar

StartChar: Hbar
Encoding: 294 294 231
Width: 1479
GlyphClass: 2
Flags: W
LayerCount: 2
Fore
SplineSet
425.23 620.17 m 1,0,0
 304.59 0 l 1,0,0
 44.58 0 l 1,0,0
 245.59 1038.4 l 1,0,0
 112.36 1038.4 l 1,0,0
 144.37 1203.12 l 1,0,0
 277.6 1203.12 l 1,0,0
 317.58 1409 l 1,0,0
 578.26 1409 l 1,0,0
 538.28 1203.12 l 1,0,0
 1210.81 1203.12 l 1,0,0
 1250.79 1409 l 1,0,0
 1502.45 1409 l 1,0,0
 1462.47 1203.12 l 1,0,0
 1595.37 1203.12 l 1,0,0
 1563.36 1038.4 l 1,0,0
 1430.46 1038.4 l 1,0,0
 1228.78 0 l 1,0,0
 977.12 0 l 1,0,0
 1097.76 620.17 l 1,0,0
 425.23 620.17 l 1,0,0
467.28 836.45 m 1,0,0
 1139.81 836.45 l 1,0,0
 1178.8 1038.4 l 1,0,0
 506.27 1038.4 l 1,0,0
 467.28 836.45 l 1,0,0
EndSplineSet
EndChar

StartChar: hbar
Encoding: 295 295 232
Width: 1214
GlyphClass: 2
Flags: W
LayerCount: 2
Fore
SplineSet
444.01 857 m 1,0,0
 521.65 964.63 521.65 964.63 609.84 1012.815 c 0,0,0
 698.03 1061 698.03 1061 814.37 1061 c 0,0,0
 965.05 1061 965.05 1061 1041.225 988 c 0,0,0
 1117.4 915 1117.4 915 1117.4 777 c 0,0,0
 1117.4 749.69 1117.4 749.69 1111.06 699.645 c 0,0,0
 1104.72 649.6 1104.72 649.6 1096.4 613 c 2,0,0
 977.4 0 l 1,0,0
 730.74 0 l 1,0,0
 843.38 571.5 l 2,0,0
 866.74 685.96 866.74 685.96 866.74 731.55 c 0,0,0
 866.74 873.09 866.74 873.09 705.83 873.09 c 0,0,0
 633.22 873.09 633.22 873.09 567.75 833.61 c 0,0,0
 502.28 794.13 502.28 794.13 456.135 725.015 c 0,0,0
 409.99 655.9 409.99 655.9 392.68 566 c 2,0,0
 282.68 0 l 1,0,0
 34.67 0 l 1,0,0
 263.31 1185.23 l 1,0,0
 128.29 1185.23 l 1,0,0
 158.65 1342.36 l 1,0,0
 293.67 1342.36 l 1,0,0
 321.33 1484 l 1,0,0
 568.33 1484 l 1,0,0
 540.67 1342.36 l 1,0,0
 849.71 1342.36 l 1,0,0
 819.35 1185.23 l 1,0,0
 509.64 1185.23 l 1,0,0
 489.01 1073.44 489.01 1073.44 470.86 991.3 c 0,0,0
 452.71 909.16 452.71 909.16 441.01 857 c 1,0,0
 444.01 857 l 1,0,0
EndSplineSet
EndChar

StartChar: dotlessi
Encoding: 305 305 242
Width: 569
GlyphClass: 2
Flags: W
LayerCount: 2
Fore
SplineSet
510.49 1082 m 1,0,0
 299.49 0 l 1,0,0
 52.82 0 l 1,0,0
 262.82 1082 l 1,0,0
 510.49 1082 l 1,0,0
EndSplineSet
EndChar

StartChar: jcircumflex
Encoding: 309 309 246
Width: 531
GlyphClass: 2
Flags: W
LayerCount: 2
Fore
SplineSet
415.15 1373.35 m 1,0,0
 161.54 1188.94 l 1,0,0
 10.03 1188.94 l 1,0,0
 14.7 1214.3 l 1,0,0
 323.48 1516.46 l 1,0,0
 544.23 1516.46 l 1,0,0
 726.62 1214.3 l 1,0,0
 721.95 1188.94 l 1,0,0
 591.09 1188.94 l 1,0,0
 418.49 1373.35 l 1,0,0
 415.15 1373.35 l 1,0,0
-69.18 -425 m 0,0,0
 -151.66 -425 -151.66 -425 -222.97 -407.65 c 1,0,0
 -191.26 -236.81 l 1,0,0
 -173.3 -238.8 -173.3 -238.8 -156.485 -240.13 c 0,0,0
 -139.67 -241.46 -139.67 -241.46 -125.01 -242.13 c 0,0,0
 -60.65 -242.13 -60.65 -242.13 -29.645 -205.155 c 0,0,0
 1.36 -168.18 1.36 -168.18 19.03 -75.51 c 2,0,0
 244.67 1082 l 1,0,0
 492.34 1082 l 1,0,0
 256.01 -129.98 l 2,0,0
 226.35 -278.6 226.35 -278.6 144.625 -351.8 c 0,0,0
 62.9 -425 62.9 -425 -69.18 -425 c 0,0,0
EndSplineSet
EndChar

StartChar: kgreenlandic
Encoding: 312 312 249
Width: 1101
GlyphClass: 2
Flags: W
LayerCount: 2
Fore
SplineSet
362.05 407.48 m 1,0,0
 281.34 0 l 1,0,0
 34.67 0 l 1,0,0
 244.67 1082 l 1,0,0
 492.34 1082 l 1,0,0
 400.05 611.89 l 1,0,0
 572.56 776.43 l 1,0,0
 897.38 1082 l 1,0,0
 1186.38 1082 l 1,0,0
 694.57 645.81 l 1,0,0
 989.7 0 l 1,0,0
 725.69 0 l 1,0,0
 511.29 498.65 l 1,0,0
 362.05 407.48 l 1,0,0
EndSplineSet
EndChar

StartChar: Lslash
Encoding: 321 321 258
Width: 1214
GlyphClass: 2
Flags: W
LayerCount: 2
Fore
SplineSet
344.31 204.24 m 1,0,0
 1085.79 204.24 l 1,0,0
 1045.41 0 l 1,0,0
 43.92 0 l 1,0,0
 140.88 500.48 l 1,0,0
 -12.07 429.55 l 1,0,0
 26.98 632.44 l 1,0,0
 180.59 704.04 l 1,0,0
 317.25 1409 l 1,0,0
 577.93 1409 l 1,0,0
 466.29 834.14 l 1,0,0
 792.39 982.81 l 1,0,0
 753.35 781.59 l 1,0,0
 427.25 632.59 l 1,0,0
 344.31 204.24 l 1,0,0
EndSplineSet
EndChar

StartChar: lslash
Encoding: 322 322 259
Width: 531
GlyphClass: 2
Flags: W
LayerCount: 2
Fore
SplineSet
416.06 693.57 m 1,0,0
 280.68 0 l 1,0,0
 34.01 0 l 1,0,0
 141.02 554.73 l 1,0,0
 4.68 486.06 l 1,0,0
 42.38 682.25 l 1,0,0
 179.06 750.92 l 1,0,0
 322.01 1484 l 1,0,0
 569.68 1484 l 1,0,0
 453.76 889.76 l 1,0,0
 595.78 963.1 l 1,0,0
 557.41 767.92 l 1,0,0
 416.06 693.57 l 1,0,0
EndSplineSet
EndChar

StartChar: Eng
Encoding: 330 330 267
Width: 1481
GlyphClass: 2
Flags: W
LayerCount: 2
Fore
SplineSet
878.92 -425 m 0,0,0
 796.44 -425 796.44 -425 725.13 -407.65 c 1,0,0
 756.84 -236.81 l 1,0,0
 777.48 -238.8 777.48 -238.8 796.64 -240.13 c 0,0,0
 815.8 -241.46 815.8 -241.46 833.14 -242.13 c 0,0,0
 884.77 -242.13 884.77 -242.13 912.93 -217.55 c 0,0,0
 941.09 -192.97 941.09 -192.97 958.76 -138.49 c 0,0,0
 965.77 -117.52 965.77 -117.52 974.285 -82.98 c 0,0,0
 982.8 -48.44 982.8 -48.44 991.15 0 c 1,0,0
 493.18 1157.73 l 1,0,0
 482.18 1077.39 482.18 1077.39 473.505 1021.515 c 0,0,0
 464.83 965.64 464.83 965.64 458.48 934.57 c 2,0,0
 277.55 0 l 1,0,0
 45.91 0 l 1,0,0
 319.58 1409 l 1,0,0
 623.71 1409 l 1,0,0
 1069.57 357.21 l 1,0,0
 1082.27 424.34 l 0,0,0
 1088.95 460.05 1088.95 460.05 1095.95 500.05 c 2,0,0
 1271.48 1409 l 1,0,0
 1503.78 1409 l 1,0,0
 1204.11 -129.98 l 2,0,0
 1174.45 -278.6 1174.45 -278.6 1092.725 -351.8 c 0,0,0
 1011 -425 1011 -425 878.92 -425 c 0,0,0
EndSplineSet
EndChar

StartChar: eng
Encoding: 331 331 268
Width: 1214
GlyphClass: 2
Flags: W
LayerCount: 2
Fore
SplineSet
627.55 -425 m 0,0,0
 545.07 -425 545.07 -425 473.76 -407.65 c 1,0,0
 505.47 -236.81 l 1,0,0
 523.43 -238.8 523.43 -238.8 540.245 -240.13 c 0,0,0
 557.06 -241.46 557.06 -241.46 571.72 -242.13 c 0,0,0
 636.08 -242.13 636.08 -242.13 667.085 -204.485 c 0,0,0
 698.09 -166.84 698.09 -166.84 715.76 -75.51 c 2,0,0
 851.71 611.5 l 2,0,0
 875.07 725.96 875.07 725.96 875.07 771.55 c 0,0,0
 875.07 913.09 875.07 913.09 714.16 913.09 c 0,0,0
 641.55 913.09 641.55 913.09 576.08 873.61 c 0,0,0
 510.61 834.13 510.61 834.13 464.465 765.015 c 0,0,0
 418.32 695.9 418.32 695.9 401.01 606 c 2,0,0
 283.01 0 l 1,0,0
 34.67 0 l 1,0,0
 200.67 851 l 2,0,0
 209.33 893.31 209.33 893.31 218.83 950.975 c 0,0,0
 228.33 1008.64 228.33 1008.64 239 1082 c 1,0,0
 474.66 1082 l 1,0,0
 474.66 1071.65 474.66 1071.65 469.995 1034.47 c 0,0,0
 465.33 997.29 465.33 997.29 459.5 957.46 c 0,0,0
 453.67 917.63 453.67 917.63 449.34 897 c 1,0,0
 452.34 897 l 1,0,0
 529.98 1004.63 529.98 1004.63 618.17 1052.815 c 0,0,0
 706.36 1101 706.36 1101 822.7 1101 c 0,0,0
 973.38 1101 973.38 1101 1049.555 1028 c 0,0,0
 1125.73 955 1125.73 955 1125.73 817 c 0,0,0
 1125.73 789.69 1125.73 789.69 1119.39 739.645 c 0,0,0
 1113.05 689.6 1113.05 689.6 1104.73 653 c 2,0,0
 952.74 -129.98 l 2,0,0
 925.76 -274.58 925.76 -274.58 844.035 -349.79 c 0,0,0
 762.31 -425 762.31 -425 627.55 -425 c 0,0,0
EndSplineSet
EndChar

StartChar: OE
Encoding: 338 338 275
Width: 2048
GlyphClass: 2
Flags: W
LayerCount: 2
Fore
SplineSet
909.08 0 m 1,0,0
 844.79 -10 844.79 -10 704.68 -10 c 0,0,0
 515.34 -10 515.34 -10 380.505 59.16 c 0,0,0
 245.67 128.32 245.67 128.32 174.005 258.985 c 0,0,0
 102.34 389.65 102.34 389.65 102.34 573 c 0,0,0
 102.34 727.49 102.34 727.49 150.445 869.815 c 0,0,0
 198.55 1012.14 198.55 1012.14 293.09 1123.21 c 0,0,0
 404.78 1266.96 404.78 1266.96 572.35 1343.48 c 0,0,0
 739.92 1420 739.92 1420 941.08 1420 c 0,0,0
 982.4 1420 982.4 1420 1021.19 1418.5 c 0,0,0
 1059.98 1417 1059.98 1417 1096.57 1414.67 c 2,0,0
 1164.52 1409 l 1,0,0
 2088.44 1409 l 1,0,0
 2049.06 1205.43 l 1,0,0
 1367.87 1205.43 l 1,0,0
 1292.6 818.42 l 1,0,0
 1913.12 818.42 l 1,0,0
 1874.41 619.53 l 1,0,0
 1253.89 619.53 l 1,0,0
 1173.63 206.25 l 1,0,0
 1895.82 206.25 l 1,0,0
 1855.77 0 l 1,0,0
 909.08 0 l 1,0,0
728.08 196.59 m 0,0,0
 783.7 196.59 783.7 196.59 830.17 200.93 c 0,0,0
 876.64 205.27 876.64 205.27 913.62 213.62 c 1,0,0
 1104.51 1197.38 l 1,0,0
 1069.88 1205.73 1069.88 1205.73 1018.735 1209.735 c 0,0,0
 967.59 1213.74 967.59 1213.74 931.08 1213.74 c 0,0,0
 696.88 1213.74 696.88 1213.74 558.22 1072.8 c 0,0,0
 496.71 1016.47 496.71 1016.47 453.65 934.71 c 0,0,0
 410.59 852.95 410.59 852.95 388.48 757.57 c 0,0,0
 366.37 662.19 366.37 662.19 366.37 563 c 0,0,0
 366.37 386.13 366.37 386.13 460.125 291.36 c 0,0,0
 553.88 196.59 553.88 196.59 728.08 196.59 c 0,0,0
EndSplineSet
EndChar

StartChar: oe
Encoding: 339 339 276
Width: 1933
GlyphClass: 2
Flags: W
LayerCount: 2
Fore
SplineSet
1127.36 484.91 m 1,0,0
 1119.04 443.97 1119.04 443.97 1119.04 387.99 c 0,0,0
 1119.04 273.08 1119.04 273.08 1172.14 211.795 c 0,0,0
 1225.24 150.51 1225.24 150.51 1330.43 150.51 c 0,0,0
 1411.69 150.51 1411.69 150.51 1472.775 194.16 c 0,0,0
 1533.86 237.81 1533.86 237.81 1570.82 322.81 c 1,0,0
 1780.51 252.44 l 1,0,0
 1705.84 102.02 1705.84 102.02 1594.51 41.01 c 0,0,0
 1483.18 -20 1483.18 -20 1310.77 -20 c 0,0,0
 1056.84 -20 1056.84 -20 942.46 145.53 c 1,0,0
 872.81 64.26 872.81 64.26 764.3 22.955 c 0,0,0
 655.79 -18.35 655.79 -18.35 517.13 -18.35 c 0,0,0
 305.4 -18.35 305.4 -18.35 183.515 98.655 c 0,0,0
 61.63 215.66 61.63 215.66 61.63 419 c 1,0,0
 63.28 620.99 63.28 620.99 139.65 776.65 c 0,0,0
 216.02 932.64 216.02 932.64 355.095 1016.82 c 0,0,0
 494.17 1101 494.17 1101 680.19 1101 c 0,0,0
 810.14 1101 810.14 1101 900.11 1062.715 c 0,0,0
 990.08 1024.43 990.08 1024.43 1053.48 943.17 c 1,0,0
 1129.48 1021.43 1129.48 1021.43 1227.79 1061.715 c 0,0,0
 1326.1 1102 1326.1 1102 1443.08 1102 c 0,0,0
 1650.43 1102 1650.43 1102 1763.765 995.985 c 0,0,0
 1877.1 889.97 1877.1 889.97 1877.1 696.61 c 0,0,0
 1877.1 595.96 1877.1 595.96 1853.1 484.91 c 1,0,0
 1127.36 484.91 l 1,0,0
886.66 668.93 m 1,0,0
 886.66 928.8 886.66 928.8 665.46 928.8 c 0,0,0
 544.87 928.8 544.87 928.8 472.91 865.5 c 0,0,0
 424.94 823.19 424.94 823.19 390.625 749.895 c 0,0,0
 356.31 676.6 356.31 676.6 338.32 591.14 c 0,0,0
 320.33 505.68 320.33 505.68 320.33 426.05 c 0,0,0
 320.33 293.8 320.33 293.8 375.63 223.99 c 0,0,0
 430.93 154.18 430.93 154.18 542.2 154.18 c 0,0,0
 663.79 154.18 663.79 154.18 732.75 215.82 c 0,0,0
 801.71 277.13 801.71 277.13 841.185 399.9 c 0,0,0
 880.66 522.67 880.66 522.67 886.66 668.93 c 1,0,0
1156.73 655.74 m 1,0,0
 1642.51 655.74 l 1,0,0
 1645.84 717.02 l 1,0,0
 1645.84 829.63 1645.84 829.63 1592.05 884.24 c 0,0,0
 1538.26 938.85 1538.26 938.85 1444.4 938.85 c 0,0,0
 1335.86 938.85 1335.86 938.85 1261.78 866.08 c 0,0,0
 1187.7 793.31 1187.7 793.31 1156.73 655.74 c 1,0,0
EndSplineSet
EndChar

StartChar: Tbar
Encoding: 358 358 295
Width: 1251
GlyphClass: 2
Flags: W
LayerCount: 2
Fore
SplineSet
771.49 632.93 m 1,0,0
 648.5 0 l 1,0,0
 388.15 0 l 1,0,0
 511.14 632.93 l 1,0,0
 266.98 632.93 l 1,0,0
 301.67 811.05 l 1,0,0
 545.83 811.05 l 1,0,0
 622.44 1204.76 l 1,0,0
 157.87 1204.76 l 1,0,0
 197.25 1409 l 1,0,0
 1387.41 1409 l 1,0,0
 1348.03 1204.76 l 1,0,0
 882.79 1204.76 l 1,0,0
 806.18 811.05 l 1,0,0
 1051.67 811.05 l 1,0,0
 1016.98 632.93 l 1,0,0
 771.49 632.93 l 1,0,0
EndSplineSet
EndChar

StartChar: tbar
Encoding: 359 359 296
Width: 644
GlyphClass: 2
Flags: W
LayerCount: 2
Fore
SplineSet
357.4 249.19 m 0,0,0
 357.4 203.85 357.4 203.85 380.57 181.515 c 0,0,0
 403.74 159.18 403.74 159.18 445.39 159.18 c 0,0,0
 481.04 159.18 481.04 159.18 550.75 172.51 c 1,0,0
 523.04 6.68 l 1,0,0
 436.1 -17.32 436.1 -17.32 342.67 -17.32 c 0,0,0
 231.54 -17.32 231.54 -17.32 169.975 38.705 c 0,0,0
 108.41 94.73 108.41 94.73 108.41 194.81 c 0,0,0
 108.41 262.54 108.41 262.54 124.08 342.9 c 2,0,0
 151.34 487.19 l 1,0,0
 25.67 487.19 l 1,0,0
 58.04 657.72 l 1,0,0
 184.38 657.72 l 1,0,0
 234 911.47 l 1,0,0
 93.59 911.47 l 1,0,0
 126.96 1082 l 1,0,0
 277.41 1082 l 1,0,0
 403.85 1332.04 l 1,0,0
 561.37 1332.04 l 1,0,0
 513.7 1082 l 1,0,0
 715.04 1082 l 1,0,0
 683.01 911.47 l 1,0,0
 479.66 911.47 l 1,0,0
 430.04 657.72 l 1,0,0
 619.99 657.72 l 1,0,0
 586.95 487.19 l 1,0,0
 396.67 487.19 l 1,0,0
 368.73 340.17 l 2,0,0
 357.4 281.51 357.4 281.51 357.4 249.19 c 0,0,0
EndSplineSet
EndChar

StartChar: longs
Encoding: 383 383 320
Width: 531
GlyphClass: 2
Flags: W
LayerCount: 2
Fore
SplineSet
34.34 0 m 1,0,0
 267.67 1197.97 l 2,0,0
 297.34 1353.3 297.34 1353.3 384.415 1418.65 c 0,0,0
 471.49 1484 471.49 1484 630.29 1484 c 0,0,0
 700.29 1484 700.29 1484 773.08 1468.65 c 1,0,0
 741.04 1302.17 l 1,0,0
 726.41 1304.83 726.41 1304.83 698.04 1308.17 c 0,0,0
 669.67 1311.51 669.67 1311.51 649 1311.51 c 0,0,0
 593.25 1311.51 593.25 1311.51 563.23 1286.12 c 0,0,0
 542.28 1269.79 542.28 1269.79 530.295 1241.66 c 0,0,0
 518.31 1213.53 518.31 1213.53 509.33 1170.96 c 2,0,0
 281.34 0 l 1,0,0
 34.34 0 l 1,0,0
EndSplineSet
EndChar

StartChar: uni0180
Encoding: 384 384 321
Width: 1214
GlyphClass: 2
Flags: W
LayerCount: 2
Fore
SplineSet
162.98 1342.36 m 1,0,0
 300.03 1342.36 l 1,0,0
 327.69 1484 l 1,0,0
 575.36 1484 l 1,0,0
 547.7 1342.36 l 1,0,0
 811.16 1342.36 l 1,0,0
 784.15 1185.23 l 1,0,0
 517.01 1185.23 l 1,0,0
 487 1033.53 l 2,0,0
 478.66 995.83 478.66 995.83 470.995 959.325 c 0,0,0
 463.33 922.82 463.33 922.82 454.34 888.84 c 1,0,0
 458.34 888.84 l 1,0,0
 524.64 983.17 524.64 983.17 613.01 1029.185 c 0,0,0
 701.38 1075.2 701.38 1075.2 813.68 1075.2 c 0,0,0
 972.02 1075.2 972.02 1075.2 1060.525 980.7 c 0,0,0
 1149.03 886.2 1149.03 886.2 1149.03 721.2 c 0,0,0
 1149.03 506.48 1149.03 506.48 1086.69 330.21 c 0,0,0
 1023.68 154.28 1023.68 154.28 910.005 67.14 c 0,0,0
 796.33 -20 796.33 -20 632.04 -20 c 0,0,0
 507.7 -20 507.7 -20 430.03 32 c 0,0,0
 352.36 84 352.36 84 320.36 178 c 1,0,0
 318.03 178 l 1,0,0
 310.67 142.89 310.67 142.89 296.99 93.7 c 0,0,0
 283.31 44.51 283.31 44.51 271.68 0 c 1,0,0
 33.02 0 l 1,0,0
 37.02 13 37.02 13 49.52 68.5 c 0,0,0
 62.02 124 62.02 124 82.02 223 c 2,0,0
 269 1185.23 l 1,0,0
 132.62 1185.23 l 1,0,0
 162.98 1342.36 l 1,0,0
716.12 898.68 m 0,0,0
 620.47 898.68 620.47 898.68 561.695 865.55 c 0,0,0
 502.92 832.42 502.92 832.42 461.29 763.48 c 0,0,0
 433.31 717.52 433.31 717.52 412.995 651.9 c 0,0,0
 392.68 586.28 392.68 586.28 381.855 517.825 c 0,0,0
 371.03 449.37 371.03 449.37 371.03 393.08 c 0,0,0
 371.03 280.14 371.03 280.14 427.495 216.67 c 0,0,0
 483.96 153.2 483.96 153.2 584.9 153.2 c 0,0,0
 698.52 153.2 698.52 153.2 769.19 236.25 c 0,0,0
 807.81 279.56 807.81 279.56 834.77 349.28 c 0,0,0
 861.73 419 861.73 419 876.205 503.395 c 0,0,0
 890.68 587.79 890.68 587.79 890.68 674.46 c 0,0,0
 890.68 789.42 890.68 789.42 847.7 844.05 c 0,0,0
 804.72 898.68 804.72 898.68 716.12 898.68 c 0,0,0
EndSplineSet
EndChar

StartChar: uni0181
Encoding: 385 385 322
Width: 1585
GlyphClass: 2
Flags: W
LayerCount: 2
Fore
SplineSet
1509.66 433.64 m 0,0,0
 1509.66 221.98 1509.66 221.98 1353.325 110.99 c 0,0,0
 1196.99 0 1196.99 0 895.2 0 c 2,0,0
 226.5 0 l 1,0,0
 462.79 1216.78 l 1,0,0
 444.11 1216.78 l 2,0,0
 364.85 1216.78 364.85 1216.78 324.045 1174.49 c 0,0,0
 283.24 1132.2 283.24 1132.2 283.24 1054.27 c 0,0,0
 283.57 1037.25 283.57 1037.25 285.91 1017.21 c 0,0,0
 288.25 997.17 288.25 997.17 292.6 972.78 c 1,0,0
 93.01 955.78 l 1,0,0
 90.35 973.13 90.35 973.13 88.685 992.485 c 0,0,0
 87.02 1011.84 87.02 1011.84 87.02 1033.21 c 0,0,0
 87.02 1222.64 87.02 1222.64 180.2 1315.82 c 0,0,0
 273.38 1409 273.38 1409 462.8 1409 c 2,0,0
 1059.75 1409 l 2,0,0
 1296.89 1409 1296.89 1409 1423.085 1325.18 c 0,0,0
 1549.28 1241.36 1549.28 1241.36 1549.28 1084.32 c 0,0,0
 1549.28 804.01 1549.28 804.01 1220.33 739.65 c 1,0,0
 1356.99 716.65 1356.99 716.65 1433.325 634.48 c 0,0,0
 1509.66 552.31 1509.66 552.31 1509.66 433.64 c 0,0,0
648.2 830.77 m 1,0,0
 954.41 830.77 l 2,0,0
 1130.4 830.77 1130.4 830.77 1208.85 882.875 c 0,0,0
 1287.3 934.98 1287.3 934.98 1287.3 1047.9 c 0,0,0
 1287.3 1132.52 1287.3 1132.52 1227 1172.15 c 0,0,0
 1166.7 1211.78 1166.7 1211.78 1032.7 1211.78 c 2,0,0
 721.8 1211.78 l 1,0,0
 648.2 830.77 l 1,0,0
524.89 197.22 m 1,0,0
 866.09 197.22 l 2,0,0
 1075.42 197.22 1075.42 197.22 1161.865 255.31 c 0,0,0
 1248.31 313.4 1248.31 313.4 1248.31 438.65 c 0,0,0
 1248.31 534.26 1248.31 534.26 1176.515 584.9 c 0,0,0
 1104.72 635.54 1104.72 635.54 952.37 635.54 c 2,0,0
 610.49 635.54 l 1,0,0
 524.89 197.22 l 1,0,0
EndSplineSet
EndChar

StartChar: uni0182
Encoding: 386 386 323
Width: 1411
GlyphClass: 2
Flags: W
LayerCount: 2
Fore
SplineSet
317.91 1409 m 1,0,0
 1333.02 1409 l 1,0,0
 1293.64 1205.43 l 1,0,0
 539.21 1205.43 l 1,0,0
 467.61 836.45 l 1,0,0
 825.11 836.45 l 2,0,0
 1055.79 836.45 1055.79 836.45 1187.98 734.765 c 0,0,0
 1320.17 633.08 1320.17 633.08 1320.17 453.75 c 0,0,0
 1320.17 237.37 1320.17 237.37 1162.955 118.685 c 0,0,0
 1005.74 0 1005.74 0 725.97 0 c 2,0,0
 44.58 0 l 1,0,0
 317.91 1409 l 1,0,0
344.31 203.93 m 1,0,0
 729.7 203.93 l 2,0,0
 887.9 203.93 887.9 203.93 970.185 263.55 c 0,0,0
 1052.47 323.17 1052.47 323.17 1052.47 436.38 c 0,0,0
 1052.47 533.3 1052.47 533.3 986.015 583.75 c 0,0,0
 919.56 634.2 919.56 634.2 779.26 634.2 c 2,0,0
 428.23 634.2 l 1,0,0
 344.31 203.93 l 1,0,0
EndSplineSet
EndChar

StartChar: uni0183
Encoding: 387 387 324
Width: 1214
GlyphClass: 2
Flags: W
LayerCount: 2
Fore
SplineSet
818.37 1102 m 0,0,0
 976.71 1102 976.71 1102 1065.215 1007.5 c 0,0,0
 1153.72 913 1153.72 913 1153.72 748 c 0,0,0
 1153.72 546.01 1153.72 546.01 1092.05 355 c 0,0,0
 1030.38 163.66 1030.38 163.66 918.045 71.83 c 0,0,0
 805.71 -20 805.71 -20 632.04 -20 c 0,0,0
 507.7 -20 507.7 -20 430.365 32 c 0,0,0
 353.03 84 353.03 84 321.03 178 c 1,0,0
 318.03 178 l 1,0,0
 310.67 142.89 310.67 142.89 296.99 93.7 c 0,0,0
 283.31 44.51 283.31 44.51 271.68 0 c 1,0,0
 33.02 0 l 1,0,0
 36.35 9.65 36.35 9.65 44.495 46.055 c 0,0,0
 52.64 82.46 52.64 82.46 65.94 145.95 c 2,0,0
 327.69 1484 l 1,0,0
 1096.48 1484 l 1,0,0
 1062.13 1288.82 l 1,0,0
 536.99 1288.82 l 1,0,0
 525.68 1231.94 525.68 1231.94 516.195 1184.525 c 0,0,0
 506.71 1137.11 506.71 1137.11 499.05 1098.15 c 0,0,0
 485.03 1031.39 485.03 1031.39 475.025 985.845 c 0,0,0
 465.02 940.3 465.02 940.3 459.03 915.64 c 1,0,0
 463.03 915.64 l 1,0,0
 529.33 1009.97 529.33 1009.97 617.7 1055.985 c 0,0,0
 706.07 1102 706.07 1102 818.37 1102 c 0,0,0
720.81 925.48 m 0,0,0
 552.59 925.48 552.59 925.48 465.31 777.55 c 0,0,0
 436.66 727.57 436.66 727.57 415.34 658.935 c 0,0,0
 394.02 590.3 394.02 590.3 382.525 520.17 c 0,0,0
 371.03 450.04 371.03 450.04 371.03 393.08 c 0,0,0
 371.03 280.14 371.03 280.14 427.495 216.67 c 0,0,0
 483.96 153.2 483.96 153.2 584.9 153.2 c 0,0,0
 693.16 153.2 693.16 153.2 754.45 219.5 c 0,0,0
 785.76 252.15 785.76 252.15 811.245 310.63 c 0,0,0
 836.73 369.11 836.73 369.11 855.72 439.25 c 0,0,0
 874.71 509.39 874.71 509.39 885.04 578.685 c 0,0,0
 895.37 647.98 895.37 647.98 895.37 701.26 c 0,0,0
 895.37 812.2 895.37 812.2 856.075 868.84 c 0,0,0
 816.78 925.48 816.78 925.48 720.81 925.48 c 0,0,0
EndSplineSet
EndChar

StartChar: uni0184
Encoding: 388 388 325
Width: 1411
GlyphClass: 2
Flags: W
LayerCount: 2
Fore
SplineSet
467.28 836.45 m 1,0,0
 821.15 836.45 l 2,0,0
 1051.83 836.45 1051.83 836.45 1184.02 734.765 c 0,0,0
 1316.21 633.08 1316.21 633.08 1316.21 453.75 c 0,0,0
 1316.21 237.37 1316.21 237.37 1158.995 118.685 c 0,0,0
 1001.78 0 1001.78 0 722.01 0 c 2,0,0
 44.25 0 l 1,0,0
 239.24 1005.64 l 1,0,0
 118.6 1196.1 l 1,0,0
 124.6 1231.11 l 1,0,0
 509.53 1409 l 1,0,0
 578.26 1409 l 1,0,0
 467.28 836.45 l 1,0,0
343.98 203.93 m 1,0,0
 725.74 203.93 l 2,0,0
 883.94 203.93 883.94 203.93 966.225 263.55 c 0,0,0
 1048.51 323.17 1048.51 323.17 1048.51 436.38 c 0,0,0
 1048.51 533.3 1048.51 533.3 982.055 583.75 c 0,0,0
 915.6 634.2 915.6 634.2 775.3 634.2 c 2,0,0
 427.9 634.2 l 1,0,0
 343.98 203.93 l 1,0,0
EndSplineSet
EndChar

StartChar: uni0185
Encoding: 389 389 326
Width: 1214
GlyphClass: 2
Flags: W
LayerCount: 2
Fore
SplineSet
818.37 1102 m 0,0,0
 982.33 1102 982.33 1102 1071.34 1000.72 c 0,0,0
 1153.72 907.04 1153.72 907.04 1153.72 748 c 0,0,0
 1153.72 690.66 1153.72 690.66 1148.885 633.485 c 0,0,0
 1144.05 576.31 1144.05 576.31 1133.38 519.63 c 0,0,0
 1106.04 374.66 1106.04 374.66 1056.76 264.58 c 0,0,0
 1007.48 154.5 1007.48 154.5 935.91 89.5 c 0,0,0
 876.21 33.41 876.21 33.41 800.66 6.705 c 0,0,0
 725.11 -20 725.11 -20 632.04 -20 c 0,0,0
 507.7 -20 507.7 -20 430.03 32 c 0,0,0
 352.36 84 352.36 84 320.36 178 c 1,0,0
 318.03 178 l 1,0,0
 310.67 142.89 310.67 142.89 296.99 93.7 c 0,0,0
 283.31 44.51 283.31 44.51 271.68 0 c 1,0,0
 33.02 0 l 1,0,0
 37.36 12.35 37.36 12.35 44.7 46.55 c 0,0,0
 52.04 80.75 52.04 80.75 62.205 127.585 c 0,0,0
 72.37 174.42 72.37 174.42 82.02 223 c 2,0,0
 251.03 1093.37 l 1,0,0
 145.3 1282.08 l 1,0,0
 150.96 1316.42 l 1,0,0
 510.29 1484 l 1,0,0
 575.36 1484 l 1,0,0
 563.02 1421.31 563.02 1421.31 551.69 1364.82 c 0,0,0
 540.36 1308.33 540.36 1308.33 530.7 1257.37 c 0,0,0
 515 1178.88 515 1178.88 503.49 1120.995 c 0,0,0
 491.98 1063.11 491.98 1063.11 483.65 1022.14 c 0,0,0
 478.66 1000.52 478.66 1000.52 470.995 965.355 c 0,0,0
 463.33 930.19 463.33 930.19 459.03 915.64 c 1,0,0
 463.03 915.64 l 1,0,0
 525.98 1004.61 525.98 1004.61 613.345 1053.305 c 0,0,0
 700.71 1102 700.71 1102 818.37 1102 c 0,0,0
720.81 925.48 m 0,0,0
 652.63 925.48 652.63 925.48 597.54 901.06 c 0,0,0
 542.45 876.64 542.45 876.64 499.48 823.11 c 0,0,0
 463.11 780.14 463.11 780.14 434.745 712.3 c 0,0,0
 406.38 644.46 406.38 644.46 388.36 553.01 c 0,0,0
 371.03 461.35 371.03 461.35 371.03 393.08 c 0,0,0
 371.03 279.47 371.03 279.47 427.83 216.335 c 0,0,0
 484.63 153.2 484.63 153.2 584.9 153.2 c 0,0,0
 639.2 153.2 639.2 153.2 682.34 169.525 c 0,0,0
 725.48 185.85 725.48 185.85 759.14 224.19 c 0,0,0
 795.1 264.5 795.1 264.5 823.405 337.27 c 0,0,0
 851.71 410.04 851.71 410.04 872.38 509.4 c 0,0,0
 895.37 616 895.37 616 895.37 701.26 c 0,0,0
 895.37 812.2 895.37 812.2 856.075 868.84 c 0,0,0
 816.78 925.48 816.78 925.48 720.81 925.48 c 0,0,0
EndSplineSet
EndChar

StartChar: uni0186
Encoding: 390 390 327
Width: 1479
GlyphClass: 2
Flags: W
LayerCount: 2
Fore
SplineSet
138.82 1042.18 m 1,0,0
 264.82 1245.59 264.82 1245.59 433.53 1337.795 c 0,0,0
 602.24 1430 602.24 1430 828.98 1430 c 0,0,0
 1017.68 1430 1017.68 1430 1154.7 1360.01 c 0,0,0
 1292.72 1289.02 1292.72 1289.02 1364.735 1159.71 c 0,0,0
 1436.75 1030.4 1436.75 1030.4 1436.75 861.1 c 0,0,0
 1436.75 606.05 1436.75 606.05 1333.09 404.04 c 0,0,0
 1229.43 201.02 1229.43 201.02 1040.25 90.51 c 0,0,0
 851.07 -20 851.07 -20 605.66 -20 c 0,0,0
 379.28 -20 379.28 -20 229.11 79.21 c 0,0,0
 78.94 178.42 78.94 178.42 38.98 356.49 c 1,0,0
 281.96 422.21 l 1,0,0
 306.57 314.9 306.57 314.9 401.36 250.91 c 0,0,0
 496.15 186.92 496.15 186.92 635.09 186.92 c 0,0,0
 798.32 186.92 798.32 186.92 919.56 271.23 c 0,0,0
 1041.47 354.87 1041.47 354.87 1106.085 506.495 c 0,0,0
 1170.7 658.12 1170.7 658.12 1170.7 854.72 c 0,0,0
 1170.7 1028.59 1170.7 1028.59 1070.745 1126 c 0,0,0
 970.79 1223.41 970.79 1223.41 794.54 1223.41 c 0,0,0
 657.26 1223.41 657.26 1223.41 544.335 1154.265 c 0,0,0
 431.41 1085.12 431.41 1085.12 345.47 947.82 c 1,0,0
 138.82 1042.18 l 1,0,0
EndSplineSet
EndChar

StartChar: uni0187
Encoding: 391 391 328
Width: 1479
GlyphClass: 2
Flags: W
LayerCount: 2
Fore
SplineSet
1370.06 346.72 m 1,0,0
 1258.8 160.06 1258.8 160.06 1093.44 70.03 c 0,0,0
 928.08 -20 928.08 -20 707.37 -20 c 0,0,0
 519 -20 519 -20 382.65 52.33 c 0,0,0
 246.3 124.33 246.3 124.33 175.295 258.33 c 0,0,0
 104.29 392.33 104.29 392.33 104.29 569 c 0,0,0
 104.29 819.02 104.29 819.02 209.29 1018.02 c 0,0,0
 314.29 1216.35 314.29 1216.35 502.13 1323.175 c 0,0,0
 689.97 1430 689.97 1430 926.67 1430 c 0,0,0
 1170.14 1430 1170.14 1430 1319.1 1318.85 c 1,0,0
 1331.79 1385.32 l 2,0,0
 1360.78 1529.97 1360.78 1529.97 1452 1603.47 c 0,0,0
 1543.22 1676.97 1543.22 1676.97 1684.3 1676.97 c 0,0,0
 1754.33 1676.97 1754.33 1676.97 1823.4 1658.65 c 1,0,0
 1787.03 1472.14 l 1,0,0
 1735.33 1486.12 1735.33 1486.12 1701.7 1486.12 c 0,0,0
 1644.42 1486.12 1644.42 1486.12 1606.77 1451.83 c 0,0,0
 1569.12 1417.54 1569.12 1417.54 1552.79 1332.91 c 2,0,0
 1498.71 1053.51 l 1,0,0
 1255.73 987.79 l 1,0,0
 1224.09 1096.44 1224.09 1096.44 1134.825 1159.76 c 0,0,0
 1045.56 1223.08 1045.56 1223.08 917.34 1223.08 c 0,0,0
 755.12 1223.08 755.12 1223.08 634.21 1148.48 c 0,0,0
 506.94 1071.2 506.94 1071.2 437.635 922.26 c 0,0,0
 368.33 773.32 368.33 773.32 368.33 570.69 c 0,0,0
 368.33 388.78 368.33 388.78 461.585 287.35 c 0,0,0
 554.84 185.92 554.84 185.92 725.06 185.92 c 0,0,0
 863.01 185.92 863.01 185.92 975.265 253.39 c 0,0,0
 1087.52 320.86 1087.52 320.86 1170.78 454.81 c 1,0,0
 1370.06 346.72 l 1,0,0
EndSplineSet
EndChar

StartChar: uni0188
Encoding: 392 392 329
Width: 1101
GlyphClass: 2
Flags: W
LayerCount: 2
Fore
SplineSet
513.89 156.17 m 0,0,0
 602.5 156.17 602.5 156.17 662.275 209.495 c 0,0,0
 722.05 262.82 722.05 262.82 758.67 371.43 c 1,0,0
 991.72 321.76 l 1,0,0
 881.11 -20 881.11 -20 501.85 -20 c 0,0,0
 290.76 -20 290.76 -20 177.54 91.675 c 0,0,0
 64.32 203.35 64.32 203.35 64.32 401.7 c 0,0,0
 64.32 599.35 64.32 599.35 141.34 769.68 c 0,0,0
 218.03 941.01 218.03 941.01 345.57 1021.505 c 0,0,0
 473.11 1102 473.11 1102 661.85 1102 c 0,0,0
 806.42 1102 806.42 1102 907.44 1040.42 c 1,0,0
 937.75 1178.11 937.75 1178.11 1023.98 1246.62 c 0,0,0
 1110.21 1315.13 1110.21 1315.13 1241.64 1315.13 c 0,0,0
 1313 1315.13 1313 1315.13 1378.75 1296.81 c 1,0,0
 1343.05 1112.31 l 1,0,0
 1290.03 1126.95 1290.03 1126.95 1260.03 1126.95 c 0,0,0
 1204.4 1126.95 1204.4 1126.95 1168.235 1091.505 c 0,0,0
 1132.07 1056.06 1132.07 1056.06 1115.08 969.78 c 2,0,0
 1073.36 755.19 l 1,0,0
 824.67 731.53 l 1,0,0
 819.34 827.19 819.34 827.19 773.38 876.675 c 0,0,0
 727.42 926.16 727.42 926.16 645.13 926.16 c 0,0,0
 542.25 926.16 542.25 926.16 479.99 869.88 c 0,0,0
 437.35 831.23 437.35 831.23 405.03 760.25 c 0,0,0
 372.71 689.27 372.71 689.27 346.68 587.54 c 1,0,0
 322.69 471.52 322.69 471.52 322.69 401.06 c 0,0,0
 322.69 156.17 322.69 156.17 513.89 156.17 c 0,0,0
EndSplineSet
EndChar

StartChar: uni018A
Encoding: 394 394 331
Width: 1617
GlyphClass: 2
Flags: W
LayerCount: 2
Fore
SplineSet
894.45 1409 m 2,0,0
 1111.83 1409 1111.83 1409 1264.175 1337.85 c 0,0,0
 1416.52 1266.7 1416.52 1266.7 1496.015 1131.38 c 0,0,0
 1575.51 996.06 1575.51 996.06 1575.51 801.72 c 0,0,0
 1575.51 566.06 1575.51 566.06 1475.19 386.04 c 0,0,0
 1374.87 206.36 1374.87 206.36 1185.055 103.18 c 0,0,0
 995.24 0 995.24 0 758.28 0 c 2,0,0
 223.5 0 l 1,0,0
 459.46 1216.78 l 1,0,0
 443.12 1216.78 l 2,0,0
 363.86 1216.78 363.86 1216.78 323.055 1174.49 c 0,0,0
 282.25 1132.2 282.25 1132.2 282.25 1054.27 c 0,0,0
 282.58 1037.25 282.58 1037.25 284.92 1017.21 c 0,0,0
 287.26 997.17 287.26 997.17 291.61 972.78 c 1,0,0
 92.02 955.78 l 1,0,0
 89.36 973.13 89.36 973.13 87.695 992.485 c 0,0,0
 86.03 1011.84 86.03 1011.84 86.03 1033.21 c 0,0,0
 86.03 1222.64 86.03 1222.64 179.21 1315.82 c 0,0,0
 272.39 1409 272.39 1409 461.81 1409 c 2,0,0
 894.45 1409 l 2,0,0
523.23 203.25 m 1,0,0
 749.61 203.25 l 2,0,0
 921.82 203.25 921.82 203.25 1053.74 275.22 c 0,0,0
 1184.99 346.19 1184.99 346.19 1255.78 480.635 c 0,0,0
 1326.57 615.08 1326.57 615.08 1326.57 793.67 c 0,0,0
 1326.57 992.57 1326.57 992.57 1214.305 1099.16 c 0,0,0
 1102.04 1205.75 1102.04 1205.75 894.47 1205.75 c 2,0,0
 718.13 1205.75 l 1,0,0
 523.23 203.25 l 1,0,0
EndSplineSet
EndChar

StartChar: uni018B
Encoding: 395 395 332
Width: 1355
GlyphClass: 2
Flags: W
LayerCount: 2
Fore
SplineSet
504.42 0 m 2,0,0
 355.52 0 355.52 0 250.91 48.97 c 0,0,0
 151.56 94.97 151.56 94.97 98.55 178.145 c 0,0,0
 45.54 261.32 45.54 261.32 45.54 371.98 c 0,0,0
 45.54 530.51 45.54 530.51 134.38 638.82 c 0,0,0
 206.05 732.95 206.05 732.95 329.45 782.355 c 0,0,0
 452.85 831.76 452.85 831.76 615.62 831.76 c 2,0,0
 1022.64 831.76 l 1,0,0
 1095.24 1205.43 l 1,0,0
 371.42 1205.43 l 1,0,0
 410.8 1409 l 1,0,0
 1395.3 1409 l 1,0,0
 1121.97 0 l 1,0,0
 504.42 0 l 2,0,0
984.6 635.87 m 1,0,0
 638.69 635.87 l 2,0,0
 476.8 635.87 476.8 635.87 394.35 573.235 c 0,0,0
 311.9 510.6 311.9 510.6 311.9 390.02 c 0,0,0
 311.9 295.11 311.9 295.11 376.01 246 c 0,0,0
 440.12 196.89 440.12 196.89 567.69 196.89 c 2,0,0
 901.64 196.89 l 1,0,0
 984.6 635.87 l 1,0,0
EndSplineSet
EndChar

StartChar: uni018C
Encoding: 396 396 333
Width: 1214
GlyphClass: 2
Flags: W
LayerCount: 2
Fore
SplineSet
394.97 -21 m 0,0,0
 239.98 -21 239.98 -21 150.805 78.525 c 0,0,0
 61.63 178.05 61.63 178.05 61.63 347.07 c 0,0,0
 61.63 542.37 61.63 542.37 124.97 727.67 c 0,0,0
 188.31 913.31 188.31 913.31 302.325 1007.49 c 0,0,0
 416.34 1101.67 416.34 1101.67 582.64 1101.67 c 0,0,0
 706.31 1101.67 706.31 1101.67 785.82 1050.675 c 0,0,0
 865.33 999.68 865.33 999.68 895.32 903.67 c 1,0,0
 900.32 903.67 l 1,0,0
 903.97 927.92 903.97 927.92 908.29 955.355 c 0,0,0
 912.61 982.79 912.61 982.79 917.6 1012.74 c 0,0,0
 924.24 1050.94 924.24 1050.94 937.91 1119.96 c 0,0,0
 971.28 1288.82 l 1,0,0
 446.14 1288.82 l 1,0,0
 487.19 1484 l 1,0,0
 1255.31 1484 l 1,0,0
 1015 228.36 l 2,0,0
 1005 172.69 1005 172.69 997.34 115.35 c 0,0,0
 989.68 58.01 989.68 58.01 983.03 0 c 1,0,0
 738 0 l 1,0,0
 738 29.35 738 29.35 742.83 75.55 c 0,0,0
 747.66 121.75 747.66 121.75 754.98 160 c 1,0,0
 750.65 160 l 1,0,0
 678.99 66.34 678.99 66.34 596.985 22.67 c 0,0,0
 514.98 -21 514.98 -21 394.97 -21 c 0,0,0
494.54 154.18 m 0,0,0
 662.42 154.18 662.42 154.18 748.7 302.44 c 0,0,0
 778.35 352.42 778.35 352.42 799.505 420.89 c 0,0,0
 820.66 489.36 820.66 489.36 832.155 560.325 c 0,0,0
 843.65 631.29 843.65 631.29 843.65 688.59 c 0,0,0
 843.65 810.24 843.65 810.24 791.205 869.69 c 0,0,0
 738.76 929.14 738.76 929.14 638.49 929.14 c 0,0,0
 529.9 929.14 529.9 929.14 462.59 858.16 c 0,0,0
 417.94 810.84 417.94 810.84 386.79 728.565 c 0,0,0
 355.64 646.29 355.64 646.29 339.15 554.015 c 0,0,0
 322.66 461.74 322.66 461.74 322.66 383.76 c 0,0,0
 322.66 269.47 322.66 269.47 364.97 211.825 c 0,0,0
 407.28 154.18 407.28 154.18 494.54 154.18 c 0,0,0
EndSplineSet
EndChar

StartChar: uni018D
Encoding: 397 397 334
Width: 1213
GlyphClass: 2
Flags: W
LayerCount: 2
Fore
SplineSet
1160.43 679.65 m 0,0,0
 1160.43 506.66 1160.43 506.66 1096.1 358.44 c 0,0,0
 1031.44 209.88 1031.44 209.88 908.27 117.87 c 0,0,0
 785.1 25.86 785.1 25.86 610.12 -0.24 c 1,0,0
 905.48 -260.17 l 1,0,0
 873.78 -424.33 l 1,0,0
 11.5 -424.33 l 1,0,0
 47.54 -240.47 l 1,0,0
 439.67 -240.47 l 1,0,0
 578.27 -243.11 l 1,0,0
 256.17 45.62 l 2,0,0
 175.5 118.95 175.5 118.95 142.51 180.85 c 0,0,0
 112.13 232.54 112.13 232.54 94.925 295.26 c 0,0,0
 77.72 357.98 77.72 357.98 77.72 435.75 c 0,0,0
 77.72 622.76 77.72 622.76 155.77 779.05 c 0,0,0
 233.82 933.67 233.82 933.67 376.4 1017.67 c 0,0,0
 518.98 1101.67 518.98 1101.67 711.01 1101.67 c 0,0,0
 927.04 1101.67 927.04 1101.67 1043.735 990.495 c 0,0,0
 1160.43 879.32 1160.43 879.32 1160.43 679.65 c 0,0,0
903.41 687.02 m 0,0,0
 903.41 804.56 903.41 804.56 845.43 866.68 c 0,0,0
 787.45 928.8 787.45 928.8 678.86 928.8 c 0,0,0
 565.3 928.8 565.3 928.8 491 864.49 c 0,0,0
 441.02 821.17 441.02 821.17 406.54 751.725 c 0,0,0
 372.06 682.28 372.06 682.28 353.905 597.16 c 0,0,0
 335.75 512.04 335.75 512.04 335.75 420.02 c 0,0,0
 335.75 293.46 335.75 293.46 391.375 229.695 c 0,0,0
 447 165.93 447 165.93 545.55 165.93 c 0,0,0
 614.04 165.93 614.04 165.93 664.81 187.86 c 0,0,0
 715.58 209.79 715.58 209.79 756.88 255.63 c 0,0,0
 801.61 299.59 801.61 299.59 834.32 368.565 c 0,0,0
 867.03 437.54 867.03 437.54 885.22 520.395 c 0,0,0
 903.41 603.25 903.41 603.25 903.41 687.02 c 0,0,0
EndSplineSet
EndChar

StartChar: uni018E
Encoding: 398 398 335
Width: 1366
GlyphClass: 2
Flags: W
LayerCount: 2
Fore
SplineSet
3.5 0 m 1,0,0
 43.87 204.24 l 1,0,0
 891.85 204.24 l 1,0,0
 972.4 603.45 l 1,0,0
 198.62 603.45 l 1,0,0
 238.99 807.03 l 1,0,0
 1012.77 807.03 l 1,0,0
 1092.69 1204.76 l 1,0,0
 230.77 1204.76 l 1,0,0
 271.81 1409 l 1,0,0
 1393.74 1409 l 1,0,0
 1112.16 0 l 1,0,0
 3.5 0 l 1,0,0
EndSplineSet
EndChar

StartChar: uni018F
Encoding: 399 399 336
Width: 1551
GlyphClass: 2
Flags: W
LayerCount: 2
Fore
SplineSet
1212.15 835.46 m 1,0,0
 1213.15 851.43 1213.15 851.43 1213.65 865.595 c 0,0,0
 1214.15 879.76 1214.15 879.76 1214.15 891.45 c 0,0,0
 1214.15 1040.58 1214.15 1040.58 1124.385 1132.5 c 0,0,0
 1034.62 1224.42 1034.62 1224.42 888.14 1224.42 c 0,0,0
 805.14 1224.42 805.14 1224.42 741.19 1206.42 c 0,0,0
 670.32 1185.77 670.32 1185.77 614.435 1140.835 c 0,0,0
 558.55 1095.9 558.55 1095.9 499.25 1004.92 c 1,0,0
 270.28 1073.63 l 1,0,0
 367.84 1258.66 367.84 1258.66 519.62 1344.33 c 0,0,0
 671.4 1430 671.4 1430 894.12 1430 c 0,0,0
 1073.13 1430 1073.13 1430 1204.155 1359.155 c 0,0,0
 1335.18 1288.31 1335.18 1288.31 1406.7 1157.125 c 0,0,0
 1478.22 1025.94 1478.22 1025.94 1478.22 844.59 c 0,0,0
 1478.22 597.29 1478.22 597.29 1374.19 398.64 c 0,0,0
 1269.49 199.99 1269.49 199.99 1083.14 89.995 c 0,0,0
 896.79 -20 896.79 -20 660.16 -20 c 0,0,0
 492.55 -20 492.55 -20 369.57 50.36 c 0,0,0
 245.6 120.05 245.6 120.05 178.775 249.065 c 0,0,0
 111.95 378.08 111.95 378.08 111.95 543.35 c 0,0,0
 111.95 685.45 111.95 685.45 156.32 835.46 c 1,0,0
 1212.15 835.46 l 1,0,0
700.99 179.6 m 0,0,0
 877.41 179.6 877.41 179.6 1000.605 296.335 c 0,0,0
 1123.8 413.07 1123.8 413.07 1176.09 625.87 c 1,0,0
 376 625.87 l 1,0,0
 368.34 579.59 368.34 579.59 368.34 526.6 c 0,0,0
 368.34 363.12 368.34 363.12 455.42 271.36 c 0,0,0
 542.5 179.6 542.5 179.6 700.99 179.6 c 0,0,0
EndSplineSet
EndChar

StartChar: uni0190
Encoding: 400 400 337
Width: 1296
GlyphClass: 2
Flags: W
LayerCount: 2
Fore
SplineSet
557.06 -20 m 0,0,0
 406.79 -20 406.79 -20 292.12 30.3 c 0,0,0
 186.04 76.97 186.04 76.97 128.33 158.15 c 0,0,0
 70.62 239.33 70.62 239.33 70.62 343.66 c 0,0,0
 70.62 502.97 70.62 502.97 172.435 604.62 c 0,0,0
 274.25 706.27 274.25 706.27 460.27 731.94 c 1,0,0
 354.28 761.95 354.28 761.95 294.775 830.79 c 0,0,0
 235.27 899.63 235.27 899.63 235.27 999.62 c 0,0,0
 235.27 1126.61 235.27 1126.61 305.94 1226.62 c 0,0,0
 374.96 1323.31 374.96 1323.31 499.82 1376.155 c 0,0,0
 624.68 1429 624.68 1429 782.01 1429 c 0,0,0
 994.07 1429 994.07 1429 1120.13 1334.445 c 0,0,0
 1246.19 1239.89 1246.19 1239.89 1284.87 1053.16 c 1,0,0
 1044.88 996.13 l 1,0,0
 1014.58 1124.45 1014.58 1124.45 947.1 1178.455 c 0,0,0
 879.62 1232.46 879.62 1232.46 766.33 1232.46 c 0,0,0
 638.77 1232.46 638.77 1232.46 563.34 1171.53 c 0,0,0
 487.91 1110.6 487.91 1110.6 487.91 999.68 c 0,0,0
 487.91 915.42 487.91 915.42 557.53 867.755 c 0,0,0
 627.15 820.09 627.15 820.09 769.38 820.09 c 2,0,0
 829.04 820.09 l 1,0,0
 789.99 619.16 l 1,0,0
 727.03 619.16 l 2,0,0
 520.11 619.16 520.11 619.16 425.865 560.74 c 0,0,0
 331.62 502.32 331.62 502.32 331.62 376.77 c 0,0,0
 331.62 286.84 331.62 286.84 402.59 235.045 c 0,0,0
 473.56 183.25 473.56 183.25 596.17 183.25 c 0,0,0
 839.77 183.25 839.77 183.25 982.63 442.52 c 1,0,0
 1195.97 325.37 l 1,0,0
 1125.38 202.08 1125.38 202.08 1040.7 129.39 c 0,0,0
 951 51.68 951 51.68 832.43 15.84 c 0,0,0
 713.86 -20 713.86 -20 557.06 -20 c 0,0,0
EndSplineSet
EndChar

StartChar: uni0191
Encoding: 401 401 338
Width: 1251
GlyphClass: 2
Flags: W
LayerCount: 2
Fore
SplineSet
285.28 -100.19 m 2,0,0
 251.92 -269.64 251.92 -269.64 161.885 -347.155 c 0,0,0
 71.85 -424.67 71.85 -424.67 -101.6 -424.67 c 0,0,0
 -171.29 -424.67 -171.29 -424.67 -248.73 -404.34 c 1,0,0
 -210.69 -205.79 l 1,0,0
 -154.3 -220.44 -154.3 -220.44 -120 -220.44 c 0,0,0
 -55.01 -220.44 -55.01 -220.44 -18.53 -180.455 c 0,0,0
 17.95 -140.47 17.95 -140.47 33.94 -57.18 c 2,0,0
 317.91 1409 l 1,0,0
 1312.16 1409 l 1,0,0
 1272.78 1204.76 l 1,0,0
 539.21 1204.76 l 1,0,0
 448.6 739.72 l 1,0,0
 1158.84 739.72 l 1,0,0
 1119.13 534.82 l 1,0,0
 408.89 534.82 l 1,0,0
 285.28 -100.19 l 2,0,0
EndSplineSet
EndChar

StartChar: florin
Encoding: 402 402 339
Width: 1139
GlyphClass: 2
Flags: W
LayerCount: 2
Fore
SplineSet
1039.39 1294.58 m 1,0,0
 1023.77 1298.56 1023.77 1298.56 993.09 1302.395 c 0,0,0
 962.41 1306.23 962.41 1306.23 938.77 1306.23 c 0,0,0
 874.08 1306.23 874.08 1306.23 843.42 1272.58 c 0,0,0
 812.76 1238.93 812.76 1238.93 797.78 1164.36 c 2,0,0
 778.48 1062.2 l 1,0,0
 990.82 1062.2 l 1,0,0
 957.78 891.67 l 1,0,0
 744.78 891.67 l 1,0,0
 486.78 -435.23 l 1,0,0
 239.78 -435.23 l 1,0,0
 497.78 891.67 l 1,0,0
 341.76 891.67 l 1,0,0
 375.46 1062.2 l 1,0,0
 531.15 1062.2 l 1,0,0
 555.46 1188.07 l 2,0,0
 585.79 1342.41 585.79 1342.41 673.69 1408.255 c 0,0,0
 761.59 1474.1 761.59 1474.1 920.72 1474.1 c 0,0,0
 993.03 1474.1 993.03 1474.1 1073.74 1456.11 c 1,0,0
 1039.39 1294.58 l 1,0,0
EndSplineSet
EndChar

StartChar: uni0193
Encoding: 403 403 340
Width: 1593
GlyphClass: 2
Flags: W
LayerCount: 2
Fore
SplineSet
740.66 -19.33 m 0,0,0
 439.01 -19.33 439.01 -19.33 269.67 138.345 c 0,0,0
 100.33 296.02 100.33 296.02 100.33 579.7 c 0,0,0
 100.33 828.36 100.33 828.36 204.66 1023.02 c 0,0,0
 308.99 1217.34 308.99 1217.34 501.155 1323.67 c 0,0,0
 693.32 1430 693.32 1430 942.66 1430 c 0,0,0
 1189.8 1430 1189.8 1430 1340.8 1316.12 c 1,0,0
 1354.17 1385.32 l 2,0,0
 1382.17 1528.32 1382.17 1528.32 1473.72 1602.645 c 0,0,0
 1565.27 1676.97 1565.27 1676.97 1706.68 1676.97 c 0,0,0
 1776.71 1676.97 1776.71 1676.97 1845.78 1658.65 c 1,0,0
 1809.41 1472.14 l 1,0,0
 1757.71 1486.12 1757.71 1486.12 1724.08 1486.12 c 0,0,0
 1666.8 1486.12 1666.8 1486.12 1629.315 1451.83 c 0,0,0
 1591.83 1417.54 1591.83 1417.54 1575.17 1332.91 c 2,0,0
 1521.75 1058.47 l 1,0,0
 1269.12 988.39 l 1,0,0
 1237.48 1102.05 1237.48 1102.05 1149.86 1162.565 c 0,0,0
 1062.24 1223.08 1062.24 1223.08 927.98 1223.08 c 0,0,0
 757.75 1223.08 757.75 1223.08 629.5 1144.45 c 0,0,0
 501.25 1065.15 501.25 1065.15 433.295 920.72 c 0,0,0
 365.34 776.29 365.34 776.29 365.34 587.05 c 0,0,0
 365.34 398.83 365.34 398.83 467.93 292.375 c 0,0,0
 570.52 185.92 570.52 185.92 758.72 185.92 c 0,0,0
 877.61 185.92 877.61 185.92 988.355 216.87 c 0,0,0
 1099.1 247.82 1099.1 247.82 1175.39 301.72 c 1,0,0
 1223.04 538.3 l 1,0,0
 854.97 538.3 l 1,0,0
 891.66 730.46 l 1,0,0
 1500.05 730.46 l 1,0,0
 1396.7 186.55 l 1,0,0
 1252.01 77.94 1252.01 77.94 1094.515 29.305 c 0,0,0
 937.02 -19.33 937.02 -19.33 740.66 -19.33 c 0,0,0
EndSplineSet
EndChar

StartChar: uni0194
Encoding: 404 404 341
Width: 1187
GlyphClass: 2
Flags: W
LayerCount: 2
Fore
SplineSet
428.09 -425 m 0,0,0
 312.02 -425 312.02 -425 241.805 -360.135 c 0,0,0
 171.59 -295.27 171.59 -295.27 171.59 -187.58 c 0,0,0
 171.59 -129.88 171.59 -129.88 196.1 -65.535 c 0,0,0
 220.61 -1.19 220.61 -1.19 277.03 82.22 c 0,0,0
 301.05 117.56 301.05 117.56 336.04 163.35 c 0,0,0
 371.03 209.14 371.03 209.14 416.65 265.71 c 1,0,0
 136.1 1409 l 1,0,0
 407.8 1409 l 1,0,0
 595.57 499.77 l 1,0,0
 1135.17 1409 l 1,0,0
 1407.5 1409 l 1,0,0
 682.32 262.41 l 1,0,0
 740.36 92.01 740.36 92.01 755.7 22.37 c 0,0,0
 770.71 -45.96 770.71 -45.96 770.71 -101.28 c 0,0,0
 770.71 -200.01 770.71 -200.01 727.67 -274.67 c 0,0,0
 686.98 -347.32 686.98 -347.32 610.085 -386.16 c 0,0,0
 533.19 -425 533.19 -425 428.09 -425 c 0,0,0
456.49 -236.81 m 0,0,0
 507.83 -236.81 507.83 -236.81 533.315 -197.18 c 0,0,0
 558.8 -157.55 558.8 -157.55 558.8 -95.33 c 0,0,0
 558.8 -34.64 558.8 -34.64 546.78 14.825 c 0,0,0
 534.76 64.29 534.76 64.29 521.11 106.55 c 1,0,0
 482.43 54.23 l 2,0,0
 436.46 -9.01 436.46 -9.01 412.32 -63.59 c 0,0,0
 388.18 -118.17 388.18 -118.17 388.18 -157.49 c 0,0,0
 388.18 -191.8 388.18 -191.8 406.005 -214.305 c 0,0,0
 423.83 -236.81 423.83 -236.81 456.49 -236.81 c 0,0,0
EndSplineSet
EndChar

StartChar: uni0195
Encoding: 405 405 342
Width: 1875
GlyphClass: 2
Flags: W
LayerCount: 2
Fore
SplineSet
1199.61 -20 m 0,0,0
 1006.89 -20 1006.89 -20 903.505 60.515 c 0,0,0
 800.12 141.03 800.12 141.03 800.12 287.75 c 0,0,0
 800.12 328.18 800.12 328.18 805.97 371.785 c 0,0,0
 811.82 415.39 811.82 415.39 820.17 458.82 c 2,0,0
 852.37 620.47 l 2,0,0
 861.71 663.82 861.71 663.82 868.225 704.69 c 0,0,0
 874.74 745.56 874.74 745.56 874.74 771.22 c 0,0,0
 874.74 913.09 874.74 913.09 714.16 913.09 c 0,0,0
 641.55 913.09 641.55 913.09 576.25 873.78 c 0,0,0
 510.95 834.47 510.95 834.47 464.805 765.685 c 0,0,0
 418.66 696.9 418.66 696.9 401.01 607.65 c 2,0,0
 282.68 0 l 1,0,0
 34.67 0 l 1,0,0
 321.33 1484 l 1,0,0
 568.33 1484 l 1,0,0
 490.65 1085.27 l 2,0,0
 480.65 1036.3 480.65 1036.3 470.49 989.65 c 0,0,0
 460.33 943 460.33 943 449.34 897 c 1,0,0
 452.34 897 l 1,0,0
 527.35 1004 527.35 1004 616.2 1052.5 c 0,0,0
 705.05 1101 705.05 1101 822.7 1101 c 0,0,0
 972.72 1101 972.72 1101 1049.06 1028 c 0,0,0
 1125.4 955 1125.4 955 1125.4 817.99 c 0,0,0
 1125.4 784.98 1125.4 784.98 1120.225 740.425 c 0,0,0
 1115.05 695.87 1115.05 695.87 1103.03 637.77 c 2,0,0
 1070.15 470.73 l 2,0,0
 1049.11 368.86 1049.11 368.86 1049.11 333.57 c 0,0,0
 1049.11 248.22 1049.11 248.22 1088.755 207.4 c 0,0,0
 1128.4 166.58 1128.4 166.58 1212.97 166.58 c 0,0,0
 1316.88 166.58 1316.88 166.58 1378.025 229.76 c 0,0,0
 1439.17 292.94 1439.17 292.94 1466.15 430.18 c 2,0,0
 1593.45 1082 l 1,0,0
 1840.78 1082 l 1,0,0
 1712.84 425.97 l 2,0,0
 1667.48 193.5 1667.48 193.5 1542.26 86.75 c 0,0,0
 1417.04 -20 1417.04 -20 1199.61 -20 c 0,0,0
EndSplineSet
EndChar

StartChar: uni0196
Encoding: 406 406 343
Width: 531
GlyphClass: 2
Flags: W
LayerCount: 2
Fore
SplineSet
313.68 147.04 m 0,0,0
 313.68 104.35 313.68 104.35 324.505 66.675 c 0,0,0
 335.33 29 335.33 29 356.67 0 c 1,0,0
 90.33 0 l 1,0,0
 63 46.03 63 46.03 63 128.35 c 0,0,0
 63 176.32 63 176.32 74 236 c 2,0,0
 317 1484 l 1,0,0
 565.34 1484 l 1,0,0
 322.68 236.38 l 2,0,0
 318.01 213.03 318.01 213.03 315.845 190.375 c 0,0,0
 313.68 167.72 313.68 167.72 313.68 147.04 c 0,0,0
EndSplineSet
EndChar

StartChar: uni0197
Encoding: 407 407 344
Width: 569
GlyphClass: 2
Flags: W
LayerCount: 2
Fore
SplineSet
422.15 641.18 m 1,0,0
 297.18 0 l 1,0,0
 49.84 0 l 1,0,0
 174.48 641.18 l 1,0,0
 24.55 641.18 l 1,0,0
 62.27 835.78 l 1,0,0
 212.53 835.78 l 1,0,0
 338.51 1484 l 1,0,0
 586.18 1484 l 1,0,0
 459.87 835.78 l 1,0,0
 620.49 835.78 l 1,0,0
 582.77 641.18 l 1,0,0
 422.15 641.18 l 1,0,0
EndSplineSet
EndChar

StartChar: uni0198
Encoding: 408 408 345
Width: 1441
GlyphClass: 2
Flags: W
LayerCount: 2
Fore
SplineSet
801.55 788.38 m 1,0,0
 1296.91 0 l 1,0,0
 1003.91 0 l 1,0,0
 610.3 651.22 l 1,0,0
 406.23 526.24 l 1,0,0
 304.92 0 l 1,0,0
 44.91 0 l 1,0,0
 317.91 1409 l 1,0,0
 577.92 1409 l 1,0,0
 446.61 752.84 l 1,0,0
 619.77 901.94 l 1,0,0
 1027.04 1247.6 l 2,0,0
 1073.47 1286.68 1073.47 1286.68 1114.205 1316.725 c 0,0,0
 1154.94 1346.77 1154.94 1346.77 1193 1368.11 c 0,0,0
 1291.64 1428.35 1291.64 1428.35 1407.27 1428.35 c 0,0,0
 1447.63 1428.35 1447.63 1428.35 1481.47 1422.35 c 0,0,0
 1515.31 1416.35 1515.31 1416.35 1543.32 1408.02 c 1,0,0
 1503.28 1208.15 l 1,0,0
 1479.93 1214.14 1479.93 1214.14 1456.585 1218.47 c 0,0,0
 1433.24 1222.8 1433.24 1222.8 1410.91 1222.8 c 0,0,0
 1365.23 1222.8 1365.23 1222.8 1313.56 1198.78 c 0,0,0
 1262.56 1174.43 1262.56 1174.43 1188.65 1111.17 c 2,0,0
 801.55 788.38 l 1,0,0
EndSplineSet
EndChar

StartChar: uni0199
Encoding: 409 409 346
Width: 1101
GlyphClass: 2
Flags: W
LayerCount: 2
Fore
SplineSet
362.05 407.48 m 1,0,0
 281.34 0 l 1,0,0
 34.67 0 l 1,0,0
 266.31 1194.2 l 2,0,0
 293.99 1340.94 293.99 1340.94 380.695 1414.78 c 0,0,0
 467.4 1488.62 467.4 1488.62 617.21 1488.62 c 0,0,0
 696.59 1488.62 696.59 1488.62 765.66 1470.3 c 1,0,0
 729.29 1283.79 l 1,0,0
 676.6 1298.43 676.6 1298.43 646.27 1298.43 c 0,0,0
 590.64 1298.43 590.64 1298.43 554.98 1262.49 c 0,0,0
 519.32 1226.55 519.32 1226.55 501.99 1140.27 c 2,0,0
 399.38 611.89 l 1,0,0
 592.66 795.86 l 1,0,0
 897.38 1082 l 1,0,0
 1186.38 1082 l 1,0,0
 694.57 645.81 l 1,0,0
 989.7 0 l 1,0,0
 725.69 0 l 1,0,0
 511.29 498.65 l 1,0,0
 362.05 407.48 l 1,0,0
EndSplineSet
EndChar

StartChar: uni019A
Encoding: 410 410 347
Width: 531
GlyphClass: 2
Flags: W
LayerCount: 2
Fore
SplineSet
402.67 637.19 m 1,0,0
 279.03 0 l 1,0,0
 32.36 0 l 1,0,0
 156 637.19 l 1,0,0
 9.6 637.19 l 1,0,0
 46.64 818.09 l 1,0,0
 190.71 818.09 l 1,0,0
 320.36 1484 l 1,0,0
 568.03 1484 l 1,0,0
 438.05 818.09 l 1,0,0
 598.16 818.09 l 1,0,0
 561.12 637.19 l 1,0,0
 402.67 637.19 l 1,0,0
EndSplineSet
EndChar

StartChar: uni019B
Encoding: 411 411 348
Width: 1095
GlyphClass: 2
Flags: W
LayerCount: 2
Fore
SplineSet
947.49 1285.74 m 1,0,0
 755.38 1213 l 1,0,0
 984.09 0 l 1,0,0
 727.71 0 l 1,0,0
 643.42 532.78 l 2,0,0
 634.76 586.44 634.76 586.44 626.585 639.94 c 0,0,0
 618.41 693.44 618.41 693.44 612.39 746.11 c 1,0,0
 601.02 726.38 601.02 726.38 591.47 708.46 c 0,0,0
 581.92 690.54 581.92 690.54 569.56 668.83 c 0,0,0
 557.2 647.12 557.2 647.12 538.74 615.01 c 0,0,0
 520.28 582.9 520.28 582.9 491.09 534.13 c 2,0,0
 175.36 0 l 1,0,0
 -87.31 0 l 1,0,0
 539.25 1016.18 l 1,0,0
 522.66 1123.49 l 1,0,0
 250.67 1020.98 l 1,0,0
 216.28 1175.83 l 1,0,0
 488.96 1279.67 l 1,0,0
 449.27 1484 l 1,0,0
 704.37 1484 l 1,0,0
 725.01 1370.84 l 1,0,0
 912.43 1442.24 l 1,0,0
 947.49 1285.74 l 1,0,0
EndSplineSet
EndChar

StartChar: uni019C
Encoding: 412 412 349
Width: 1821
GlyphClass: 2
Flags: W
LayerCount: 2
Fore
SplineSet
1026.93 -20 m 0,0,0
 948.3 -20 948.3 -20 898.35 3.98 c 0,0,0
 851.67 25.32 851.67 25.32 820.01 63.835 c 0,0,0
 788.35 102.35 788.35 102.35 765.68 172.79 c 1,0,0
 760.99 172.79 l 1,0,0
 728.63 135.41 728.63 135.41 699.445 107.715 c 0,0,0
 670.26 80.02 670.26 80.02 644.59 60.68 c 0,0,0
 588.61 19.69 588.61 19.69 526.09 -0.155 c 0,0,0
 463.57 -20 463.57 -20 388.86 -20 c 0,0,0
 233.58 -20 233.58 -20 153.28 57.635 c 0,0,0
 72.98 135.27 72.98 135.27 72.98 286.89 c 0,0,0
 72.98 348.84 72.98 348.84 87.95 427.02 c 2,0,0
 279.01 1409 l 1,0,0
 538.7 1409 l 1,0,0
 358.36 479.96 l 2,0,0
 337.01 368.87 337.01 368.87 337.01 318.94 c 0,0,0
 337.01 242.74 337.01 242.74 370.795 207.63 c 0,0,0
 404.58 172.52 404.58 172.52 476.79 172.52 c 0,0,0
 586.4 172.52 586.4 172.52 658.915 252.87 c 0,0,0
 731.43 333.22 731.43 333.22 758.75 473.5 c 2,0,0
 940.05 1409 l 1,0,0
 1200.07 1409 l 1,0,0
 1017.75 469.4 l 2,0,0
 995.05 353.2 995.05 353.2 995.05 309.27 c 0,0,0
 995.05 242.41 995.05 242.41 1029.85 207.465 c 0,0,0
 1064.65 172.52 1064.65 172.52 1131.54 172.52 c 0,0,0
 1238.12 172.52 1238.12 172.52 1316.96 261.895 c 0,0,0
 1395.8 351.27 1395.8 351.27 1426.8 508.92 c 2,0,0
 1601.75 1409 l 1,0,0
 1861.77 1409 l 1,0,0
 1639.47 263.83 l 2,0,0
 1627.46 200.76 1627.46 200.76 1615.61 135.22 c 0,0,0
 1603.76 69.68 1603.76 69.68 1591.74 0.67 c 1,0,0
 1333.96 0.67 l 1,0,0
 1353.63 161.41 l 1,0,0
 1349.96 160.09 l 1,0,0
 1290.62 69.35 1290.62 69.35 1212.305 24.675 c 0,0,0
 1133.99 -20 1133.99 -20 1026.93 -20 c 0,0,0
EndSplineSet
EndChar

StartChar: uni019D
Encoding: 413 413 350
Width: 1479
GlyphClass: 2
Flags: W
LayerCount: 2
Fore
SplineSet
917.99 0 m 1,0,0
 492.18 1157.07 l 1,0,0
 479.2 1065.51 479.2 1065.51 469.37 1003.2 c 0,0,0
 459.54 940.89 459.54 940.89 452.86 908.83 c 2,0,0
 257.91 -94.16 l 2,0,0
 233.89 -215.59 233.89 -215.59 190.04 -288.46 c 0,0,0
 146.19 -361.33 146.19 -361.33 75.325 -393 c 0,0,0
 4.46 -424.67 4.46 -424.67 -102.27 -424.67 c 0,0,0
 -171.96 -424.67 -171.96 -424.67 -249.4 -404.34 c 1,0,0
 -209.35 -199.09 l 1,0,0
 -154.97 -213.74 -154.97 -213.74 -120 -213.74 c 0,0,0
 -55.01 -213.74 -55.01 -213.74 -18.195 -173.755 c 0,0,0
 18.62 -133.77 18.62 -133.77 34.61 -50.48 c 2,0,0
 318.58 1409 l 1,0,0
 623.04 1409 l 1,0,0
 1051.85 243.58 l 1,0,0
 1061.5 320.49 1061.5 320.49 1072.165 386.465 c 0,0,0
 1082.83 452.44 1082.83 452.44 1094.17 508.82 c 2,0,0
 1270.48 1409 l 1,0,0
 1502.78 1409 l 1,0,0
 1229.11 0 l 1,0,0
 917.99 0 l 1,0,0
EndSplineSet
EndChar

StartChar: uni019E
Encoding: 414 414 351
Width: 1214
GlyphClass: 2
Flags: W
LayerCount: 2
Fore
SplineSet
1110.76 685.83 m 2,0,0
 893.39 -425 l 1,0,0
 646.73 -425 l 1,0,0
 851.71 611.5 l 2,0,0
 875.07 725.96 875.07 725.96 875.07 771.55 c 0,0,0
 875.07 913.09 875.07 913.09 714.16 913.09 c 0,0,0
 641.55 913.09 641.55 913.09 576.415 873.945 c 0,0,0
 511.28 834.8 511.28 834.8 465.135 765.685 c 0,0,0
 418.99 696.57 418.99 696.57 401.01 606 c 2,0,0
 283.01 0 l 1,0,0
 34.67 0 l 1,0,0
 197.04 830.54 l 2,0,0
 202.36 854.81 202.36 854.81 207.02 886.55 c 0,0,0
 211.68 918.29 211.68 918.29 214.36 941.32 c 0,0,0
 217.04 957.36 217.04 957.36 218.89 982.665 c 0,0,0
 220.74 1007.97 220.74 1007.97 222.425 1034.95 c 0,0,0
 224.11 1061.93 224.11 1061.93 226.13 1082 c 1,0,0
 460.47 1082 l 1,0,0
 462.12 1071.38 462.12 1071.38 460.26 1036.51 c 0,0,0
 458.4 1001.64 458.4 1001.64 455.21 962.28 c 0,0,0
 452.02 922.92 452.02 922.92 449.34 897 c 1,0,0
 452.34 897 l 1,0,0
 530.65 1006.64 530.65 1006.64 618.84 1053.82 c 0,0,0
 707.03 1101 707.03 1101 822.7 1101 c 0,0,0
 973.38 1101 973.38 1101 1049.555 1028 c 0,0,0
 1125.73 955 1125.73 955 1125.73 817 c 0,0,0
 1125.73 793.04 1125.73 793.04 1121.735 757.4 c 0,0,0
 1117.74 721.76 1117.74 721.76 1110.76 685.83 c 2,0,0
EndSplineSet
EndChar

StartChar: Ohorn
Encoding: 416 416 353
Width: 1697
GlyphClass: 2
Flags: W
LayerCount: 2
Fore
SplineSet
931.3 1430 m 0,0,0
 1177.72 1430 1177.72 1430 1338.095 1313.295 c 0,0,0
 1498.47 1196.59 1498.47 1196.59 1538.44 984.18 c 1,0,0
 1627.7 1018.45 1627.7 1018.45 1668.33 1066.42 c 0,0,0
 1708.96 1114.39 1708.96 1114.39 1722.95 1179.69 c 1,0,0
 1608.82 1179.69 l 1,0,0
 1654.54 1409 l 1,0,0
 1911.18 1409 l 1,0,0
 1875.78 1231.98 l 2,0,0
 1847.45 1091.63 1847.45 1091.63 1771.43 1003.28 c 0,0,0
 1695.41 914.93 1695.41 914.93 1549.76 865.33 c 1,0,0
 1550.42 848.37 1550.42 848.37 1550.58 832.225 c 0,0,0
 1550.74 816.08 1550.74 816.08 1550.07 801.42 c 0,0,0
 1545.38 671.66 1545.38 671.66 1507.98 553.21 c 0,0,0
 1470.58 434.76 1470.58 434.76 1402.46 336.87 c 0,0,0
 1294.81 164.28 1294.81 164.28 1118.2 72.14 c 0,0,0
 941.59 -20 941.59 -20 721.06 -20 c 0,0,0
 516.19 -20 516.19 -20 370.88 63.55 c 0,0,0
 241.09 136.54 241.09 136.54 172.36 267.41 c 0,0,0
 103.63 398.28 103.63 398.28 103.63 573 c 0,0,0
 103.63 810.32 103.63 810.32 209.63 1012.33 c 0,0,0
 314.63 1214.34 314.63 1214.34 502.29 1322.17 c 0,0,0
 689.95 1430 689.95 1430 931.3 1430 c 0,0,0
918.95 1223.07 m 0,0,0
 712.73 1223.07 712.73 1223.07 582.89 1108.8 c 0,0,0
 514.48 1054.18 514.48 1054.18 466.43 968.185 c 0,0,0
 418.38 882.19 418.38 882.19 393.02 780.325 c 0,0,0
 367.66 678.46 367.66 678.46 367.66 575.06 c 0,0,0
 367.66 382.14 367.66 382.14 463.105 284.365 c 0,0,0
 558.55 186.59 558.55 186.59 733.41 186.59 c 0,0,0
 906.29 186.59 906.29 186.59 1028.54 265.55 c 0,0,0
 1109.82 318.19 1109.82 318.19 1167.115 406.645 c 0,0,0
 1224.41 495.1 1224.41 495.1 1254.555 605.71 c 0,0,0
 1284.7 716.32 1284.7 716.32 1284.7 833.6 c 0,0,0
 1284.7 1019.83 1284.7 1019.83 1190.27 1121.45 c 0,0,0
 1095.84 1223.07 1095.84 1223.07 918.95 1223.07 c 0,0,0
EndSplineSet
EndChar

StartChar: ohorn
Encoding: 417 417 354
Width: 1329
GlyphClass: 2
Flags: W
LayerCount: 2
Fore
SplineSet
520.48 -20 m 0,0,0
 309.74 -20 309.74 -20 187.03 97 c 0,0,0
 64.32 214 64.32 214 64.32 419 c 0,0,0
 64.32 614.72 64.32 614.72 140.36 773.02 c 0,0,0
 216.4 930.99 216.4 930.99 356.635 1015.995 c 0,0,0
 496.87 1101 496.87 1101 683.54 1101 c 0,0,0
 901.69 1101 901.69 1101 1021.07 998.1 c 0,0,0
 1140.45 895.2 1140.45 895.2 1147.05 707.42 c 0,0,0
 1147.38 697.75 1147.38 697.75 1147.21 687.41 c 0,0,0
 1147.04 677.07 1147.04 677.07 1147.37 666.4 c 1,0,0
 1217.38 690.67 1217.38 690.67 1255.535 735.645 c 0,0,0
 1293.69 780.62 1293.69 780.62 1307.36 854.67 c 1,0,0
 1206.63 854.67 l 1,0,0
 1252.35 1083.98 l 1,0,0
 1495.59 1083.98 l 1,0,0
 1460.19 906.96 l 2,0,0
 1430.17 757.51 1430.17 757.51 1352.105 667.815 c 0,0,0
 1274.04 578.12 1274.04 578.12 1134.98 540.89 c 1,0,0
 1114.24 406.16 1114.24 406.16 1050.8 290.895 c 0,0,0
 987.36 175.63 987.36 175.63 889.91 101.71 c 0,0,0
 739.23 -20 739.23 -20 520.48 -20 c 0,0,0
890.01 668.93 m 0,0,0
 890.01 928.8 890.01 928.8 668.81 928.8 c 0,0,0
 546.54 928.8 546.54 928.8 474.25 864.49 c 0,0,0
 426.28 821.17 426.28 821.17 392.47 748.04 c 0,0,0
 358.66 674.91 358.66 674.91 340.84 590.125 c 0,0,0
 323.02 505.34 323.02 505.34 323.02 426.05 c 0,0,0
 323.02 290.11 323.02 290.11 378.98 221.32 c 0,0,0
 434.94 152.53 434.94 152.53 544.88 152.53 c 0,0,0
 616.39 152.53 616.39 152.53 666.83 173.795 c 0,0,0
 717.27 195.06 717.27 195.06 754.89 237.91 c 0,0,0
 794.93 279.54 794.93 279.54 825.29 346.345 c 0,0,0
 855.65 413.15 855.65 413.15 872.83 496.33 c 0,0,0
 890.01 579.51 890.01 579.51 890.01 668.93 c 0,0,0
EndSplineSet
EndChar

StartChar: uni01A2
Encoding: 418 418 355
Width: 1826
GlyphClass: 2
Flags: W
LayerCount: 2
Fore
SplineSet
693.59 -20 m 0,0,0
 413.61 -20 413.61 -20 259.625 133.815 c 0,0,0
 105.64 287.63 105.64 287.63 105.64 562.95 c 0,0,0
 105.64 815.68 105.64 815.68 208.29 1015.68 c 0,0,0
 310.61 1214.34 310.61 1214.34 499.275 1322.17 c 0,0,0
 687.94 1430 687.94 1430 937.33 1430 c 0,0,0
 1033.38 1430 1033.38 1430 1129.94 1408.155 c 0,0,0
 1226.5 1386.31 1226.5 1386.31 1299.12 1348.98 c 1,0,0
 1803.65 1424.34 l 1,0,0
 1866.75 1424.34 l 1,0,0
 1507.08 -424.67 l 1,0,0
 1258.74 -424.67 l 1,0,0
 1573.38 1194.2 l 1,0,0
 1327.95 1194.86 l 1,0,0
 1109.31 65.3 l 1,0,0
 1053.4 38.67 1053.4 38.67 983.715 19.175 c 0,0,0
 914.03 -0.32 914.03 -0.32 839.815 -10.16 c 0,0,0
 765.6 -20 765.6 -20 693.59 -20 c 0,0,0
1081.28 1201.2 m 1,0,0
 1011.4 1227.09 1011.4 1227.09 925.65 1227.09 c 0,0,0
 723.45 1227.09 723.45 1227.09 590.93 1108.13 c 0,0,0
 520.51 1050.16 520.51 1050.16 471.12 964.5 c 0,0,0
 421.73 878.84 421.73 878.84 396.035 775.97 c 0,0,0
 370.34 673.1 370.34 673.1 370.34 562.33 c 0,0,0
 370.34 374.43 370.34 374.43 461.1 278.835 c 0,0,0
 551.86 183.24 551.86 183.24 730.07 183.24 c 0,0,0
 815.81 183.24 815.81 183.24 888.33 207.8 c 1,0,0
 1081.28 1201.2 l 1,0,0
EndSplineSet
EndChar

StartChar: uni01A3
Encoding: 419 419 356
Width: 1457
GlyphClass: 2
Flags: W
LayerCount: 2
Fore
SplineSet
507.08 -20 m 0,0,0
 304.38 -20 304.38 -20 189.04 98.005 c 0,0,0
 73.7 216.01 73.7 216.01 73.7 419.67 c 0,0,0
 73.7 613.38 73.7 613.38 148.4 773.02 c 0,0,0
 222.43 931.66 222.43 931.66 359.315 1016.665 c 0,0,0
 496.2 1101.67 496.2 1101.67 684.88 1101.67 c 0,0,0
 781.95 1101.67 781.95 1101.67 870.015 1078.315 c 0,0,0
 958.08 1054.96 958.08 1054.96 1014.36 1017.63 c 1,0,0
 1397.86 1099.03 l 1,0,0
 1463.64 1099.03 l 1,0,0
 1167.3 -425 l 1,0,0
 940.04 -425 l 1,0,0
 1195.68 890.53 l 1,0,0
 1003.33 890.53 l 1,0,0
 843.73 46.71 l 1,0,0
 697.24 -20 697.24 -20 507.08 -20 c 0,0,0
780.39 915.83 m 1,0,0
 743.17 928.8 743.17 928.8 674.17 928.8 c 0,0,0
 565.97 928.8 565.97 928.8 490.33 863.15 c 0,0,0
 439.68 819.16 439.68 819.16 403.19 748.04 c 0,0,0
 366.7 676.92 366.7 676.92 347.54 590.46 c 0,0,0
 328.38 504 328.38 504 328.38 413.32 c 0,0,0
 328.38 284.08 328.38 284.08 380.655 218.305 c 0,0,0
 432.93 152.53 432.93 152.53 535.5 152.53 c 0,0,0
 595.17 152.53 595.17 152.53 634.79 160.85 c 1,0,0
 780.39 915.83 l 1,0,0
EndSplineSet
EndChar

StartChar: uni01A4
Encoding: 420 420 357
Width: 1509
GlyphClass: 2
Flags: W
LayerCount: 2
Fore
SplineSet
1009.47 1409 m 2,0,0
 1250.52 1409 1250.52 1409 1386.525 1299.64 c 0,0,0
 1522.53 1190.28 1522.53 1190.28 1522.53 997.89 c 0,0,0
 1522.53 849.21 1522.53 849.21 1453.195 740.195 c 0,0,0
 1383.86 631.18 1383.86 631.18 1257.03 572.335 c 0,0,0
 1130.2 513.49 1130.2 513.49 956.88 513.49 c 2,0,0
 590.5 513.49 l 1,0,0
 489.86 0 l 1,0,0
 229.85 0 l 1,0,0
 465.14 1216.78 l 1,0,0
 444.11 1216.78 l 2,0,0
 364.85 1216.78 364.85 1216.78 324.045 1174.49 c 0,0,0
 283.24 1132.2 283.24 1132.2 283.24 1054.27 c 0,0,0
 283.57 1037.25 283.57 1037.25 285.91 1017.21 c 0,0,0
 288.25 997.17 288.25 997.17 292.6 972.78 c 1,0,0
 93.01 955.78 l 1,0,0
 90.35 973.13 90.35 973.13 88.685 992.485 c 0,0,0
 87.02 1011.84 87.02 1011.84 87.02 1033.21 c 0,0,0
 87.02 1222.64 87.02 1222.64 180.2 1315.82 c 0,0,0
 273.38 1409 273.38 1409 462.8 1409 c 2,0,0
 1009.47 1409 l 2,0,0
629.21 715.41 m 1,0,0
 924.42 715.41 l 2,0,0
 1090.63 715.41 1090.63 715.41 1174.405 780.01 c 0,0,0
 1258.18 844.61 1258.18 844.61 1258.18 984.2 c 0,0,0
 1258.18 1091.81 1258.18 1091.81 1189.23 1148.445 c 0,0,0
 1120.28 1205.08 1120.28 1205.08 989.06 1205.08 c 2,0,0
 724.48 1205.08 l 1,0,0
 629.21 715.41 l 1,0,0
EndSplineSet
EndChar

StartChar: uni01A5
Encoding: 421 421 358
Width: 1214
GlyphClass: 2
Flags: W
LayerCount: 2
Fore
SplineSet
626.36 -20 m 0,0,0
 502.02 -20 502.02 -20 424.185 32 c 0,0,0
 346.35 84 346.35 84 314.35 178 c 1,0,0
 311.36 178 l 1,0,0
 309.37 158.72 309.37 158.72 306.21 138.435 c 0,0,0
 303.05 118.15 303.05 118.15 300.06 97.53 c 0,0,0
 290.79 46.88 290.79 46.88 265.45 -84.005 c 0,0,0
 240.11 -214.89 240.11 -214.89 199.69 -425 c 1,0,0
 -46.98 -425 l 1,0,0
 263.98 1194.2 l 2,0,0
 291.66 1341.61 291.66 1341.61 379.035 1415.115 c 0,0,0
 466.41 1488.62 466.41 1488.62 617.56 1488.62 c 0,0,0
 691.58 1488.62 691.58 1488.62 778.74 1468.29 c 1,0,0
 742.37 1281.78 l 1,0,0
 680.3 1298.43 680.3 1298.43 648.63 1298.43 c 0,0,0
 588.31 1298.43 588.31 1298.43 551.81 1259.14 c 0,0,0
 515.31 1219.85 515.31 1219.85 499.66 1140.27 c 2,0,0
 456 916.96 l 1,0,0
 459.34 916.96 l 1,0,0
 533 1017.32 533 1017.32 615.845 1059.66 c 0,0,0
 698.69 1102 698.69 1102 812.69 1102 c 0,0,0
 971.03 1102 971.03 1102 1059.535 1007.5 c 0,0,0
 1148.04 913 1148.04 913 1148.04 748 c 0,0,0
 1148.04 546.01 1148.04 546.01 1086.37 355 c 0,0,0
 1024.7 163.66 1024.7 163.66 912.365 71.83 c 0,0,0
 800.03 -20 800.03 -20 626.36 -20 c 0,0,0
715.13 925.48 m 0,0,0
 546.91 925.48 546.91 925.48 459.63 777.55 c 0,0,0
 430.98 727.57 430.98 727.57 409.66 658.935 c 0,0,0
 388.34 590.3 388.34 590.3 376.845 520.17 c 0,0,0
 365.35 450.04 365.35 450.04 365.35 393.08 c 0,0,0
 365.35 280.14 365.35 280.14 421.815 216.67 c 0,0,0
 478.28 153.2 478.28 153.2 579.22 153.2 c 0,0,0
 688.82 153.2 688.82 153.2 751.45 220.84 c 0,0,0
 794.09 266.16 794.09 266.16 824.4 350.285 c 0,0,0
 854.71 434.41 854.71 434.41 871.195 529.525 c 0,0,0
 887.68 624.64 887.68 624.64 887.68 701.26 c 0,0,0
 887.68 812.87 887.68 812.87 846.375 869.175 c 0,0,0
 805.07 925.48 805.07 925.48 715.13 925.48 c 0,0,0
EndSplineSet
EndChar

StartChar: uni01A6
Encoding: 422 422 359
Width: 1366
GlyphClass: 2
Flags: W
LayerCount: 2
Fore
SplineSet
967.97 -325.7 m 1,0,0
 678.42 382.76 l 1,0,0
 380.55 382.76 l 1,0,0
 305.59 0 l 1,0,0
 44.91 0 l 1,0,0
 316.57 1409.67 l 1,0,0
 569.23 1409.67 l 1,0,0
 537.22 1240.93 l 1,0,0
 847.9 1240.93 l 2,0,0
 1011.53 1240.93 1011.53 1240.93 1126.51 1185.66 c 0,0,0
 1229.94 1136.99 1229.94 1136.99 1284.98 1050.445 c 0,0,0
 1340.02 963.9 1340.02 963.9 1340.02 848.82 c 0,0,0
 1340.02 676.23 1340.02 676.23 1231.685 562.88 c 0,0,0
 1123.35 449.53 1123.35 449.53 929.1 421.2 c 1,0,0
 1254.37 -325.7 l 1,0,0
 967.97 -325.7 l 1,0,0
758.24 586.69 m 2,0,0
 915.12 586.69 915.12 586.69 995.395 650.8 c 0,0,0
 1075.67 714.91 1075.67 714.91 1075.67 832.48 c 0,0,0
 1075.67 931.08 1075.67 931.08 1008.54 984.045 c 0,0,0
 941.41 1037.01 941.41 1037.01 815.52 1037.01 c 2,0,0
 508.2 1037.01 l 1,0,0
 420.6 586.69 l 1,0,0
 758.24 586.69 l 2,0,0
EndSplineSet
EndChar

StartChar: uni01A7
Encoding: 423 423 360
Width: 1366
GlyphClass: 2
Flags: W
LayerCount: 2
Fore
SplineSet
1095.41 1082.94 m 0,0,0
 1095.41 1161.87 1095.41 1161.87 1029.805 1202.16 c 0,0,0
 964.2 1242.45 964.2 1242.45 836.95 1242.45 c 0,0,0
 701.38 1242.45 701.38 1242.45 616.795 1191.995 c 0,0,0
 532.21 1141.54 532.21 1141.54 486.93 1038 c 1,0,0
 241.27 1075.02 l 1,0,0
 296.58 1205.02 296.58 1205.02 377.08 1282.68 c 0,0,0
 457.58 1360.34 457.58 1360.34 576.1 1395.17 c 0,0,0
 694.62 1430 694.62 1430 861.66 1430 c 0,0,0
 1087.02 1430 1087.02 1430 1218.555 1340.485 c 0,0,0
 1350.09 1250.97 1350.09 1250.97 1350.09 1092.63 c 0,0,0
 1350.09 1005.95 1350.09 1005.95 1326.76 942.775 c 0,0,0
 1303.43 879.6 1303.43 879.6 1262.77 833.59 c 0,0,0
 1219.78 786.25 1219.78 786.25 1160.16 752.6 c 0,0,0
 1119.52 729.94 1119.52 729.94 1071.225 711.44 c 0,0,0
 1022.93 692.94 1022.93 692.94 949 674.105 c 0,0,0
 875.07 655.27 875.07 655.27 755.85 629.95 c 0,0,0
 666.52 610.27 666.52 610.27 589.47 589.45 c 0,0,0
 512.42 568.63 512.42 568.63 455.03 540.31 c 0,0,0
 394.01 509.68 394.01 509.68 359.97 466.38 c 0,0,0
 325.93 423.08 325.93 423.08 325.93 361.42 c 0,0,0
 325.93 265.46 325.93 265.46 401.53 221.35 c 0,0,0
 477.13 177.24 477.13 177.24 617.4 177.24 c 0,0,0
 755.78 177.24 755.78 177.24 846.11 218.28 c 0,0,0
 910.64 246.59 910.64 246.59 957.22 296.01 c 0,0,0
 1003.8 345.43 1003.8 345.43 1039.38 426.21 c 1,0,0
 1291.09 377.2 l 1,0,0
 1206.14 172.99 1206.14 172.99 1032.93 76.495 c 0,0,0
 859.72 -20 859.72 -20 591.66 -20 c 0,0,0
 341.29 -20 341.29 -20 203.77 76.175 c 0,0,0
 66.25 172.35 66.25 172.35 66.25 344.67 c 0,0,0
 66.25 453.11 66.25 453.11 103.97 533.85 c 0,0,0
 141.69 614.59 141.69 614.59 221.19 671.3 c 0,0,0
 264.84 705.23 264.84 705.23 322.14 731.355 c 0,0,0
 379.44 757.48 379.44 757.48 448.73 777.79 c 0,0,0
 471.7 784.44 471.7 784.44 500.115 791.755 c 0,0,0
 528.53 799.07 528.53 799.07 563.4 806.04 c 2,0,0
 691.61 833.42 l 2,0,0
 789.25 853.42 789.25 853.42 855.725 871.08 c 0,0,0
 922.2 888.74 922.2 888.74 956.84 903.73 c 0,0,0
 1025.45 932.71 1025.45 932.71 1060.43 975.345 c 0,0,0
 1095.41 1017.98 1095.41 1017.98 1095.41 1082.94 c 0,0,0
EndSplineSet
EndChar

StartChar: uni01A8
Encoding: 424 424 361
Width: 1101
GlyphClass: 2
Flags: W
LayerCount: 2
Fore
SplineSet
619.87 931.18 m 0,0,0
 515.57 931.18 515.57 931.18 459.595 898.355 c 0,0,0
 403.62 865.53 403.62 865.53 376.64 793.91 c 1,0,0
 163.66 827.17 l 1,0,0
 212.04 965.25 212.04 965.25 330.765 1034.125 c 0,0,0
 449.49 1103 449.49 1103 644.59 1103 c 0,0,0
 834.65 1103 834.65 1103 937.515 1030.325 c 0,0,0
 1040.38 957.65 1040.38 957.65 1040.38 816.59 c 0,0,0
 1040.38 723.53 1040.38 723.53 995.335 658.99 c 0,0,0
 950.29 594.45 950.29 594.45 861.57 549.78 c 0,0,0
 772.53 505.45 772.53 505.45 536.52 449.75 c 0,0,0
 399.7 415.83 399.7 415.83 346.05 384.48 c 0,0,0
 309.81 363.85 309.81 363.85 291.855 337.725 c 0,0,0
 273.9 311.6 273.9 311.6 273.9 277.35 c 0,0,0
 273.9 151.15 273.9 151.15 482.81 151.15 c 0,0,0
 595.43 151.15 595.43 151.15 661.42 184.8 c 0,0,0
 727.41 218.45 727.41 218.45 765.11 297.76 c 1,0,0
 974.42 254.49 l 1,0,0
 919.34 109.37 919.34 109.37 800.295 44.685 c 0,0,0
 681.25 -20 681.25 -20 469.77 -20 c 0,0,0
 265.39 -20 265.39 -20 151.68 56.18 c 0,0,0
 37.97 132.36 37.97 132.36 37.97 269.67 c 0,0,0
 37.97 372.74 37.97 372.74 82.65 442.77 c 0,0,0
 112.66 489.12 112.66 489.12 159 524.46 c 0,0,0
 205.34 559.8 205.34 559.8 286.695 590.125 c 0,0,0
 368.05 620.45 368.05 620.45 500.1 649.76 c 2,0,0
 615.2 674.75 l 1,0,0
 720.45 701.01 720.45 701.01 765.115 731.49 c 0,0,0
 809.78 761.97 809.78 761.97 809.78 816.25 c 0,0,0
 809.78 878.58 809.78 878.58 761.475 904.88 c 0,0,0
 713.17 931.18 713.17 931.18 619.87 931.18 c 0,0,0
EndSplineSet
EndChar

StartChar: uni01AA
Encoding: 426 426 363
Width: 718
GlyphClass: 2
Flags: W
LayerCount: 2
Fore
SplineSet
159.92 1265.6 m 0,0,0
 159.92 1371.98 159.92 1371.98 230.435 1429.475 c 0,0,0
 300.95 1486.97 300.95 1486.97 424.7 1486.97 c 0,0,0
 553.47 1486.97 553.47 1486.97 621.36 1421.745 c 0,0,0
 689.25 1356.52 689.25 1356.52 689.25 1239.11 c 0,0,0
 689.25 1182.36 689.25 1182.36 676.58 1120.03 c 2,0,0
 440.34 -86.48 l 2,0,0
 435.34 -113.79 435.34 -113.79 435.34 -136.48 c 0,0,0
 435.34 -228.14 435.34 -228.14 531.01 -228.14 c 0,0,0
 552.31 -228.14 552.31 -228.14 588.355 -224.47 c 0,0,0
 624.4 -220.8 624.4 -220.8 645.04 -215.81 c 1,0,0
 607.67 -409.32 l 1,0,0
 536.98 -425 536.98 -425 438.83 -425 c 0,0,0
 312.38 -425 312.38 -425 246.845 -367.005 c 0,0,0
 181.31 -309.01 181.31 -309.01 181.31 -197.31 c 0,0,0
 181.31 -158.65 181.31 -158.65 191.65 -101.94 c 2,0,0
 428.6 1110.48 l 1,0,0
 385.95 1093.54 385.95 1093.54 330.98 1093.54 c 0,0,0
 255.64 1093.54 255.64 1093.54 207.78 1140.555 c 0,0,0
 159.92 1187.57 159.92 1187.57 159.92 1265.6 c 0,0,0
378.64 1384.18 m 0,0,0
 332.68 1384.18 332.68 1384.18 303.885 1354.89 c 0,0,0
 275.09 1325.6 275.09 1325.6 275.09 1279.31 c 0,0,0
 275.09 1237.31 275.09 1237.31 299.43 1213.3 c 0,0,0
 323.77 1189.29 323.77 1189.29 365.77 1189.29 c 0,0,0
 412.39 1189.29 412.39 1189.29 441.515 1218.25 c 0,0,0
 470.64 1247.21 470.64 1247.21 470.64 1293.17 c 0,0,0
 470.64 1335.17 470.64 1335.17 445.97 1359.675 c 0,0,0
 421.3 1384.18 421.3 1384.18 378.64 1384.18 c 0,0,0
EndSplineSet
EndChar

StartChar: uni01AB
Encoding: 427 427 364
Width: 644
GlyphClass: 2
Flags: W
LayerCount: 2
Fore
SplineSet
154.79 -426.34 m 0,0,0
 81.75 -426.34 81.75 -426.34 7.63 -406.01 c 1,0,0
 43.33 -220.85 l 1,0,0
 105.4 -237.5 105.4 -237.5 141.09 -237.5 c 0,0,0
 196.72 -237.5 196.72 -237.5 232.91 -202.22 c 0,0,0
 269.1 -166.94 269.1 -166.94 285.43 -80.33 c 2,0,0
 297.44 -13.97 l 1,0,0
 209.09 -4.59 209.09 -4.59 158.75 48.755 c 0,0,0
 108.41 102.1 108.41 102.1 108.41 194.81 c 0,0,0
 108.41 262.54 108.41 262.54 124.08 342.9 c 2,0,0
 234 911.47 l 1,0,0
 93.59 911.47 l 1,0,0
 126.96 1082 l 1,0,0
 277.41 1082 l 1,0,0
 403.85 1332.04 l 1,0,0
 561.37 1332.04 l 1,0,0
 513.7 1082 l 1,0,0
 715.04 1082 l 1,0,0
 683.01 911.47 l 1,0,0
 479.66 911.47 l 1,0,0
 368.73 340.17 l 2,0,0
 357.4 281.51 357.4 281.51 357.4 249.19 c 0,0,0
 357.4 203.85 357.4 203.85 380.57 181.515 c 0,0,0
 403.74 159.18 403.74 159.18 445.39 159.18 c 0,0,0
 481.04 159.18 481.04 159.18 550.75 172.51 c 1,0,0
 497.37 -134.89 l 2,0,0
 472.01 -274.92 472.01 -274.92 386.45 -350.63 c 0,0,0
 300.89 -426.34 300.89 -426.34 154.79 -426.34 c 0,0,0
EndSplineSet
EndChar

StartChar: uni01AC
Encoding: 428 428 365
Width: 1251
GlyphClass: 2
Flags: W
LayerCount: 2
Fore
SplineSet
894.85 1204.76 m 1,0,0
 660.23 0 l 1,0,0
 399.88 0 l 1,0,0
 634.5 1204.76 l 1,0,0
 445.23 1204.76 l 2,0,0
 285.35 1204.76 285.35 1204.76 285.35 1054.27 c 0,0,0
 285.68 1033.23 285.68 1033.23 288.02 1010.845 c 0,0,0
 290.36 988.46 290.36 988.46 294.71 964.07 c 1,0,0
 95.12 947.07 l 1,0,0
 89.13 982.43 89.13 982.43 89.13 1033.21 c 0,0,0
 89.13 1222.64 89.13 1222.64 182.31 1315.82 c 0,0,0
 275.49 1409 275.49 1409 464.91 1409 c 2,0,0
 1387.41 1409 l 1,0,0
 1348.03 1204.76 l 1,0,0
 894.85 1204.76 l 1,0,0
EndSplineSet
EndChar

StartChar: uni01AD
Encoding: 429 429 366
Width: 644
GlyphClass: 2
Flags: W
LayerCount: 2
Fore
SplineSet
342.67 -17.32 m 0,0,0
 231.54 -17.32 231.54 -17.32 169.975 38.705 c 0,0,0
 108.41 94.73 108.41 94.73 108.41 194.81 c 0,0,0
 108.41 262.54 108.41 262.54 124.08 342.9 c 2,0,0
 234 911.47 l 1,0,0
 93.59 911.47 l 1,0,0
 126.96 1082 l 1,0,0
 267.7 1082 l 1,0,0
 289.67 1193.54 l 2,0,0
 317.68 1339.96 317.68 1339.96 403.9 1414.29 c 0,0,0
 490.12 1488.62 490.12 1488.62 642.59 1488.62 c 0,0,0
 716.61 1488.62 716.61 1488.62 803.77 1468.29 c 1,0,0
 767.4 1288.48 l 1,0,0
 705.33 1305.13 705.33 1305.13 673.66 1305.13 c 0,0,0
 613.34 1305.13 613.34 1305.13 577.005 1265.675 c 0,0,0
 540.67 1226.22 540.67 1226.22 524.69 1145.65 c 2,0,0
 513.7 1082 l 1,0,0
 715.04 1082 l 1,0,0
 683.01 911.47 l 1,0,0
 479.66 911.47 l 1,0,0
 368.73 340.17 l 2,0,0
 357.4 281.51 357.4 281.51 357.4 249.19 c 0,0,0
 357.4 203.85 357.4 203.85 380.57 181.515 c 0,0,0
 403.74 159.18 403.74 159.18 445.39 159.18 c 0,0,0
 481.04 159.18 481.04 159.18 550.75 172.51 c 1,0,0
 523.04 6.68 l 1,0,0
 436.1 -17.32 436.1 -17.32 342.67 -17.32 c 0,0,0
EndSplineSet
EndChar

StartChar: uni01AE
Encoding: 430 430 367
Width: 1251
GlyphClass: 2
Flags: W
LayerCount: 2
Fore
SplineSet
157.87 1204.76 m 1,0,0
 197.25 1409 l 1,0,0
 1387.41 1409 l 1,0,0
 1348.03 1204.76 l 1,0,0
 882.79 1204.76 l 1,0,0
 635.21 -64.11 l 2,0,0
 627.88 -99.74 627.88 -99.74 627.88 -129.42 c 0,0,0
 627.88 -220.44 627.88 -220.44 718.26 -220.44 c 0,0,0
 757.83 -220.44 757.83 -220.44 820.22 -206.45 c 1,0,0
 781.18 -405.99 l 1,0,0
 692.1 -425 692.1 -425 623.4 -425 c 0,0,0
 492.62 -425 492.62 -425 427.075 -364.81 c 0,0,0
 361.53 -304.62 361.53 -304.62 361.53 -182.84 c 0,0,0
 361.53 -126.08 361.53 -126.08 374.87 -62.73 c 2,0,0
 622.44 1204.76 l 1,0,0
 157.87 1204.76 l 1,0,0
EndSplineSet
EndChar

StartChar: Uhorn
Encoding: 431 431 368
Width: 1645
GlyphClass: 2
Flags: W
LayerCount: 2
Fore
SplineSet
666.06 -20 m 0,0,0
 412.62 -20 412.62 -20 271.42 98.325 c 0,0,0
 130.22 216.65 130.22 216.65 130.22 431 c 0,0,0
 130.22 517 130.22 517 153.22 635 c 2,0,0
 301.88 1409 l 1,0,0
 562.56 1409 l 1,0,0
 406.59 588.11 l 2,0,0
 388.92 500.12 388.92 500.12 388.92 425.68 c 0,0,0
 388.92 311.79 388.92 311.79 466.705 248.855 c 0,0,0
 544.49 185.92 544.49 185.92 682.06 185.92 c 0,0,0
 855.97 185.92 855.97 185.92 951.37 270.335 c 0,0,0
 1046.77 354.75 1046.77 354.75 1082.09 541 c 2,0,0
 1250.09 1409 l 1,0,0
 1510.44 1409 l 1,0,0
 1423.06 959.77 l 1,0,0
 1671.41 996.39 1671.41 996.39 1704.37 1179.69 c 1,0,0
 1590.24 1179.69 l 1,0,0
 1635.96 1409 l 1,0,0
 1892.6 1409 l 1,0,0
 1857.53 1233.63 l 2,0,0
 1822.2 1057.3 1822.2 1057.3 1710.82 958.605 c 0,0,0
 1599.44 859.91 1599.44 859.91 1399.03 835.94 c 1,0,0
 1339.77 530 l 2,0,0
 1286.09 252.96 1286.09 252.96 1120.1 116.48 c 0,0,0
 954.11 -20 954.11 -20 666.06 -20 c 0,0,0
EndSplineSet
EndChar

